G04 #@! TF.GenerationSoftware,KiCad,Pcbnew,(5.1.4)-1*
G04 #@! TF.CreationDate,2021-04-18T17:33:52-07:00*
G04 #@! TF.ProjectId,ai03-pcb-guide,61693033-2d70-4636-922d-67756964652e,rev?*
G04 #@! TF.SameCoordinates,Original*
G04 #@! TF.FileFunction,Copper,L2,Bot*
G04 #@! TF.FilePolarity,Positive*
%FSLAX46Y46*%
G04 Gerber Fmt 4.6, Leading zero omitted, Abs format (unit mm)*
G04 Created by KiCad (PCBNEW (5.1.4)-1) date 2021-04-18 17:33:52*
%MOMM*%
%LPD*%
G04 APERTURE LIST*
%ADD10R,1.200000X0.900000*%
%ADD11R,1.400000X1.200000*%
%ADD12O,1.700000X2.700000*%
%ADD13R,0.500000X2.250000*%
%ADD14R,1.500000X0.550000*%
%ADD15R,0.550000X1.500000*%
%ADD16R,1.800000X1.100000*%
%ADD17C,0.100000*%
%ADD18C,0.975000*%
%ADD19R,1.905000X1.905000*%
%ADD20C,1.905000*%
%ADD21C,2.250000*%
%ADD22C,2.250000*%
%ADD23C,1.250000*%
%ADD24C,0.800000*%
%ADD25C,0.381000*%
%ADD26C,0.254000*%
G04 APERTURE END LIST*
D10*
X177800000Y-126143750D03*
X177800000Y-129443750D03*
X158750000Y-126143750D03*
X158750000Y-129443750D03*
D11*
X130429000Y-128238250D03*
X128229000Y-128238250D03*
X128229000Y-126538250D03*
X130429000Y-126538250D03*
D12*
X104300000Y-119856250D03*
X111600000Y-119856250D03*
X111600000Y-124356250D03*
X104300000Y-124356250D03*
D13*
X106350000Y-124356250D03*
X107150000Y-124356250D03*
X107950000Y-124356250D03*
X108750000Y-124356250D03*
X109550000Y-124356250D03*
D14*
X123713000Y-143160250D03*
X123713000Y-142360250D03*
X123713000Y-141560250D03*
X123713000Y-140760250D03*
X123713000Y-139960250D03*
X123713000Y-139160250D03*
X123713000Y-138360250D03*
X123713000Y-137560250D03*
X123713000Y-136760250D03*
X123713000Y-135960250D03*
X123713000Y-135160250D03*
D15*
X125413000Y-133460250D03*
X126213000Y-133460250D03*
X127013000Y-133460250D03*
X127813000Y-133460250D03*
X128613000Y-133460250D03*
X129413000Y-133460250D03*
X130213000Y-133460250D03*
X131013000Y-133460250D03*
X131813000Y-133460250D03*
X132613000Y-133460250D03*
X133413000Y-133460250D03*
D14*
X135113000Y-135160250D03*
X135113000Y-135960250D03*
X135113000Y-136760250D03*
X135113000Y-137560250D03*
X135113000Y-138360250D03*
X135113000Y-139160250D03*
X135113000Y-139960250D03*
X135113000Y-140760250D03*
X135113000Y-141560250D03*
X135113000Y-142360250D03*
X135113000Y-143160250D03*
D15*
X133413000Y-144860250D03*
X132613000Y-144860250D03*
X131813000Y-144860250D03*
X131013000Y-144860250D03*
X130213000Y-144860250D03*
X129413000Y-144860250D03*
X128613000Y-144860250D03*
X127813000Y-144860250D03*
X127013000Y-144860250D03*
X126213000Y-144860250D03*
X125413000Y-144860250D03*
D16*
X109537500Y-153193750D03*
X103337500Y-149493750D03*
X109537500Y-149493750D03*
X103337500Y-153193750D03*
D17*
G36*
X139386392Y-142894924D02*
G01*
X139410053Y-142898434D01*
X139433257Y-142904246D01*
X139455779Y-142912304D01*
X139477403Y-142922532D01*
X139497920Y-142934829D01*
X139517133Y-142949079D01*
X139534857Y-142965143D01*
X139550921Y-142982867D01*
X139565171Y-143002080D01*
X139577468Y-143022597D01*
X139587696Y-143044221D01*
X139595754Y-143066743D01*
X139601566Y-143089947D01*
X139605076Y-143113608D01*
X139606250Y-143137500D01*
X139606250Y-143625000D01*
X139605076Y-143648892D01*
X139601566Y-143672553D01*
X139595754Y-143695757D01*
X139587696Y-143718279D01*
X139577468Y-143739903D01*
X139565171Y-143760420D01*
X139550921Y-143779633D01*
X139534857Y-143797357D01*
X139517133Y-143813421D01*
X139497920Y-143827671D01*
X139477403Y-143839968D01*
X139455779Y-143850196D01*
X139433257Y-143858254D01*
X139410053Y-143864066D01*
X139386392Y-143867576D01*
X139362500Y-143868750D01*
X138450000Y-143868750D01*
X138426108Y-143867576D01*
X138402447Y-143864066D01*
X138379243Y-143858254D01*
X138356721Y-143850196D01*
X138335097Y-143839968D01*
X138314580Y-143827671D01*
X138295367Y-143813421D01*
X138277643Y-143797357D01*
X138261579Y-143779633D01*
X138247329Y-143760420D01*
X138235032Y-143739903D01*
X138224804Y-143718279D01*
X138216746Y-143695757D01*
X138210934Y-143672553D01*
X138207424Y-143648892D01*
X138206250Y-143625000D01*
X138206250Y-143137500D01*
X138207424Y-143113608D01*
X138210934Y-143089947D01*
X138216746Y-143066743D01*
X138224804Y-143044221D01*
X138235032Y-143022597D01*
X138247329Y-143002080D01*
X138261579Y-142982867D01*
X138277643Y-142965143D01*
X138295367Y-142949079D01*
X138314580Y-142934829D01*
X138335097Y-142922532D01*
X138356721Y-142912304D01*
X138379243Y-142904246D01*
X138402447Y-142898434D01*
X138426108Y-142894924D01*
X138450000Y-142893750D01*
X139362500Y-142893750D01*
X139386392Y-142894924D01*
X139386392Y-142894924D01*
G37*
D18*
X138906250Y-143381250D03*
D17*
G36*
X139386392Y-144769924D02*
G01*
X139410053Y-144773434D01*
X139433257Y-144779246D01*
X139455779Y-144787304D01*
X139477403Y-144797532D01*
X139497920Y-144809829D01*
X139517133Y-144824079D01*
X139534857Y-144840143D01*
X139550921Y-144857867D01*
X139565171Y-144877080D01*
X139577468Y-144897597D01*
X139587696Y-144919221D01*
X139595754Y-144941743D01*
X139601566Y-144964947D01*
X139605076Y-144988608D01*
X139606250Y-145012500D01*
X139606250Y-145500000D01*
X139605076Y-145523892D01*
X139601566Y-145547553D01*
X139595754Y-145570757D01*
X139587696Y-145593279D01*
X139577468Y-145614903D01*
X139565171Y-145635420D01*
X139550921Y-145654633D01*
X139534857Y-145672357D01*
X139517133Y-145688421D01*
X139497920Y-145702671D01*
X139477403Y-145714968D01*
X139455779Y-145725196D01*
X139433257Y-145733254D01*
X139410053Y-145739066D01*
X139386392Y-145742576D01*
X139362500Y-145743750D01*
X138450000Y-145743750D01*
X138426108Y-145742576D01*
X138402447Y-145739066D01*
X138379243Y-145733254D01*
X138356721Y-145725196D01*
X138335097Y-145714968D01*
X138314580Y-145702671D01*
X138295367Y-145688421D01*
X138277643Y-145672357D01*
X138261579Y-145654633D01*
X138247329Y-145635420D01*
X138235032Y-145614903D01*
X138224804Y-145593279D01*
X138216746Y-145570757D01*
X138210934Y-145547553D01*
X138207424Y-145523892D01*
X138206250Y-145500000D01*
X138206250Y-145012500D01*
X138207424Y-144988608D01*
X138210934Y-144964947D01*
X138216746Y-144941743D01*
X138224804Y-144919221D01*
X138235032Y-144897597D01*
X138247329Y-144877080D01*
X138261579Y-144857867D01*
X138277643Y-144840143D01*
X138295367Y-144824079D01*
X138314580Y-144809829D01*
X138335097Y-144797532D01*
X138356721Y-144787304D01*
X138379243Y-144779246D01*
X138402447Y-144773434D01*
X138426108Y-144769924D01*
X138450000Y-144768750D01*
X139362500Y-144768750D01*
X139386392Y-144769924D01*
X139386392Y-144769924D01*
G37*
D18*
X138906250Y-145256250D03*
D17*
G36*
X118685392Y-129290924D02*
G01*
X118709053Y-129294434D01*
X118732257Y-129300246D01*
X118754779Y-129308304D01*
X118776403Y-129318532D01*
X118796920Y-129330829D01*
X118816133Y-129345079D01*
X118833857Y-129361143D01*
X118849921Y-129378867D01*
X118864171Y-129398080D01*
X118876468Y-129418597D01*
X118886696Y-129440221D01*
X118894754Y-129462743D01*
X118900566Y-129485947D01*
X118904076Y-129509608D01*
X118905250Y-129533500D01*
X118905250Y-130021000D01*
X118904076Y-130044892D01*
X118900566Y-130068553D01*
X118894754Y-130091757D01*
X118886696Y-130114279D01*
X118876468Y-130135903D01*
X118864171Y-130156420D01*
X118849921Y-130175633D01*
X118833857Y-130193357D01*
X118816133Y-130209421D01*
X118796920Y-130223671D01*
X118776403Y-130235968D01*
X118754779Y-130246196D01*
X118732257Y-130254254D01*
X118709053Y-130260066D01*
X118685392Y-130263576D01*
X118661500Y-130264750D01*
X117749000Y-130264750D01*
X117725108Y-130263576D01*
X117701447Y-130260066D01*
X117678243Y-130254254D01*
X117655721Y-130246196D01*
X117634097Y-130235968D01*
X117613580Y-130223671D01*
X117594367Y-130209421D01*
X117576643Y-130193357D01*
X117560579Y-130175633D01*
X117546329Y-130156420D01*
X117534032Y-130135903D01*
X117523804Y-130114279D01*
X117515746Y-130091757D01*
X117509934Y-130068553D01*
X117506424Y-130044892D01*
X117505250Y-130021000D01*
X117505250Y-129533500D01*
X117506424Y-129509608D01*
X117509934Y-129485947D01*
X117515746Y-129462743D01*
X117523804Y-129440221D01*
X117534032Y-129418597D01*
X117546329Y-129398080D01*
X117560579Y-129378867D01*
X117576643Y-129361143D01*
X117594367Y-129345079D01*
X117613580Y-129330829D01*
X117634097Y-129318532D01*
X117655721Y-129308304D01*
X117678243Y-129300246D01*
X117701447Y-129294434D01*
X117725108Y-129290924D01*
X117749000Y-129289750D01*
X118661500Y-129289750D01*
X118685392Y-129290924D01*
X118685392Y-129290924D01*
G37*
D18*
X118205250Y-129777250D03*
D17*
G36*
X118685392Y-131165924D02*
G01*
X118709053Y-131169434D01*
X118732257Y-131175246D01*
X118754779Y-131183304D01*
X118776403Y-131193532D01*
X118796920Y-131205829D01*
X118816133Y-131220079D01*
X118833857Y-131236143D01*
X118849921Y-131253867D01*
X118864171Y-131273080D01*
X118876468Y-131293597D01*
X118886696Y-131315221D01*
X118894754Y-131337743D01*
X118900566Y-131360947D01*
X118904076Y-131384608D01*
X118905250Y-131408500D01*
X118905250Y-131896000D01*
X118904076Y-131919892D01*
X118900566Y-131943553D01*
X118894754Y-131966757D01*
X118886696Y-131989279D01*
X118876468Y-132010903D01*
X118864171Y-132031420D01*
X118849921Y-132050633D01*
X118833857Y-132068357D01*
X118816133Y-132084421D01*
X118796920Y-132098671D01*
X118776403Y-132110968D01*
X118754779Y-132121196D01*
X118732257Y-132129254D01*
X118709053Y-132135066D01*
X118685392Y-132138576D01*
X118661500Y-132139750D01*
X117749000Y-132139750D01*
X117725108Y-132138576D01*
X117701447Y-132135066D01*
X117678243Y-132129254D01*
X117655721Y-132121196D01*
X117634097Y-132110968D01*
X117613580Y-132098671D01*
X117594367Y-132084421D01*
X117576643Y-132068357D01*
X117560579Y-132050633D01*
X117546329Y-132031420D01*
X117534032Y-132010903D01*
X117523804Y-131989279D01*
X117515746Y-131966757D01*
X117509934Y-131943553D01*
X117506424Y-131919892D01*
X117505250Y-131896000D01*
X117505250Y-131408500D01*
X117506424Y-131384608D01*
X117509934Y-131360947D01*
X117515746Y-131337743D01*
X117523804Y-131315221D01*
X117534032Y-131293597D01*
X117546329Y-131273080D01*
X117560579Y-131253867D01*
X117576643Y-131236143D01*
X117594367Y-131220079D01*
X117613580Y-131205829D01*
X117634097Y-131193532D01*
X117655721Y-131183304D01*
X117678243Y-131175246D01*
X117701447Y-131169434D01*
X117725108Y-131165924D01*
X117749000Y-131164750D01*
X118661500Y-131164750D01*
X118685392Y-131165924D01*
X118685392Y-131165924D01*
G37*
D18*
X118205250Y-131652250D03*
D17*
G36*
X110017642Y-128894924D02*
G01*
X110041303Y-128898434D01*
X110064507Y-128904246D01*
X110087029Y-128912304D01*
X110108653Y-128922532D01*
X110129170Y-128934829D01*
X110148383Y-128949079D01*
X110166107Y-128965143D01*
X110182171Y-128982867D01*
X110196421Y-129002080D01*
X110208718Y-129022597D01*
X110218946Y-129044221D01*
X110227004Y-129066743D01*
X110232816Y-129089947D01*
X110236326Y-129113608D01*
X110237500Y-129137500D01*
X110237500Y-129625000D01*
X110236326Y-129648892D01*
X110232816Y-129672553D01*
X110227004Y-129695757D01*
X110218946Y-129718279D01*
X110208718Y-129739903D01*
X110196421Y-129760420D01*
X110182171Y-129779633D01*
X110166107Y-129797357D01*
X110148383Y-129813421D01*
X110129170Y-129827671D01*
X110108653Y-129839968D01*
X110087029Y-129850196D01*
X110064507Y-129858254D01*
X110041303Y-129864066D01*
X110017642Y-129867576D01*
X109993750Y-129868750D01*
X109081250Y-129868750D01*
X109057358Y-129867576D01*
X109033697Y-129864066D01*
X109010493Y-129858254D01*
X108987971Y-129850196D01*
X108966347Y-129839968D01*
X108945830Y-129827671D01*
X108926617Y-129813421D01*
X108908893Y-129797357D01*
X108892829Y-129779633D01*
X108878579Y-129760420D01*
X108866282Y-129739903D01*
X108856054Y-129718279D01*
X108847996Y-129695757D01*
X108842184Y-129672553D01*
X108838674Y-129648892D01*
X108837500Y-129625000D01*
X108837500Y-129137500D01*
X108838674Y-129113608D01*
X108842184Y-129089947D01*
X108847996Y-129066743D01*
X108856054Y-129044221D01*
X108866282Y-129022597D01*
X108878579Y-129002080D01*
X108892829Y-128982867D01*
X108908893Y-128965143D01*
X108926617Y-128949079D01*
X108945830Y-128934829D01*
X108966347Y-128922532D01*
X108987971Y-128912304D01*
X109010493Y-128904246D01*
X109033697Y-128898434D01*
X109057358Y-128894924D01*
X109081250Y-128893750D01*
X109993750Y-128893750D01*
X110017642Y-128894924D01*
X110017642Y-128894924D01*
G37*
D18*
X109537500Y-129381250D03*
D17*
G36*
X110017642Y-130769924D02*
G01*
X110041303Y-130773434D01*
X110064507Y-130779246D01*
X110087029Y-130787304D01*
X110108653Y-130797532D01*
X110129170Y-130809829D01*
X110148383Y-130824079D01*
X110166107Y-130840143D01*
X110182171Y-130857867D01*
X110196421Y-130877080D01*
X110208718Y-130897597D01*
X110218946Y-130919221D01*
X110227004Y-130941743D01*
X110232816Y-130964947D01*
X110236326Y-130988608D01*
X110237500Y-131012500D01*
X110237500Y-131500000D01*
X110236326Y-131523892D01*
X110232816Y-131547553D01*
X110227004Y-131570757D01*
X110218946Y-131593279D01*
X110208718Y-131614903D01*
X110196421Y-131635420D01*
X110182171Y-131654633D01*
X110166107Y-131672357D01*
X110148383Y-131688421D01*
X110129170Y-131702671D01*
X110108653Y-131714968D01*
X110087029Y-131725196D01*
X110064507Y-131733254D01*
X110041303Y-131739066D01*
X110017642Y-131742576D01*
X109993750Y-131743750D01*
X109081250Y-131743750D01*
X109057358Y-131742576D01*
X109033697Y-131739066D01*
X109010493Y-131733254D01*
X108987971Y-131725196D01*
X108966347Y-131714968D01*
X108945830Y-131702671D01*
X108926617Y-131688421D01*
X108908893Y-131672357D01*
X108892829Y-131654633D01*
X108878579Y-131635420D01*
X108866282Y-131614903D01*
X108856054Y-131593279D01*
X108847996Y-131570757D01*
X108842184Y-131547553D01*
X108838674Y-131523892D01*
X108837500Y-131500000D01*
X108837500Y-131012500D01*
X108838674Y-130988608D01*
X108842184Y-130964947D01*
X108847996Y-130941743D01*
X108856054Y-130919221D01*
X108866282Y-130897597D01*
X108878579Y-130877080D01*
X108892829Y-130857867D01*
X108908893Y-130840143D01*
X108926617Y-130824079D01*
X108945830Y-130809829D01*
X108966347Y-130797532D01*
X108987971Y-130787304D01*
X109010493Y-130779246D01*
X109033697Y-130773434D01*
X109057358Y-130769924D01*
X109081250Y-130768750D01*
X109993750Y-130768750D01*
X110017642Y-130769924D01*
X110017642Y-130769924D01*
G37*
D18*
X109537500Y-131256250D03*
D17*
G36*
X106048892Y-128894924D02*
G01*
X106072553Y-128898434D01*
X106095757Y-128904246D01*
X106118279Y-128912304D01*
X106139903Y-128922532D01*
X106160420Y-128934829D01*
X106179633Y-128949079D01*
X106197357Y-128965143D01*
X106213421Y-128982867D01*
X106227671Y-129002080D01*
X106239968Y-129022597D01*
X106250196Y-129044221D01*
X106258254Y-129066743D01*
X106264066Y-129089947D01*
X106267576Y-129113608D01*
X106268750Y-129137500D01*
X106268750Y-129625000D01*
X106267576Y-129648892D01*
X106264066Y-129672553D01*
X106258254Y-129695757D01*
X106250196Y-129718279D01*
X106239968Y-129739903D01*
X106227671Y-129760420D01*
X106213421Y-129779633D01*
X106197357Y-129797357D01*
X106179633Y-129813421D01*
X106160420Y-129827671D01*
X106139903Y-129839968D01*
X106118279Y-129850196D01*
X106095757Y-129858254D01*
X106072553Y-129864066D01*
X106048892Y-129867576D01*
X106025000Y-129868750D01*
X105112500Y-129868750D01*
X105088608Y-129867576D01*
X105064947Y-129864066D01*
X105041743Y-129858254D01*
X105019221Y-129850196D01*
X104997597Y-129839968D01*
X104977080Y-129827671D01*
X104957867Y-129813421D01*
X104940143Y-129797357D01*
X104924079Y-129779633D01*
X104909829Y-129760420D01*
X104897532Y-129739903D01*
X104887304Y-129718279D01*
X104879246Y-129695757D01*
X104873434Y-129672553D01*
X104869924Y-129648892D01*
X104868750Y-129625000D01*
X104868750Y-129137500D01*
X104869924Y-129113608D01*
X104873434Y-129089947D01*
X104879246Y-129066743D01*
X104887304Y-129044221D01*
X104897532Y-129022597D01*
X104909829Y-129002080D01*
X104924079Y-128982867D01*
X104940143Y-128965143D01*
X104957867Y-128949079D01*
X104977080Y-128934829D01*
X104997597Y-128922532D01*
X105019221Y-128912304D01*
X105041743Y-128904246D01*
X105064947Y-128898434D01*
X105088608Y-128894924D01*
X105112500Y-128893750D01*
X106025000Y-128893750D01*
X106048892Y-128894924D01*
X106048892Y-128894924D01*
G37*
D18*
X105568750Y-129381250D03*
D17*
G36*
X106048892Y-130769924D02*
G01*
X106072553Y-130773434D01*
X106095757Y-130779246D01*
X106118279Y-130787304D01*
X106139903Y-130797532D01*
X106160420Y-130809829D01*
X106179633Y-130824079D01*
X106197357Y-130840143D01*
X106213421Y-130857867D01*
X106227671Y-130877080D01*
X106239968Y-130897597D01*
X106250196Y-130919221D01*
X106258254Y-130941743D01*
X106264066Y-130964947D01*
X106267576Y-130988608D01*
X106268750Y-131012500D01*
X106268750Y-131500000D01*
X106267576Y-131523892D01*
X106264066Y-131547553D01*
X106258254Y-131570757D01*
X106250196Y-131593279D01*
X106239968Y-131614903D01*
X106227671Y-131635420D01*
X106213421Y-131654633D01*
X106197357Y-131672357D01*
X106179633Y-131688421D01*
X106160420Y-131702671D01*
X106139903Y-131714968D01*
X106118279Y-131725196D01*
X106095757Y-131733254D01*
X106072553Y-131739066D01*
X106048892Y-131742576D01*
X106025000Y-131743750D01*
X105112500Y-131743750D01*
X105088608Y-131742576D01*
X105064947Y-131739066D01*
X105041743Y-131733254D01*
X105019221Y-131725196D01*
X104997597Y-131714968D01*
X104977080Y-131702671D01*
X104957867Y-131688421D01*
X104940143Y-131672357D01*
X104924079Y-131654633D01*
X104909829Y-131635420D01*
X104897532Y-131614903D01*
X104887304Y-131593279D01*
X104879246Y-131570757D01*
X104873434Y-131547553D01*
X104869924Y-131523892D01*
X104868750Y-131500000D01*
X104868750Y-131012500D01*
X104869924Y-130988608D01*
X104873434Y-130964947D01*
X104879246Y-130941743D01*
X104887304Y-130919221D01*
X104897532Y-130897597D01*
X104909829Y-130877080D01*
X104924079Y-130857867D01*
X104940143Y-130840143D01*
X104957867Y-130824079D01*
X104977080Y-130809829D01*
X104997597Y-130797532D01*
X105019221Y-130787304D01*
X105041743Y-130779246D01*
X105064947Y-130773434D01*
X105088608Y-130769924D01*
X105112500Y-130768750D01*
X106025000Y-130768750D01*
X106048892Y-130769924D01*
X106048892Y-130769924D01*
G37*
D18*
X105568750Y-131256250D03*
D19*
X171132500Y-151923750D03*
D20*
X168592500Y-151923750D03*
D21*
X167362500Y-142843750D03*
X166707501Y-143573750D03*
D22*
X166052500Y-144303750D02*
X167362502Y-142843750D01*
D21*
X172402500Y-141763750D03*
X172382500Y-142053750D03*
D22*
X172362500Y-142343750D02*
X172402500Y-141763750D01*
D19*
X171132500Y-132873750D03*
D20*
X168592500Y-132873750D03*
D21*
X167362500Y-123793750D03*
X166707501Y-124523750D03*
D22*
X166052500Y-125253750D02*
X167362502Y-123793750D01*
D21*
X172402500Y-122713750D03*
X172382500Y-123003750D03*
D22*
X172362500Y-123293750D02*
X172402500Y-122713750D01*
D19*
X152082500Y-151923750D03*
D20*
X149542500Y-151923750D03*
D21*
X148312500Y-142843750D03*
X147657501Y-143573750D03*
D22*
X147002500Y-144303750D02*
X148312502Y-142843750D01*
D21*
X153352500Y-141763750D03*
X153332500Y-142053750D03*
D22*
X153312500Y-142343750D02*
X153352500Y-141763750D01*
D19*
X152082500Y-132873750D03*
D20*
X149542500Y-132873750D03*
D21*
X148312500Y-123793750D03*
X147657501Y-124523750D03*
D22*
X147002500Y-125253750D02*
X148312502Y-123793750D01*
D21*
X153352500Y-122713750D03*
X153332500Y-123003750D03*
D22*
X153312500Y-123293750D02*
X153352500Y-122713750D01*
D17*
G36*
X103837004Y-137301204D02*
G01*
X103861273Y-137304804D01*
X103885071Y-137310765D01*
X103908171Y-137319030D01*
X103930349Y-137329520D01*
X103951393Y-137342133D01*
X103971098Y-137356747D01*
X103989277Y-137373223D01*
X104005753Y-137391402D01*
X104020367Y-137411107D01*
X104032980Y-137432151D01*
X104043470Y-137454329D01*
X104051735Y-137477429D01*
X104057696Y-137501227D01*
X104061296Y-137525496D01*
X104062500Y-137550000D01*
X104062500Y-138300000D01*
X104061296Y-138324504D01*
X104057696Y-138348773D01*
X104051735Y-138372571D01*
X104043470Y-138395671D01*
X104032980Y-138417849D01*
X104020367Y-138438893D01*
X104005753Y-138458598D01*
X103989277Y-138476777D01*
X103971098Y-138493253D01*
X103951393Y-138507867D01*
X103930349Y-138520480D01*
X103908171Y-138530970D01*
X103885071Y-138539235D01*
X103861273Y-138545196D01*
X103837004Y-138548796D01*
X103812500Y-138550000D01*
X102562500Y-138550000D01*
X102537996Y-138548796D01*
X102513727Y-138545196D01*
X102489929Y-138539235D01*
X102466829Y-138530970D01*
X102444651Y-138520480D01*
X102423607Y-138507867D01*
X102403902Y-138493253D01*
X102385723Y-138476777D01*
X102369247Y-138458598D01*
X102354633Y-138438893D01*
X102342020Y-138417849D01*
X102331530Y-138395671D01*
X102323265Y-138372571D01*
X102317304Y-138348773D01*
X102313704Y-138324504D01*
X102312500Y-138300000D01*
X102312500Y-137550000D01*
X102313704Y-137525496D01*
X102317304Y-137501227D01*
X102323265Y-137477429D01*
X102331530Y-137454329D01*
X102342020Y-137432151D01*
X102354633Y-137411107D01*
X102369247Y-137391402D01*
X102385723Y-137373223D01*
X102403902Y-137356747D01*
X102423607Y-137342133D01*
X102444651Y-137329520D01*
X102466829Y-137319030D01*
X102489929Y-137310765D01*
X102513727Y-137304804D01*
X102537996Y-137301204D01*
X102562500Y-137300000D01*
X103812500Y-137300000D01*
X103837004Y-137301204D01*
X103837004Y-137301204D01*
G37*
D23*
X103187500Y-137925000D03*
D17*
G36*
X103837004Y-134501204D02*
G01*
X103861273Y-134504804D01*
X103885071Y-134510765D01*
X103908171Y-134519030D01*
X103930349Y-134529520D01*
X103951393Y-134542133D01*
X103971098Y-134556747D01*
X103989277Y-134573223D01*
X104005753Y-134591402D01*
X104020367Y-134611107D01*
X104032980Y-134632151D01*
X104043470Y-134654329D01*
X104051735Y-134677429D01*
X104057696Y-134701227D01*
X104061296Y-134725496D01*
X104062500Y-134750000D01*
X104062500Y-135500000D01*
X104061296Y-135524504D01*
X104057696Y-135548773D01*
X104051735Y-135572571D01*
X104043470Y-135595671D01*
X104032980Y-135617849D01*
X104020367Y-135638893D01*
X104005753Y-135658598D01*
X103989277Y-135676777D01*
X103971098Y-135693253D01*
X103951393Y-135707867D01*
X103930349Y-135720480D01*
X103908171Y-135730970D01*
X103885071Y-135739235D01*
X103861273Y-135745196D01*
X103837004Y-135748796D01*
X103812500Y-135750000D01*
X102562500Y-135750000D01*
X102537996Y-135748796D01*
X102513727Y-135745196D01*
X102489929Y-135739235D01*
X102466829Y-135730970D01*
X102444651Y-135720480D01*
X102423607Y-135707867D01*
X102403902Y-135693253D01*
X102385723Y-135676777D01*
X102369247Y-135658598D01*
X102354633Y-135638893D01*
X102342020Y-135617849D01*
X102331530Y-135595671D01*
X102323265Y-135572571D01*
X102317304Y-135548773D01*
X102313704Y-135524504D01*
X102312500Y-135500000D01*
X102312500Y-134750000D01*
X102313704Y-134725496D01*
X102317304Y-134701227D01*
X102323265Y-134677429D01*
X102331530Y-134654329D01*
X102342020Y-134632151D01*
X102354633Y-134611107D01*
X102369247Y-134591402D01*
X102385723Y-134573223D01*
X102403902Y-134556747D01*
X102423607Y-134542133D01*
X102444651Y-134529520D01*
X102466829Y-134519030D01*
X102489929Y-134510765D01*
X102513727Y-134504804D01*
X102537996Y-134501204D01*
X102562500Y-134500000D01*
X103812500Y-134500000D01*
X103837004Y-134501204D01*
X103837004Y-134501204D01*
G37*
D23*
X103187500Y-135125000D03*
D10*
X177800000Y-145193750D03*
X177800000Y-148493750D03*
X158750000Y-145193750D03*
X158750000Y-148493750D03*
D17*
G36*
X120336392Y-144626174D02*
G01*
X120360053Y-144629684D01*
X120383257Y-144635496D01*
X120405779Y-144643554D01*
X120427403Y-144653782D01*
X120447920Y-144666079D01*
X120467133Y-144680329D01*
X120484857Y-144696393D01*
X120500921Y-144714117D01*
X120515171Y-144733330D01*
X120527468Y-144753847D01*
X120537696Y-144775471D01*
X120545754Y-144797993D01*
X120551566Y-144821197D01*
X120555076Y-144844858D01*
X120556250Y-144868750D01*
X120556250Y-145356250D01*
X120555076Y-145380142D01*
X120551566Y-145403803D01*
X120545754Y-145427007D01*
X120537696Y-145449529D01*
X120527468Y-145471153D01*
X120515171Y-145491670D01*
X120500921Y-145510883D01*
X120484857Y-145528607D01*
X120467133Y-145544671D01*
X120447920Y-145558921D01*
X120427403Y-145571218D01*
X120405779Y-145581446D01*
X120383257Y-145589504D01*
X120360053Y-145595316D01*
X120336392Y-145598826D01*
X120312500Y-145600000D01*
X119400000Y-145600000D01*
X119376108Y-145598826D01*
X119352447Y-145595316D01*
X119329243Y-145589504D01*
X119306721Y-145581446D01*
X119285097Y-145571218D01*
X119264580Y-145558921D01*
X119245367Y-145544671D01*
X119227643Y-145528607D01*
X119211579Y-145510883D01*
X119197329Y-145491670D01*
X119185032Y-145471153D01*
X119174804Y-145449529D01*
X119166746Y-145427007D01*
X119160934Y-145403803D01*
X119157424Y-145380142D01*
X119156250Y-145356250D01*
X119156250Y-144868750D01*
X119157424Y-144844858D01*
X119160934Y-144821197D01*
X119166746Y-144797993D01*
X119174804Y-144775471D01*
X119185032Y-144753847D01*
X119197329Y-144733330D01*
X119211579Y-144714117D01*
X119227643Y-144696393D01*
X119245367Y-144680329D01*
X119264580Y-144666079D01*
X119285097Y-144653782D01*
X119306721Y-144643554D01*
X119329243Y-144635496D01*
X119352447Y-144629684D01*
X119376108Y-144626174D01*
X119400000Y-144625000D01*
X120312500Y-144625000D01*
X120336392Y-144626174D01*
X120336392Y-144626174D01*
G37*
D18*
X119856250Y-145112500D03*
D17*
G36*
X120336392Y-146501174D02*
G01*
X120360053Y-146504684D01*
X120383257Y-146510496D01*
X120405779Y-146518554D01*
X120427403Y-146528782D01*
X120447920Y-146541079D01*
X120467133Y-146555329D01*
X120484857Y-146571393D01*
X120500921Y-146589117D01*
X120515171Y-146608330D01*
X120527468Y-146628847D01*
X120537696Y-146650471D01*
X120545754Y-146672993D01*
X120551566Y-146696197D01*
X120555076Y-146719858D01*
X120556250Y-146743750D01*
X120556250Y-147231250D01*
X120555076Y-147255142D01*
X120551566Y-147278803D01*
X120545754Y-147302007D01*
X120537696Y-147324529D01*
X120527468Y-147346153D01*
X120515171Y-147366670D01*
X120500921Y-147385883D01*
X120484857Y-147403607D01*
X120467133Y-147419671D01*
X120447920Y-147433921D01*
X120427403Y-147446218D01*
X120405779Y-147456446D01*
X120383257Y-147464504D01*
X120360053Y-147470316D01*
X120336392Y-147473826D01*
X120312500Y-147475000D01*
X119400000Y-147475000D01*
X119376108Y-147473826D01*
X119352447Y-147470316D01*
X119329243Y-147464504D01*
X119306721Y-147456446D01*
X119285097Y-147446218D01*
X119264580Y-147433921D01*
X119245367Y-147419671D01*
X119227643Y-147403607D01*
X119211579Y-147385883D01*
X119197329Y-147366670D01*
X119185032Y-147346153D01*
X119174804Y-147324529D01*
X119166746Y-147302007D01*
X119160934Y-147278803D01*
X119157424Y-147255142D01*
X119156250Y-147231250D01*
X119156250Y-146743750D01*
X119157424Y-146719858D01*
X119160934Y-146696197D01*
X119166746Y-146672993D01*
X119174804Y-146650471D01*
X119185032Y-146628847D01*
X119197329Y-146608330D01*
X119211579Y-146589117D01*
X119227643Y-146571393D01*
X119245367Y-146555329D01*
X119264580Y-146541079D01*
X119285097Y-146528782D01*
X119306721Y-146518554D01*
X119329243Y-146510496D01*
X119352447Y-146504684D01*
X119376108Y-146501174D01*
X119400000Y-146500000D01*
X120312500Y-146500000D01*
X120336392Y-146501174D01*
X120336392Y-146501174D01*
G37*
D18*
X119856250Y-146987500D03*
D17*
G36*
X120123892Y-138207424D02*
G01*
X120147553Y-138210934D01*
X120170757Y-138216746D01*
X120193279Y-138224804D01*
X120214903Y-138235032D01*
X120235420Y-138247329D01*
X120254633Y-138261579D01*
X120272357Y-138277643D01*
X120288421Y-138295367D01*
X120302671Y-138314580D01*
X120314968Y-138335097D01*
X120325196Y-138356721D01*
X120333254Y-138379243D01*
X120339066Y-138402447D01*
X120342576Y-138426108D01*
X120343750Y-138450000D01*
X120343750Y-139362500D01*
X120342576Y-139386392D01*
X120339066Y-139410053D01*
X120333254Y-139433257D01*
X120325196Y-139455779D01*
X120314968Y-139477403D01*
X120302671Y-139497920D01*
X120288421Y-139517133D01*
X120272357Y-139534857D01*
X120254633Y-139550921D01*
X120235420Y-139565171D01*
X120214903Y-139577468D01*
X120193279Y-139587696D01*
X120170757Y-139595754D01*
X120147553Y-139601566D01*
X120123892Y-139605076D01*
X120100000Y-139606250D01*
X119612500Y-139606250D01*
X119588608Y-139605076D01*
X119564947Y-139601566D01*
X119541743Y-139595754D01*
X119519221Y-139587696D01*
X119497597Y-139577468D01*
X119477080Y-139565171D01*
X119457867Y-139550921D01*
X119440143Y-139534857D01*
X119424079Y-139517133D01*
X119409829Y-139497920D01*
X119397532Y-139477403D01*
X119387304Y-139455779D01*
X119379246Y-139433257D01*
X119373434Y-139410053D01*
X119369924Y-139386392D01*
X119368750Y-139362500D01*
X119368750Y-138450000D01*
X119369924Y-138426108D01*
X119373434Y-138402447D01*
X119379246Y-138379243D01*
X119387304Y-138356721D01*
X119397532Y-138335097D01*
X119409829Y-138314580D01*
X119424079Y-138295367D01*
X119440143Y-138277643D01*
X119457867Y-138261579D01*
X119477080Y-138247329D01*
X119497597Y-138235032D01*
X119519221Y-138224804D01*
X119541743Y-138216746D01*
X119564947Y-138210934D01*
X119588608Y-138207424D01*
X119612500Y-138206250D01*
X120100000Y-138206250D01*
X120123892Y-138207424D01*
X120123892Y-138207424D01*
G37*
D18*
X119856250Y-138906250D03*
D17*
G36*
X118248892Y-138207424D02*
G01*
X118272553Y-138210934D01*
X118295757Y-138216746D01*
X118318279Y-138224804D01*
X118339903Y-138235032D01*
X118360420Y-138247329D01*
X118379633Y-138261579D01*
X118397357Y-138277643D01*
X118413421Y-138295367D01*
X118427671Y-138314580D01*
X118439968Y-138335097D01*
X118450196Y-138356721D01*
X118458254Y-138379243D01*
X118464066Y-138402447D01*
X118467576Y-138426108D01*
X118468750Y-138450000D01*
X118468750Y-139362500D01*
X118467576Y-139386392D01*
X118464066Y-139410053D01*
X118458254Y-139433257D01*
X118450196Y-139455779D01*
X118439968Y-139477403D01*
X118427671Y-139497920D01*
X118413421Y-139517133D01*
X118397357Y-139534857D01*
X118379633Y-139550921D01*
X118360420Y-139565171D01*
X118339903Y-139577468D01*
X118318279Y-139587696D01*
X118295757Y-139595754D01*
X118272553Y-139601566D01*
X118248892Y-139605076D01*
X118225000Y-139606250D01*
X117737500Y-139606250D01*
X117713608Y-139605076D01*
X117689947Y-139601566D01*
X117666743Y-139595754D01*
X117644221Y-139587696D01*
X117622597Y-139577468D01*
X117602080Y-139565171D01*
X117582867Y-139550921D01*
X117565143Y-139534857D01*
X117549079Y-139517133D01*
X117534829Y-139497920D01*
X117522532Y-139477403D01*
X117512304Y-139455779D01*
X117504246Y-139433257D01*
X117498434Y-139410053D01*
X117494924Y-139386392D01*
X117493750Y-139362500D01*
X117493750Y-138450000D01*
X117494924Y-138426108D01*
X117498434Y-138402447D01*
X117504246Y-138379243D01*
X117512304Y-138356721D01*
X117522532Y-138335097D01*
X117534829Y-138314580D01*
X117549079Y-138295367D01*
X117565143Y-138277643D01*
X117582867Y-138261579D01*
X117602080Y-138247329D01*
X117622597Y-138235032D01*
X117644221Y-138224804D01*
X117666743Y-138216746D01*
X117689947Y-138210934D01*
X117713608Y-138207424D01*
X117737500Y-138206250D01*
X118225000Y-138206250D01*
X118248892Y-138207424D01*
X118248892Y-138207424D01*
G37*
D18*
X117981250Y-138906250D03*
D17*
G36*
X121733392Y-131117424D02*
G01*
X121757053Y-131120934D01*
X121780257Y-131126746D01*
X121802779Y-131134804D01*
X121824403Y-131145032D01*
X121844920Y-131157329D01*
X121864133Y-131171579D01*
X121881857Y-131187643D01*
X121897921Y-131205367D01*
X121912171Y-131224580D01*
X121924468Y-131245097D01*
X121934696Y-131266721D01*
X121942754Y-131289243D01*
X121948566Y-131312447D01*
X121952076Y-131336108D01*
X121953250Y-131360000D01*
X121953250Y-131847500D01*
X121952076Y-131871392D01*
X121948566Y-131895053D01*
X121942754Y-131918257D01*
X121934696Y-131940779D01*
X121924468Y-131962403D01*
X121912171Y-131982920D01*
X121897921Y-132002133D01*
X121881857Y-132019857D01*
X121864133Y-132035921D01*
X121844920Y-132050171D01*
X121824403Y-132062468D01*
X121802779Y-132072696D01*
X121780257Y-132080754D01*
X121757053Y-132086566D01*
X121733392Y-132090076D01*
X121709500Y-132091250D01*
X120797000Y-132091250D01*
X120773108Y-132090076D01*
X120749447Y-132086566D01*
X120726243Y-132080754D01*
X120703721Y-132072696D01*
X120682097Y-132062468D01*
X120661580Y-132050171D01*
X120642367Y-132035921D01*
X120624643Y-132019857D01*
X120608579Y-132002133D01*
X120594329Y-131982920D01*
X120582032Y-131962403D01*
X120571804Y-131940779D01*
X120563746Y-131918257D01*
X120557934Y-131895053D01*
X120554424Y-131871392D01*
X120553250Y-131847500D01*
X120553250Y-131360000D01*
X120554424Y-131336108D01*
X120557934Y-131312447D01*
X120563746Y-131289243D01*
X120571804Y-131266721D01*
X120582032Y-131245097D01*
X120594329Y-131224580D01*
X120608579Y-131205367D01*
X120624643Y-131187643D01*
X120642367Y-131171579D01*
X120661580Y-131157329D01*
X120682097Y-131145032D01*
X120703721Y-131134804D01*
X120726243Y-131126746D01*
X120749447Y-131120934D01*
X120773108Y-131117424D01*
X120797000Y-131116250D01*
X121709500Y-131116250D01*
X121733392Y-131117424D01*
X121733392Y-131117424D01*
G37*
D18*
X121253250Y-131603750D03*
D17*
G36*
X121733392Y-129242424D02*
G01*
X121757053Y-129245934D01*
X121780257Y-129251746D01*
X121802779Y-129259804D01*
X121824403Y-129270032D01*
X121844920Y-129282329D01*
X121864133Y-129296579D01*
X121881857Y-129312643D01*
X121897921Y-129330367D01*
X121912171Y-129349580D01*
X121924468Y-129370097D01*
X121934696Y-129391721D01*
X121942754Y-129414243D01*
X121948566Y-129437447D01*
X121952076Y-129461108D01*
X121953250Y-129485000D01*
X121953250Y-129972500D01*
X121952076Y-129996392D01*
X121948566Y-130020053D01*
X121942754Y-130043257D01*
X121934696Y-130065779D01*
X121924468Y-130087403D01*
X121912171Y-130107920D01*
X121897921Y-130127133D01*
X121881857Y-130144857D01*
X121864133Y-130160921D01*
X121844920Y-130175171D01*
X121824403Y-130187468D01*
X121802779Y-130197696D01*
X121780257Y-130205754D01*
X121757053Y-130211566D01*
X121733392Y-130215076D01*
X121709500Y-130216250D01*
X120797000Y-130216250D01*
X120773108Y-130215076D01*
X120749447Y-130211566D01*
X120726243Y-130205754D01*
X120703721Y-130197696D01*
X120682097Y-130187468D01*
X120661580Y-130175171D01*
X120642367Y-130160921D01*
X120624643Y-130144857D01*
X120608579Y-130127133D01*
X120594329Y-130107920D01*
X120582032Y-130087403D01*
X120571804Y-130065779D01*
X120563746Y-130043257D01*
X120557934Y-130020053D01*
X120554424Y-129996392D01*
X120553250Y-129972500D01*
X120553250Y-129485000D01*
X120554424Y-129461108D01*
X120557934Y-129437447D01*
X120563746Y-129414243D01*
X120571804Y-129391721D01*
X120582032Y-129370097D01*
X120594329Y-129349580D01*
X120608579Y-129330367D01*
X120624643Y-129312643D01*
X120642367Y-129296579D01*
X120661580Y-129282329D01*
X120682097Y-129270032D01*
X120703721Y-129259804D01*
X120726243Y-129251746D01*
X120749447Y-129245934D01*
X120773108Y-129242424D01*
X120797000Y-129241250D01*
X121709500Y-129241250D01*
X121733392Y-129242424D01*
X121733392Y-129242424D01*
G37*
D18*
X121253250Y-129728750D03*
D17*
G36*
X125702142Y-127848924D02*
G01*
X125725803Y-127852434D01*
X125749007Y-127858246D01*
X125771529Y-127866304D01*
X125793153Y-127876532D01*
X125813670Y-127888829D01*
X125832883Y-127903079D01*
X125850607Y-127919143D01*
X125866671Y-127936867D01*
X125880921Y-127956080D01*
X125893218Y-127976597D01*
X125903446Y-127998221D01*
X125911504Y-128020743D01*
X125917316Y-128043947D01*
X125920826Y-128067608D01*
X125922000Y-128091500D01*
X125922000Y-128579000D01*
X125920826Y-128602892D01*
X125917316Y-128626553D01*
X125911504Y-128649757D01*
X125903446Y-128672279D01*
X125893218Y-128693903D01*
X125880921Y-128714420D01*
X125866671Y-128733633D01*
X125850607Y-128751357D01*
X125832883Y-128767421D01*
X125813670Y-128781671D01*
X125793153Y-128793968D01*
X125771529Y-128804196D01*
X125749007Y-128812254D01*
X125725803Y-128818066D01*
X125702142Y-128821576D01*
X125678250Y-128822750D01*
X124765750Y-128822750D01*
X124741858Y-128821576D01*
X124718197Y-128818066D01*
X124694993Y-128812254D01*
X124672471Y-128804196D01*
X124650847Y-128793968D01*
X124630330Y-128781671D01*
X124611117Y-128767421D01*
X124593393Y-128751357D01*
X124577329Y-128733633D01*
X124563079Y-128714420D01*
X124550782Y-128693903D01*
X124540554Y-128672279D01*
X124532496Y-128649757D01*
X124526684Y-128626553D01*
X124523174Y-128602892D01*
X124522000Y-128579000D01*
X124522000Y-128091500D01*
X124523174Y-128067608D01*
X124526684Y-128043947D01*
X124532496Y-128020743D01*
X124540554Y-127998221D01*
X124550782Y-127976597D01*
X124563079Y-127956080D01*
X124577329Y-127936867D01*
X124593393Y-127919143D01*
X124611117Y-127903079D01*
X124630330Y-127888829D01*
X124650847Y-127876532D01*
X124672471Y-127866304D01*
X124694993Y-127858246D01*
X124718197Y-127852434D01*
X124741858Y-127848924D01*
X124765750Y-127847750D01*
X125678250Y-127847750D01*
X125702142Y-127848924D01*
X125702142Y-127848924D01*
G37*
D18*
X125222000Y-128335250D03*
D17*
G36*
X125702142Y-125973924D02*
G01*
X125725803Y-125977434D01*
X125749007Y-125983246D01*
X125771529Y-125991304D01*
X125793153Y-126001532D01*
X125813670Y-126013829D01*
X125832883Y-126028079D01*
X125850607Y-126044143D01*
X125866671Y-126061867D01*
X125880921Y-126081080D01*
X125893218Y-126101597D01*
X125903446Y-126123221D01*
X125911504Y-126145743D01*
X125917316Y-126168947D01*
X125920826Y-126192608D01*
X125922000Y-126216500D01*
X125922000Y-126704000D01*
X125920826Y-126727892D01*
X125917316Y-126751553D01*
X125911504Y-126774757D01*
X125903446Y-126797279D01*
X125893218Y-126818903D01*
X125880921Y-126839420D01*
X125866671Y-126858633D01*
X125850607Y-126876357D01*
X125832883Y-126892421D01*
X125813670Y-126906671D01*
X125793153Y-126918968D01*
X125771529Y-126929196D01*
X125749007Y-126937254D01*
X125725803Y-126943066D01*
X125702142Y-126946576D01*
X125678250Y-126947750D01*
X124765750Y-126947750D01*
X124741858Y-126946576D01*
X124718197Y-126943066D01*
X124694993Y-126937254D01*
X124672471Y-126929196D01*
X124650847Y-126918968D01*
X124630330Y-126906671D01*
X124611117Y-126892421D01*
X124593393Y-126876357D01*
X124577329Y-126858633D01*
X124563079Y-126839420D01*
X124550782Y-126818903D01*
X124540554Y-126797279D01*
X124532496Y-126774757D01*
X124526684Y-126751553D01*
X124523174Y-126727892D01*
X124522000Y-126704000D01*
X124522000Y-126216500D01*
X124523174Y-126192608D01*
X124526684Y-126168947D01*
X124532496Y-126145743D01*
X124540554Y-126123221D01*
X124550782Y-126101597D01*
X124563079Y-126081080D01*
X124577329Y-126061867D01*
X124593393Y-126044143D01*
X124611117Y-126028079D01*
X124630330Y-126013829D01*
X124650847Y-126001532D01*
X124672471Y-125991304D01*
X124694993Y-125983246D01*
X124718197Y-125977434D01*
X124741858Y-125973924D01*
X124765750Y-125972750D01*
X125678250Y-125972750D01*
X125702142Y-125973924D01*
X125702142Y-125973924D01*
G37*
D18*
X125222000Y-126460250D03*
D17*
G36*
X133703142Y-127848924D02*
G01*
X133726803Y-127852434D01*
X133750007Y-127858246D01*
X133772529Y-127866304D01*
X133794153Y-127876532D01*
X133814670Y-127888829D01*
X133833883Y-127903079D01*
X133851607Y-127919143D01*
X133867671Y-127936867D01*
X133881921Y-127956080D01*
X133894218Y-127976597D01*
X133904446Y-127998221D01*
X133912504Y-128020743D01*
X133918316Y-128043947D01*
X133921826Y-128067608D01*
X133923000Y-128091500D01*
X133923000Y-128579000D01*
X133921826Y-128602892D01*
X133918316Y-128626553D01*
X133912504Y-128649757D01*
X133904446Y-128672279D01*
X133894218Y-128693903D01*
X133881921Y-128714420D01*
X133867671Y-128733633D01*
X133851607Y-128751357D01*
X133833883Y-128767421D01*
X133814670Y-128781671D01*
X133794153Y-128793968D01*
X133772529Y-128804196D01*
X133750007Y-128812254D01*
X133726803Y-128818066D01*
X133703142Y-128821576D01*
X133679250Y-128822750D01*
X132766750Y-128822750D01*
X132742858Y-128821576D01*
X132719197Y-128818066D01*
X132695993Y-128812254D01*
X132673471Y-128804196D01*
X132651847Y-128793968D01*
X132631330Y-128781671D01*
X132612117Y-128767421D01*
X132594393Y-128751357D01*
X132578329Y-128733633D01*
X132564079Y-128714420D01*
X132551782Y-128693903D01*
X132541554Y-128672279D01*
X132533496Y-128649757D01*
X132527684Y-128626553D01*
X132524174Y-128602892D01*
X132523000Y-128579000D01*
X132523000Y-128091500D01*
X132524174Y-128067608D01*
X132527684Y-128043947D01*
X132533496Y-128020743D01*
X132541554Y-127998221D01*
X132551782Y-127976597D01*
X132564079Y-127956080D01*
X132578329Y-127936867D01*
X132594393Y-127919143D01*
X132612117Y-127903079D01*
X132631330Y-127888829D01*
X132651847Y-127876532D01*
X132673471Y-127866304D01*
X132695993Y-127858246D01*
X132719197Y-127852434D01*
X132742858Y-127848924D01*
X132766750Y-127847750D01*
X133679250Y-127847750D01*
X133703142Y-127848924D01*
X133703142Y-127848924D01*
G37*
D18*
X133223000Y-128335250D03*
D17*
G36*
X133703142Y-125973924D02*
G01*
X133726803Y-125977434D01*
X133750007Y-125983246D01*
X133772529Y-125991304D01*
X133794153Y-126001532D01*
X133814670Y-126013829D01*
X133833883Y-126028079D01*
X133851607Y-126044143D01*
X133867671Y-126061867D01*
X133881921Y-126081080D01*
X133894218Y-126101597D01*
X133904446Y-126123221D01*
X133912504Y-126145743D01*
X133918316Y-126168947D01*
X133921826Y-126192608D01*
X133923000Y-126216500D01*
X133923000Y-126704000D01*
X133921826Y-126727892D01*
X133918316Y-126751553D01*
X133912504Y-126774757D01*
X133904446Y-126797279D01*
X133894218Y-126818903D01*
X133881921Y-126839420D01*
X133867671Y-126858633D01*
X133851607Y-126876357D01*
X133833883Y-126892421D01*
X133814670Y-126906671D01*
X133794153Y-126918968D01*
X133772529Y-126929196D01*
X133750007Y-126937254D01*
X133726803Y-126943066D01*
X133703142Y-126946576D01*
X133679250Y-126947750D01*
X132766750Y-126947750D01*
X132742858Y-126946576D01*
X132719197Y-126943066D01*
X132695993Y-126937254D01*
X132673471Y-126929196D01*
X132651847Y-126918968D01*
X132631330Y-126906671D01*
X132612117Y-126892421D01*
X132594393Y-126876357D01*
X132578329Y-126858633D01*
X132564079Y-126839420D01*
X132551782Y-126818903D01*
X132541554Y-126797279D01*
X132533496Y-126774757D01*
X132527684Y-126751553D01*
X132524174Y-126727892D01*
X132523000Y-126704000D01*
X132523000Y-126216500D01*
X132524174Y-126192608D01*
X132527684Y-126168947D01*
X132533496Y-126145743D01*
X132541554Y-126123221D01*
X132551782Y-126101597D01*
X132564079Y-126081080D01*
X132578329Y-126061867D01*
X132594393Y-126044143D01*
X132612117Y-126028079D01*
X132631330Y-126013829D01*
X132651847Y-126001532D01*
X132673471Y-125991304D01*
X132695993Y-125983246D01*
X132719197Y-125977434D01*
X132742858Y-125973924D01*
X132766750Y-125972750D01*
X133679250Y-125972750D01*
X133703142Y-125973924D01*
X133703142Y-125973924D01*
G37*
D18*
X133223000Y-126460250D03*
D17*
G36*
X134476642Y-147478424D02*
G01*
X134500303Y-147481934D01*
X134523507Y-147487746D01*
X134546029Y-147495804D01*
X134567653Y-147506032D01*
X134588170Y-147518329D01*
X134607383Y-147532579D01*
X134625107Y-147548643D01*
X134641171Y-147566367D01*
X134655421Y-147585580D01*
X134667718Y-147606097D01*
X134677946Y-147627721D01*
X134686004Y-147650243D01*
X134691816Y-147673447D01*
X134695326Y-147697108D01*
X134696500Y-147721000D01*
X134696500Y-148633500D01*
X134695326Y-148657392D01*
X134691816Y-148681053D01*
X134686004Y-148704257D01*
X134677946Y-148726779D01*
X134667718Y-148748403D01*
X134655421Y-148768920D01*
X134641171Y-148788133D01*
X134625107Y-148805857D01*
X134607383Y-148821921D01*
X134588170Y-148836171D01*
X134567653Y-148848468D01*
X134546029Y-148858696D01*
X134523507Y-148866754D01*
X134500303Y-148872566D01*
X134476642Y-148876076D01*
X134452750Y-148877250D01*
X133965250Y-148877250D01*
X133941358Y-148876076D01*
X133917697Y-148872566D01*
X133894493Y-148866754D01*
X133871971Y-148858696D01*
X133850347Y-148848468D01*
X133829830Y-148836171D01*
X133810617Y-148821921D01*
X133792893Y-148805857D01*
X133776829Y-148788133D01*
X133762579Y-148768920D01*
X133750282Y-148748403D01*
X133740054Y-148726779D01*
X133731996Y-148704257D01*
X133726184Y-148681053D01*
X133722674Y-148657392D01*
X133721500Y-148633500D01*
X133721500Y-147721000D01*
X133722674Y-147697108D01*
X133726184Y-147673447D01*
X133731996Y-147650243D01*
X133740054Y-147627721D01*
X133750282Y-147606097D01*
X133762579Y-147585580D01*
X133776829Y-147566367D01*
X133792893Y-147548643D01*
X133810617Y-147532579D01*
X133829830Y-147518329D01*
X133850347Y-147506032D01*
X133871971Y-147495804D01*
X133894493Y-147487746D01*
X133917697Y-147481934D01*
X133941358Y-147478424D01*
X133965250Y-147477250D01*
X134452750Y-147477250D01*
X134476642Y-147478424D01*
X134476642Y-147478424D01*
G37*
D18*
X134209000Y-148177250D03*
D17*
G36*
X132601642Y-147478424D02*
G01*
X132625303Y-147481934D01*
X132648507Y-147487746D01*
X132671029Y-147495804D01*
X132692653Y-147506032D01*
X132713170Y-147518329D01*
X132732383Y-147532579D01*
X132750107Y-147548643D01*
X132766171Y-147566367D01*
X132780421Y-147585580D01*
X132792718Y-147606097D01*
X132802946Y-147627721D01*
X132811004Y-147650243D01*
X132816816Y-147673447D01*
X132820326Y-147697108D01*
X132821500Y-147721000D01*
X132821500Y-148633500D01*
X132820326Y-148657392D01*
X132816816Y-148681053D01*
X132811004Y-148704257D01*
X132802946Y-148726779D01*
X132792718Y-148748403D01*
X132780421Y-148768920D01*
X132766171Y-148788133D01*
X132750107Y-148805857D01*
X132732383Y-148821921D01*
X132713170Y-148836171D01*
X132692653Y-148848468D01*
X132671029Y-148858696D01*
X132648507Y-148866754D01*
X132625303Y-148872566D01*
X132601642Y-148876076D01*
X132577750Y-148877250D01*
X132090250Y-148877250D01*
X132066358Y-148876076D01*
X132042697Y-148872566D01*
X132019493Y-148866754D01*
X131996971Y-148858696D01*
X131975347Y-148848468D01*
X131954830Y-148836171D01*
X131935617Y-148821921D01*
X131917893Y-148805857D01*
X131901829Y-148788133D01*
X131887579Y-148768920D01*
X131875282Y-148748403D01*
X131865054Y-148726779D01*
X131856996Y-148704257D01*
X131851184Y-148681053D01*
X131847674Y-148657392D01*
X131846500Y-148633500D01*
X131846500Y-147721000D01*
X131847674Y-147697108D01*
X131851184Y-147673447D01*
X131856996Y-147650243D01*
X131865054Y-147627721D01*
X131875282Y-147606097D01*
X131887579Y-147585580D01*
X131901829Y-147566367D01*
X131917893Y-147548643D01*
X131935617Y-147532579D01*
X131954830Y-147518329D01*
X131975347Y-147506032D01*
X131996971Y-147495804D01*
X132019493Y-147487746D01*
X132042697Y-147481934D01*
X132066358Y-147478424D01*
X132090250Y-147477250D01*
X132577750Y-147477250D01*
X132601642Y-147478424D01*
X132601642Y-147478424D01*
G37*
D18*
X132334000Y-148177250D03*
D17*
G36*
X139164142Y-135849924D02*
G01*
X139187803Y-135853434D01*
X139211007Y-135859246D01*
X139233529Y-135867304D01*
X139255153Y-135877532D01*
X139275670Y-135889829D01*
X139294883Y-135904079D01*
X139312607Y-135920143D01*
X139328671Y-135937867D01*
X139342921Y-135957080D01*
X139355218Y-135977597D01*
X139365446Y-135999221D01*
X139373504Y-136021743D01*
X139379316Y-136044947D01*
X139382826Y-136068608D01*
X139384000Y-136092500D01*
X139384000Y-136580000D01*
X139382826Y-136603892D01*
X139379316Y-136627553D01*
X139373504Y-136650757D01*
X139365446Y-136673279D01*
X139355218Y-136694903D01*
X139342921Y-136715420D01*
X139328671Y-136734633D01*
X139312607Y-136752357D01*
X139294883Y-136768421D01*
X139275670Y-136782671D01*
X139255153Y-136794968D01*
X139233529Y-136805196D01*
X139211007Y-136813254D01*
X139187803Y-136819066D01*
X139164142Y-136822576D01*
X139140250Y-136823750D01*
X138227750Y-136823750D01*
X138203858Y-136822576D01*
X138180197Y-136819066D01*
X138156993Y-136813254D01*
X138134471Y-136805196D01*
X138112847Y-136794968D01*
X138092330Y-136782671D01*
X138073117Y-136768421D01*
X138055393Y-136752357D01*
X138039329Y-136734633D01*
X138025079Y-136715420D01*
X138012782Y-136694903D01*
X138002554Y-136673279D01*
X137994496Y-136650757D01*
X137988684Y-136627553D01*
X137985174Y-136603892D01*
X137984000Y-136580000D01*
X137984000Y-136092500D01*
X137985174Y-136068608D01*
X137988684Y-136044947D01*
X137994496Y-136021743D01*
X138002554Y-135999221D01*
X138012782Y-135977597D01*
X138025079Y-135957080D01*
X138039329Y-135937867D01*
X138055393Y-135920143D01*
X138073117Y-135904079D01*
X138092330Y-135889829D01*
X138112847Y-135877532D01*
X138134471Y-135867304D01*
X138156993Y-135859246D01*
X138180197Y-135853434D01*
X138203858Y-135849924D01*
X138227750Y-135848750D01*
X139140250Y-135848750D01*
X139164142Y-135849924D01*
X139164142Y-135849924D01*
G37*
D18*
X138684000Y-136336250D03*
D17*
G36*
X139164142Y-133974924D02*
G01*
X139187803Y-133978434D01*
X139211007Y-133984246D01*
X139233529Y-133992304D01*
X139255153Y-134002532D01*
X139275670Y-134014829D01*
X139294883Y-134029079D01*
X139312607Y-134045143D01*
X139328671Y-134062867D01*
X139342921Y-134082080D01*
X139355218Y-134102597D01*
X139365446Y-134124221D01*
X139373504Y-134146743D01*
X139379316Y-134169947D01*
X139382826Y-134193608D01*
X139384000Y-134217500D01*
X139384000Y-134705000D01*
X139382826Y-134728892D01*
X139379316Y-134752553D01*
X139373504Y-134775757D01*
X139365446Y-134798279D01*
X139355218Y-134819903D01*
X139342921Y-134840420D01*
X139328671Y-134859633D01*
X139312607Y-134877357D01*
X139294883Y-134893421D01*
X139275670Y-134907671D01*
X139255153Y-134919968D01*
X139233529Y-134930196D01*
X139211007Y-134938254D01*
X139187803Y-134944066D01*
X139164142Y-134947576D01*
X139140250Y-134948750D01*
X138227750Y-134948750D01*
X138203858Y-134947576D01*
X138180197Y-134944066D01*
X138156993Y-134938254D01*
X138134471Y-134930196D01*
X138112847Y-134919968D01*
X138092330Y-134907671D01*
X138073117Y-134893421D01*
X138055393Y-134877357D01*
X138039329Y-134859633D01*
X138025079Y-134840420D01*
X138012782Y-134819903D01*
X138002554Y-134798279D01*
X137994496Y-134775757D01*
X137988684Y-134752553D01*
X137985174Y-134728892D01*
X137984000Y-134705000D01*
X137984000Y-134217500D01*
X137985174Y-134193608D01*
X137988684Y-134169947D01*
X137994496Y-134146743D01*
X138002554Y-134124221D01*
X138012782Y-134102597D01*
X138025079Y-134082080D01*
X138039329Y-134062867D01*
X138055393Y-134045143D01*
X138073117Y-134029079D01*
X138092330Y-134014829D01*
X138112847Y-134002532D01*
X138134471Y-133992304D01*
X138156993Y-133984246D01*
X138180197Y-133978434D01*
X138203858Y-133974924D01*
X138227750Y-133973750D01*
X139140250Y-133973750D01*
X139164142Y-133974924D01*
X139164142Y-133974924D01*
G37*
D18*
X138684000Y-134461250D03*
D24*
X121443750Y-143668750D03*
X141287500Y-136525000D03*
X136525000Y-148431250D03*
X119840375Y-130190875D03*
X122237500Y-138112500D03*
X112443750Y-149493750D03*
X116681250Y-131762500D03*
D25*
X123572750Y-128335250D02*
X125222000Y-128335250D01*
X130429000Y-126538250D02*
X130429000Y-125557250D01*
X129381250Y-124618750D02*
X123715750Y-124618750D01*
X123825000Y-124618750D02*
X123031250Y-125412500D01*
X130429000Y-125557250D02*
X129490500Y-124618750D01*
X123031250Y-125412500D02*
X123031250Y-127793750D01*
X123031250Y-127793750D02*
X123572750Y-128335250D01*
X130126098Y-126538250D02*
X130429000Y-126538250D01*
X128426098Y-128238250D02*
X130126098Y-126538250D01*
X128229000Y-128238250D02*
X128426098Y-128238250D01*
X133145000Y-126538250D02*
X133223000Y-126460250D01*
X130429000Y-126538250D02*
X133145000Y-126538250D01*
X125222000Y-129190750D02*
X125222000Y-128335250D01*
X127813000Y-133460250D02*
X127813000Y-132510676D01*
X127813000Y-132329250D02*
X127813000Y-133460250D01*
X127813000Y-130988000D02*
X127813000Y-132329250D01*
X126015750Y-129190750D02*
X127813000Y-130988000D01*
X125222000Y-129190750D02*
X126015750Y-129190750D01*
X122582000Y-139960250D02*
X123713000Y-139960250D01*
X122545490Y-139996760D02*
X122582000Y-139960250D01*
X118565510Y-139996760D02*
X122545490Y-139996760D01*
X118268750Y-139700000D02*
X118565510Y-139996760D01*
X119206250Y-147637500D02*
X119856250Y-146987500D01*
X101600000Y-147637500D02*
X119206250Y-147637500D01*
X100806250Y-148431250D02*
X101600000Y-147637500D01*
X100806250Y-152400000D02*
X100806250Y-148431250D01*
X103337500Y-153193750D02*
X101600000Y-153193750D01*
X101600000Y-153193750D02*
X100806250Y-152400000D01*
X126213000Y-145991250D02*
X126213000Y-144860250D01*
X126213000Y-146043250D02*
X126213000Y-145991250D01*
X125268750Y-146987500D02*
X126213000Y-146043250D01*
X119856250Y-146987500D02*
X125268750Y-146987500D01*
X134969250Y-150812500D02*
X132334000Y-148177250D01*
X138112500Y-150812500D02*
X134969250Y-150812500D01*
X138906250Y-145256250D02*
X138906250Y-150018750D01*
X138906250Y-150018750D02*
X138112500Y-150812500D01*
X132613000Y-147898250D02*
X132613000Y-144860250D01*
X132334000Y-148177250D02*
X132613000Y-147898250D01*
X138684000Y-134461250D02*
X137001250Y-134461250D01*
X136302250Y-135160250D02*
X135113000Y-135160250D01*
X137001250Y-134461250D02*
X136302250Y-135160250D01*
X125768737Y-130284987D02*
X127813000Y-132329250D01*
X121253250Y-129728750D02*
X121809487Y-130284987D01*
X121809487Y-130284987D02*
X125768737Y-130284987D01*
X114596760Y-139996760D02*
X118565510Y-139996760D01*
X112840510Y-138240510D02*
X114596760Y-139996760D01*
X112840510Y-129315510D02*
X112840510Y-138240510D01*
X109550000Y-126025000D02*
X112840510Y-129315510D01*
X109550000Y-125150000D02*
X109550000Y-126025000D01*
X121204750Y-131652250D02*
X121253250Y-131603750D01*
X103187500Y-137925000D02*
X104587500Y-137925000D01*
X111775000Y-145112500D02*
X119856250Y-145112500D01*
X104587500Y-137925000D02*
X111775000Y-145112500D01*
X122608500Y-142360250D02*
X123713000Y-142360250D01*
X119856250Y-145112500D02*
X122608500Y-142360250D01*
X125160750Y-145112500D02*
X125413000Y-144860250D01*
X122635250Y-144860250D02*
X125413000Y-144860250D01*
X121443750Y-143668750D02*
X122635250Y-144860250D01*
X138684000Y-136336250D02*
X141098750Y-136336250D01*
X141098750Y-136336250D02*
X141287500Y-136525000D01*
X134463000Y-148431250D02*
X134209000Y-148177250D01*
X136525000Y-148431250D02*
X134463000Y-148431250D01*
X134069000Y-144860250D02*
X133413000Y-144860250D01*
X134209000Y-145000250D02*
X134069000Y-144860250D01*
X134209000Y-148177250D02*
X134209000Y-145000250D01*
X138308000Y-135960250D02*
X135113000Y-135960250D01*
X138684000Y-136336250D02*
X138308000Y-135960250D01*
X127013000Y-132532348D02*
X127013000Y-133460250D01*
X121253250Y-131603750D02*
X126084402Y-131603750D01*
X126084402Y-131603750D02*
X127013000Y-132532348D01*
X119426750Y-129777250D02*
X119840375Y-130190875D01*
X118205250Y-129777250D02*
X119426750Y-129777250D01*
X119840375Y-130190875D02*
X120237250Y-130587750D01*
X120237250Y-130587750D02*
X121253250Y-131603750D01*
X123713000Y-138360250D02*
X122485250Y-138360250D01*
X122485250Y-138360250D02*
X122237500Y-138112500D01*
D26*
X133126000Y-128238250D02*
X133223000Y-128335250D01*
X130429000Y-128238250D02*
X133126000Y-128238250D01*
X130429000Y-128238250D02*
X130429000Y-129921000D01*
X130429000Y-129921000D02*
X129381250Y-130968750D01*
X129413000Y-131000500D02*
X129413000Y-133460250D01*
X129381250Y-130968750D02*
X129413000Y-131000500D01*
X128151000Y-126460250D02*
X128229000Y-126538250D01*
X125222000Y-126460250D02*
X128151000Y-126460250D01*
X128613000Y-130510852D02*
X128613000Y-131737000D01*
X128229000Y-126538250D02*
X128129000Y-126538250D01*
X128613000Y-133460250D02*
X128613000Y-131737000D01*
X128129000Y-126538250D02*
X127000000Y-127667250D01*
X127000000Y-127667250D02*
X127000000Y-128897852D01*
X128613000Y-131737000D02*
X128613000Y-130994250D01*
X127000000Y-128897852D02*
X128613000Y-130510852D01*
X122709000Y-139160250D02*
X123713000Y-139160250D01*
X120697750Y-139160250D02*
X122709000Y-139160250D01*
X120443750Y-138906250D02*
X120697750Y-139160250D01*
X119856250Y-138906250D02*
X120443750Y-138906250D01*
X158600000Y-126143750D02*
X158750000Y-126143750D01*
X155750000Y-123293750D02*
X158600000Y-126143750D01*
X153312500Y-123293750D02*
X155750000Y-123293750D01*
X142659000Y-139960250D02*
X147002500Y-144303750D01*
X135113000Y-139960250D02*
X142659000Y-139960250D01*
X158900000Y-129443750D02*
X160425000Y-130968750D01*
X158750000Y-129443750D02*
X158900000Y-129443750D01*
X176946000Y-129443750D02*
X177800000Y-129443750D01*
X175421000Y-130968750D02*
X176946000Y-129443750D01*
X160425000Y-130968750D02*
X175421000Y-130968750D01*
X153312500Y-142343750D02*
X155837500Y-142343750D01*
X158600000Y-145193750D02*
X158750000Y-145193750D01*
X155837500Y-142431250D02*
X158600000Y-145193750D01*
X155837500Y-142343750D02*
X155837500Y-142431250D01*
X158750000Y-148493750D02*
X158900000Y-148493750D01*
X159606250Y-148493750D02*
X158750000Y-148493750D01*
X161131250Y-150018750D02*
X159606250Y-148493750D01*
X176979000Y-150018750D02*
X161131250Y-150018750D01*
X177800000Y-149197750D02*
X176979000Y-150018750D01*
X177800000Y-148493750D02*
X177800000Y-149197750D01*
X172362500Y-123293750D02*
X174887500Y-123293750D01*
X177650000Y-126143750D02*
X177800000Y-126143750D01*
X174887500Y-123381250D02*
X177650000Y-126143750D01*
X174887500Y-123293750D02*
X174887500Y-123381250D01*
X158600000Y-148493750D02*
X158750000Y-148493750D01*
X157162500Y-149931250D02*
X158600000Y-148493750D01*
X141554000Y-140760250D02*
X143668750Y-142875000D01*
X143668750Y-142875000D02*
X143668750Y-148431250D01*
X135113000Y-140760250D02*
X141554000Y-140760250D01*
X143668750Y-148431250D02*
X145256250Y-150018750D01*
X145256250Y-150018750D02*
X157162500Y-150018750D01*
X157162500Y-150018750D02*
X157162500Y-149931250D01*
X172362500Y-142343750D02*
X174887500Y-142343750D01*
X177650000Y-145193750D02*
X177800000Y-145193750D01*
X174887500Y-142431250D02*
X177650000Y-145193750D01*
X174887500Y-142343750D02*
X174887500Y-142431250D01*
D25*
X103187500Y-134400000D02*
X103187500Y-135125000D01*
X103187500Y-129187500D02*
X103187500Y-134400000D01*
X106350000Y-126025000D02*
X103187500Y-129187500D01*
X106350000Y-125150000D02*
X106350000Y-126025000D01*
D26*
X166052500Y-141533750D02*
X166052500Y-144303750D01*
X163679000Y-139160250D02*
X166052500Y-141533750D01*
X135113000Y-139160250D02*
X163679000Y-139160250D01*
X107150000Y-126529000D02*
X107156250Y-126535250D01*
X107150000Y-125150000D02*
X107150000Y-126529000D01*
X107156250Y-127793750D02*
X105568750Y-129381250D01*
X107156250Y-126535250D02*
X107156250Y-127793750D01*
X105568750Y-131256250D02*
X107156250Y-132843750D01*
X107156250Y-132843750D02*
X107156250Y-138906250D01*
X109810250Y-141560250D02*
X123713000Y-141560250D01*
X107156250Y-138906250D02*
X109810250Y-141560250D01*
X107950000Y-125150000D02*
X107950000Y-127793750D01*
X107950000Y-127793750D02*
X109537500Y-129381250D01*
X109537500Y-131256250D02*
X107950000Y-132843750D01*
X107950000Y-132843750D02*
X107950000Y-138906250D01*
X109804000Y-140760250D02*
X123713000Y-140760250D01*
X107950000Y-138906250D02*
X109804000Y-140760250D01*
X109537500Y-149493750D02*
X112443750Y-149493750D01*
X112443750Y-149493750D02*
X112443750Y-149493750D01*
X122345101Y-132448649D02*
X122672490Y-132121260D01*
X119801649Y-132448649D02*
X122345101Y-132448649D01*
X118205250Y-131652250D02*
X119005250Y-131652250D01*
X119005250Y-131652250D02*
X119801649Y-132448649D01*
X126213000Y-132646648D02*
X126213000Y-133460250D01*
X125687612Y-132121260D02*
X126213000Y-132646648D01*
X122672490Y-132121260D02*
X125687612Y-132121260D01*
X118205250Y-131652250D02*
X116791500Y-131652250D01*
X116791500Y-131652250D02*
X116681250Y-131762500D01*
X135334000Y-143381250D02*
X135113000Y-143160250D01*
X138906250Y-143381250D02*
X135334000Y-143381250D01*
X158750000Y-130147750D02*
X158750000Y-129443750D01*
X150537500Y-138360250D02*
X158750000Y-130147750D01*
X135113000Y-138360250D02*
X150537500Y-138360250D01*
G36*
X102836487Y-119065139D02*
G01*
X102815000Y-119283300D01*
X102815000Y-120429199D01*
X102836487Y-120647360D01*
X102921401Y-120927283D01*
X103059294Y-121185263D01*
X103244866Y-121411384D01*
X103470986Y-121596956D01*
X103728966Y-121734849D01*
X104008889Y-121819763D01*
X104300000Y-121848435D01*
X104591110Y-121819763D01*
X104871033Y-121734849D01*
X105129013Y-121596956D01*
X105355134Y-121411384D01*
X105540706Y-121185264D01*
X105678599Y-120927284D01*
X105763513Y-120647361D01*
X105785000Y-120429200D01*
X105785000Y-119283300D01*
X105763513Y-119065139D01*
X105722140Y-118928750D01*
X110177860Y-118928750D01*
X110136487Y-119065139D01*
X110115000Y-119283300D01*
X110115000Y-120429199D01*
X110136487Y-120647360D01*
X110221401Y-120927283D01*
X110359294Y-121185263D01*
X110544866Y-121411384D01*
X110770986Y-121596956D01*
X111028966Y-121734849D01*
X111308889Y-121819763D01*
X111600000Y-121848435D01*
X111891110Y-121819763D01*
X112171033Y-121734849D01*
X112429013Y-121596956D01*
X112655134Y-121411384D01*
X112840706Y-121185264D01*
X112978599Y-120927284D01*
X113063513Y-120647361D01*
X113085000Y-120429200D01*
X113085000Y-119283300D01*
X113063513Y-119065139D01*
X113022140Y-118928750D01*
X141160500Y-118928750D01*
X141160500Y-135494985D01*
X141100470Y-135506925D01*
X141098750Y-135506756D01*
X141058200Y-135510750D01*
X139798090Y-135510750D01*
X139763792Y-135468958D01*
X139757436Y-135463742D01*
X139835185Y-135399935D01*
X139914537Y-135303244D01*
X139973502Y-135192930D01*
X140009812Y-135073232D01*
X140022072Y-134948750D01*
X140019000Y-134747000D01*
X139860250Y-134588250D01*
X138811000Y-134588250D01*
X138811000Y-134608250D01*
X138557000Y-134608250D01*
X138557000Y-134588250D01*
X137507750Y-134588250D01*
X137349000Y-134747000D01*
X137345928Y-134948750D01*
X137358188Y-135073232D01*
X137376849Y-135134750D01*
X136498000Y-135134750D01*
X136498000Y-135033248D01*
X136339252Y-135033248D01*
X136498000Y-134874500D01*
X136488177Y-134757619D01*
X136451265Y-134638105D01*
X136391746Y-134528089D01*
X136311908Y-134431799D01*
X136214818Y-134352934D01*
X136104208Y-134294526D01*
X135984329Y-134258820D01*
X135859787Y-134247186D01*
X135398750Y-134250250D01*
X135240000Y-134409000D01*
X135240000Y-135033250D01*
X135260000Y-135033250D01*
X135260000Y-135047178D01*
X134363000Y-135047178D01*
X134238518Y-135059438D01*
X134118820Y-135095748D01*
X134008506Y-135154713D01*
X133911815Y-135234065D01*
X133832463Y-135330756D01*
X133820083Y-135353917D01*
X133728000Y-135446000D01*
X133737546Y-135559587D01*
X133737188Y-135560768D01*
X133724928Y-135685250D01*
X133724928Y-136235250D01*
X133737188Y-136359732D01*
X133737345Y-136360250D01*
X133737188Y-136360768D01*
X133724928Y-136485250D01*
X133724928Y-137035250D01*
X133737188Y-137159732D01*
X133737345Y-137160250D01*
X133737188Y-137160768D01*
X133724928Y-137285250D01*
X133724928Y-137835250D01*
X133737188Y-137959732D01*
X133737345Y-137960250D01*
X133737188Y-137960768D01*
X133724928Y-138085250D01*
X133724928Y-138635250D01*
X133737188Y-138759732D01*
X133737345Y-138760250D01*
X133737188Y-138760768D01*
X133724928Y-138885250D01*
X133724928Y-139435250D01*
X133737188Y-139559732D01*
X133737345Y-139560250D01*
X133737188Y-139560768D01*
X133724928Y-139685250D01*
X133724928Y-140235250D01*
X133737188Y-140359732D01*
X133737345Y-140360250D01*
X133737188Y-140360768D01*
X133724928Y-140485250D01*
X133724928Y-141035250D01*
X133737188Y-141159732D01*
X133737345Y-141160250D01*
X133737188Y-141160768D01*
X133724928Y-141285250D01*
X133724928Y-141835250D01*
X133737188Y-141959732D01*
X133737345Y-141960250D01*
X133737188Y-141960768D01*
X133724928Y-142085250D01*
X133724928Y-142635250D01*
X133737188Y-142759732D01*
X133737345Y-142760250D01*
X133737188Y-142760768D01*
X133724928Y-142885250D01*
X133724928Y-143435250D01*
X133728962Y-143476212D01*
X133688000Y-143472178D01*
X133138000Y-143472178D01*
X133013518Y-143484438D01*
X133012337Y-143484796D01*
X132898750Y-143475250D01*
X132806667Y-143567333D01*
X132783506Y-143579713D01*
X132686815Y-143659065D01*
X132613000Y-143749009D01*
X132539185Y-143659065D01*
X132442494Y-143579713D01*
X132419333Y-143567333D01*
X132327250Y-143475250D01*
X132213663Y-143484796D01*
X132212482Y-143484438D01*
X132088000Y-143472178D01*
X131538000Y-143472178D01*
X131413518Y-143484438D01*
X131413000Y-143484595D01*
X131412482Y-143484438D01*
X131288000Y-143472178D01*
X130738000Y-143472178D01*
X130613518Y-143484438D01*
X130613000Y-143484595D01*
X130612482Y-143484438D01*
X130488000Y-143472178D01*
X129938000Y-143472178D01*
X129813518Y-143484438D01*
X129813000Y-143484595D01*
X129812482Y-143484438D01*
X129688000Y-143472178D01*
X129138000Y-143472178D01*
X129013518Y-143484438D01*
X129013000Y-143484595D01*
X129012482Y-143484438D01*
X128888000Y-143472178D01*
X128338000Y-143472178D01*
X128213518Y-143484438D01*
X128213000Y-143484595D01*
X128212482Y-143484438D01*
X128088000Y-143472178D01*
X127538000Y-143472178D01*
X127413518Y-143484438D01*
X127413000Y-143484595D01*
X127412482Y-143484438D01*
X127288000Y-143472178D01*
X126738000Y-143472178D01*
X126613518Y-143484438D01*
X126612337Y-143484796D01*
X126498750Y-143475250D01*
X126406667Y-143567333D01*
X126383506Y-143579713D01*
X126286815Y-143659065D01*
X126213000Y-143749009D01*
X126139185Y-143659065D01*
X126042494Y-143579713D01*
X126019333Y-143567333D01*
X125927250Y-143475250D01*
X125813663Y-143484796D01*
X125812482Y-143484438D01*
X125688000Y-143472178D01*
X125138000Y-143472178D01*
X125097038Y-143476212D01*
X125101072Y-143435250D01*
X125101072Y-142885250D01*
X125088812Y-142760768D01*
X125088655Y-142760250D01*
X125088812Y-142759732D01*
X125101072Y-142635250D01*
X125101072Y-142085250D01*
X125088812Y-141960768D01*
X125088655Y-141960250D01*
X125088812Y-141959732D01*
X125101072Y-141835250D01*
X125101072Y-141285250D01*
X125088812Y-141160768D01*
X125088655Y-141160250D01*
X125088812Y-141159732D01*
X125101072Y-141035250D01*
X125101072Y-140485250D01*
X125088812Y-140360768D01*
X125088454Y-140359587D01*
X125098000Y-140246000D01*
X125005917Y-140153917D01*
X124993537Y-140130756D01*
X124914185Y-140034065D01*
X124824241Y-139960250D01*
X124914185Y-139886435D01*
X124993537Y-139789744D01*
X125005917Y-139766583D01*
X125098000Y-139674500D01*
X125088454Y-139560913D01*
X125088812Y-139559732D01*
X125101072Y-139435250D01*
X125101072Y-138885250D01*
X125088812Y-138760768D01*
X125088655Y-138760250D01*
X125088812Y-138759732D01*
X125101072Y-138635250D01*
X125101072Y-138085250D01*
X125088812Y-137960768D01*
X125088655Y-137960250D01*
X125088812Y-137959732D01*
X125101072Y-137835250D01*
X125101072Y-137285250D01*
X125088812Y-137160768D01*
X125088655Y-137160250D01*
X125088812Y-137159732D01*
X125101072Y-137035250D01*
X125101072Y-136485250D01*
X125088812Y-136360768D01*
X125088655Y-136360250D01*
X125088812Y-136359732D01*
X125101072Y-136235250D01*
X125101072Y-135685250D01*
X125088812Y-135560768D01*
X125088655Y-135560250D01*
X125088812Y-135559732D01*
X125101072Y-135435250D01*
X125101072Y-134885250D01*
X125097038Y-134844288D01*
X125138000Y-134848322D01*
X125688000Y-134848322D01*
X125812482Y-134836062D01*
X125813000Y-134835905D01*
X125813518Y-134836062D01*
X125938000Y-134848322D01*
X126488000Y-134848322D01*
X126612482Y-134836062D01*
X126613000Y-134835905D01*
X126613518Y-134836062D01*
X126738000Y-134848322D01*
X127288000Y-134848322D01*
X127412482Y-134836062D01*
X127413663Y-134835704D01*
X127527250Y-134845250D01*
X127619333Y-134753167D01*
X127642494Y-134740787D01*
X127739185Y-134661435D01*
X127813000Y-134571491D01*
X127886815Y-134661435D01*
X127983506Y-134740787D01*
X128006667Y-134753167D01*
X128098750Y-134845250D01*
X128212337Y-134835704D01*
X128213518Y-134836062D01*
X128338000Y-134848322D01*
X128888000Y-134848322D01*
X129012482Y-134836062D01*
X129013000Y-134835905D01*
X129013518Y-134836062D01*
X129138000Y-134848322D01*
X129688000Y-134848322D01*
X129812482Y-134836062D01*
X129813000Y-134835905D01*
X129813518Y-134836062D01*
X129938000Y-134848322D01*
X130488000Y-134848322D01*
X130612482Y-134836062D01*
X130613000Y-134835905D01*
X130613518Y-134836062D01*
X130738000Y-134848322D01*
X131288000Y-134848322D01*
X131412482Y-134836062D01*
X131413000Y-134835905D01*
X131413518Y-134836062D01*
X131538000Y-134848322D01*
X132088000Y-134848322D01*
X132212482Y-134836062D01*
X132213000Y-134835905D01*
X132213518Y-134836062D01*
X132338000Y-134848322D01*
X132888000Y-134848322D01*
X133012482Y-134836062D01*
X133013000Y-134835905D01*
X133013518Y-134836062D01*
X133138000Y-134848322D01*
X133688000Y-134848322D01*
X133730552Y-134844131D01*
X133728000Y-134874500D01*
X133886750Y-135033250D01*
X134986000Y-135033250D01*
X134986000Y-134409000D01*
X134827250Y-134250250D01*
X134366213Y-134247186D01*
X134322028Y-134251314D01*
X134326072Y-134210250D01*
X134326072Y-133973750D01*
X137345928Y-133973750D01*
X137349000Y-134175500D01*
X137507750Y-134334250D01*
X138557000Y-134334250D01*
X138557000Y-133497500D01*
X138811000Y-133497500D01*
X138811000Y-134334250D01*
X139860250Y-134334250D01*
X140019000Y-134175500D01*
X140022072Y-133973750D01*
X140009812Y-133849268D01*
X139973502Y-133729570D01*
X139914537Y-133619256D01*
X139835185Y-133522565D01*
X139738494Y-133443213D01*
X139628180Y-133384248D01*
X139508482Y-133347938D01*
X139384000Y-133335678D01*
X138969750Y-133338750D01*
X138811000Y-133497500D01*
X138557000Y-133497500D01*
X138398250Y-133338750D01*
X137984000Y-133335678D01*
X137859518Y-133347938D01*
X137739820Y-133384248D01*
X137629506Y-133443213D01*
X137532815Y-133522565D01*
X137453463Y-133619256D01*
X137394498Y-133729570D01*
X137358188Y-133849268D01*
X137345928Y-133973750D01*
X134326072Y-133973750D01*
X134326072Y-132710250D01*
X134313812Y-132585768D01*
X134277502Y-132466070D01*
X134218537Y-132355756D01*
X134139185Y-132259065D01*
X134042494Y-132179713D01*
X133932180Y-132120748D01*
X133812482Y-132084438D01*
X133688000Y-132072178D01*
X133138000Y-132072178D01*
X133013518Y-132084438D01*
X133013000Y-132084595D01*
X133012482Y-132084438D01*
X132888000Y-132072178D01*
X132338000Y-132072178D01*
X132213518Y-132084438D01*
X132213000Y-132084595D01*
X132212482Y-132084438D01*
X132088000Y-132072178D01*
X131538000Y-132072178D01*
X131413518Y-132084438D01*
X131413000Y-132084595D01*
X131412482Y-132084438D01*
X131288000Y-132072178D01*
X130738000Y-132072178D01*
X130613518Y-132084438D01*
X130613000Y-132084595D01*
X130612482Y-132084438D01*
X130488000Y-132072178D01*
X130175000Y-132072178D01*
X130175000Y-131252630D01*
X130941351Y-130486279D01*
X130970422Y-130462422D01*
X131065645Y-130346392D01*
X131136402Y-130214015D01*
X131179974Y-130070378D01*
X131191000Y-129958426D01*
X131191000Y-129958424D01*
X131194686Y-129921001D01*
X131191000Y-129883578D01*
X131191000Y-129470216D01*
X131253482Y-129464062D01*
X131373180Y-129427752D01*
X131483494Y-129368787D01*
X131580185Y-129289435D01*
X131659537Y-129192744D01*
X131718502Y-129082430D01*
X131743431Y-129000250D01*
X131996840Y-129000250D01*
X132033542Y-129068914D01*
X132143208Y-129202542D01*
X132276836Y-129312208D01*
X132429291Y-129393697D01*
X132594715Y-129443878D01*
X132766750Y-129460822D01*
X133679250Y-129460822D01*
X133851285Y-129443878D01*
X134016709Y-129393697D01*
X134169164Y-129312208D01*
X134302792Y-129202542D01*
X134412458Y-129068914D01*
X134493947Y-128916459D01*
X134544128Y-128751035D01*
X134561072Y-128579000D01*
X134561072Y-128091500D01*
X134544128Y-127919465D01*
X134493947Y-127754041D01*
X134412458Y-127601586D01*
X134302792Y-127467958D01*
X134296436Y-127462742D01*
X134374185Y-127398935D01*
X134453537Y-127302244D01*
X134512502Y-127191930D01*
X134548812Y-127072232D01*
X134561072Y-126947750D01*
X134558000Y-126746000D01*
X134399250Y-126587250D01*
X133350000Y-126587250D01*
X133350000Y-126607250D01*
X133096000Y-126607250D01*
X133096000Y-126587250D01*
X132046750Y-126587250D01*
X131888000Y-126746000D01*
X131884928Y-126947750D01*
X131897188Y-127072232D01*
X131933498Y-127191930D01*
X131992463Y-127302244D01*
X132071815Y-127398935D01*
X132149564Y-127462742D01*
X132143208Y-127467958D01*
X132136403Y-127476250D01*
X131743431Y-127476250D01*
X131718502Y-127394070D01*
X131715391Y-127388250D01*
X131718502Y-127382430D01*
X131754812Y-127262732D01*
X131767072Y-127138250D01*
X131764000Y-126824000D01*
X131605250Y-126665250D01*
X130556000Y-126665250D01*
X130556000Y-126685250D01*
X130302000Y-126685250D01*
X130302000Y-126665250D01*
X130282000Y-126665250D01*
X130282000Y-126411250D01*
X130302000Y-126411250D01*
X130302000Y-125462000D01*
X130556000Y-125462000D01*
X130556000Y-126411250D01*
X131605250Y-126411250D01*
X131764000Y-126252500D01*
X131766734Y-125972750D01*
X131884928Y-125972750D01*
X131888000Y-126174500D01*
X132046750Y-126333250D01*
X133096000Y-126333250D01*
X133096000Y-125496500D01*
X133350000Y-125496500D01*
X133350000Y-126333250D01*
X134399250Y-126333250D01*
X134558000Y-126174500D01*
X134561072Y-125972750D01*
X134548812Y-125848268D01*
X134512502Y-125728570D01*
X134453537Y-125618256D01*
X134374185Y-125521565D01*
X134277494Y-125442213D01*
X134167180Y-125383248D01*
X134047482Y-125346938D01*
X133923000Y-125334678D01*
X133508750Y-125337750D01*
X133350000Y-125496500D01*
X133096000Y-125496500D01*
X132937250Y-125337750D01*
X132523000Y-125334678D01*
X132398518Y-125346938D01*
X132278820Y-125383248D01*
X132168506Y-125442213D01*
X132071815Y-125521565D01*
X131992463Y-125618256D01*
X131933498Y-125728570D01*
X131897188Y-125848268D01*
X131884928Y-125972750D01*
X131766734Y-125972750D01*
X131767072Y-125938250D01*
X131754812Y-125813768D01*
X131718502Y-125694070D01*
X131659537Y-125583756D01*
X131580185Y-125487065D01*
X131483494Y-125407713D01*
X131373180Y-125348748D01*
X131253482Y-125312438D01*
X131129000Y-125300178D01*
X130714750Y-125303250D01*
X130556000Y-125462000D01*
X130302000Y-125462000D01*
X130143250Y-125303250D01*
X129729000Y-125300178D01*
X129604518Y-125312438D01*
X129484820Y-125348748D01*
X129374506Y-125407713D01*
X129329000Y-125445059D01*
X129283494Y-125407713D01*
X129173180Y-125348748D01*
X129053482Y-125312438D01*
X128929000Y-125300178D01*
X127529000Y-125300178D01*
X127404518Y-125312438D01*
X127284820Y-125348748D01*
X127174506Y-125407713D01*
X127077815Y-125487065D01*
X126998463Y-125583756D01*
X126939498Y-125694070D01*
X126938230Y-125698250D01*
X126388203Y-125698250D01*
X126301792Y-125592958D01*
X126168164Y-125483292D01*
X126015709Y-125401803D01*
X125850285Y-125351622D01*
X125678250Y-125334678D01*
X124765750Y-125334678D01*
X124593715Y-125351622D01*
X124428291Y-125401803D01*
X124275836Y-125483292D01*
X124142208Y-125592958D01*
X124032542Y-125726586D01*
X123951053Y-125879041D01*
X123900872Y-126044465D01*
X123883928Y-126216500D01*
X123883928Y-126704000D01*
X123900872Y-126876035D01*
X123951053Y-127041459D01*
X124032542Y-127193914D01*
X124142208Y-127327542D01*
X124148564Y-127332758D01*
X124070815Y-127396565D01*
X123991463Y-127493256D01*
X123932498Y-127603570D01*
X123896188Y-127723268D01*
X123883928Y-127847750D01*
X123887000Y-128049500D01*
X124045750Y-128208250D01*
X125095000Y-128208250D01*
X125095000Y-128188250D01*
X125349000Y-128188250D01*
X125349000Y-128208250D01*
X125369000Y-128208250D01*
X125369000Y-128462250D01*
X125349000Y-128462250D01*
X125349000Y-129299000D01*
X125507750Y-129457750D01*
X125922000Y-129460822D01*
X126046482Y-129448562D01*
X126166180Y-129412252D01*
X126276494Y-129353287D01*
X126348032Y-129294577D01*
X126363355Y-129323244D01*
X126410959Y-129381249D01*
X126458579Y-129439274D01*
X126487649Y-129463131D01*
X127851000Y-130826483D01*
X127851000Y-131774425D01*
X127851001Y-131774435D01*
X127851001Y-132302705D01*
X127818133Y-132342755D01*
X127779353Y-132214914D01*
X127761495Y-132181504D01*
X127702699Y-132071505D01*
X127625392Y-131977306D01*
X127625389Y-131977303D01*
X127599541Y-131945807D01*
X127568046Y-131919960D01*
X126696799Y-131048715D01*
X126670943Y-131017209D01*
X126545244Y-130914051D01*
X126401836Y-130837397D01*
X126246228Y-130790194D01*
X126124955Y-130778250D01*
X126124952Y-130778250D01*
X126084402Y-130774256D01*
X126043852Y-130778250D01*
X122367340Y-130778250D01*
X122333042Y-130736458D01*
X122326686Y-130731242D01*
X122404435Y-130667435D01*
X122483787Y-130570744D01*
X122542752Y-130460430D01*
X122579062Y-130340732D01*
X122591322Y-130216250D01*
X122588250Y-130014500D01*
X122429500Y-129855750D01*
X121380250Y-129855750D01*
X121380250Y-129875750D01*
X121126250Y-129875750D01*
X121126250Y-129855750D01*
X121106250Y-129855750D01*
X121106250Y-129601750D01*
X121126250Y-129601750D01*
X121126250Y-128765000D01*
X121380250Y-128765000D01*
X121380250Y-129601750D01*
X122429500Y-129601750D01*
X122588250Y-129443000D01*
X122591322Y-129241250D01*
X122579062Y-129116768D01*
X122542752Y-128997070D01*
X122483787Y-128886756D01*
X122431259Y-128822750D01*
X123883928Y-128822750D01*
X123896188Y-128947232D01*
X123932498Y-129066930D01*
X123991463Y-129177244D01*
X124070815Y-129273935D01*
X124167506Y-129353287D01*
X124277820Y-129412252D01*
X124397518Y-129448562D01*
X124522000Y-129460822D01*
X124936250Y-129457750D01*
X125095000Y-129299000D01*
X125095000Y-128462250D01*
X124045750Y-128462250D01*
X123887000Y-128621000D01*
X123883928Y-128822750D01*
X122431259Y-128822750D01*
X122404435Y-128790065D01*
X122307744Y-128710713D01*
X122197430Y-128651748D01*
X122077732Y-128615438D01*
X121953250Y-128603178D01*
X121539000Y-128606250D01*
X121380250Y-128765000D01*
X121126250Y-128765000D01*
X120967500Y-128606250D01*
X120553250Y-128603178D01*
X120428768Y-128615438D01*
X120309070Y-128651748D01*
X120198756Y-128710713D01*
X120102065Y-128790065D01*
X120022713Y-128886756D01*
X119963748Y-128997070D01*
X119927438Y-129116768D01*
X119927121Y-129119991D01*
X119887592Y-129087551D01*
X119744184Y-129010897D01*
X119588576Y-128963694D01*
X119467303Y-128951750D01*
X119467300Y-128951750D01*
X119426750Y-128947756D01*
X119386200Y-128951750D01*
X119319340Y-128951750D01*
X119285042Y-128909958D01*
X119151414Y-128800292D01*
X118998959Y-128718803D01*
X118833535Y-128668622D01*
X118661500Y-128651678D01*
X117749000Y-128651678D01*
X117576965Y-128668622D01*
X117411541Y-128718803D01*
X117259086Y-128800292D01*
X117125458Y-128909958D01*
X117015792Y-129043586D01*
X116934303Y-129196041D01*
X116884122Y-129361465D01*
X116867178Y-129533500D01*
X116867178Y-130021000D01*
X116884122Y-130193035D01*
X116934303Y-130358459D01*
X117015792Y-130510914D01*
X117125458Y-130644542D01*
X117211006Y-130714750D01*
X117125458Y-130784958D01*
X117100185Y-130815753D01*
X116983148Y-130767274D01*
X116783189Y-130727500D01*
X116579311Y-130727500D01*
X116379352Y-130767274D01*
X116190994Y-130845295D01*
X116021476Y-130958563D01*
X115877313Y-131102726D01*
X115764045Y-131272244D01*
X115686024Y-131460602D01*
X115646250Y-131660561D01*
X115646250Y-131864439D01*
X115686024Y-132064398D01*
X115764045Y-132252756D01*
X115877313Y-132422274D01*
X116021476Y-132566437D01*
X116190994Y-132679705D01*
X116379352Y-132757726D01*
X116579311Y-132797500D01*
X116783189Y-132797500D01*
X116983148Y-132757726D01*
X117171506Y-132679705D01*
X117253698Y-132624786D01*
X117259086Y-132629208D01*
X117411541Y-132710697D01*
X117576965Y-132760878D01*
X117749000Y-132777822D01*
X118661500Y-132777822D01*
X118833535Y-132760878D01*
X118989067Y-132713698D01*
X119236369Y-132961000D01*
X119260227Y-132990071D01*
X119376257Y-133085294D01*
X119508634Y-133156051D01*
X119652271Y-133199623D01*
X119764223Y-133210649D01*
X119764225Y-133210649D01*
X119801648Y-133214335D01*
X119839071Y-133210649D01*
X122307678Y-133210649D01*
X122345101Y-133214335D01*
X122382524Y-133210649D01*
X122382527Y-133210649D01*
X122494479Y-133199623D01*
X122638116Y-133156051D01*
X122770493Y-133085294D01*
X122886523Y-132990071D01*
X122910385Y-132960995D01*
X122988120Y-132883260D01*
X124499928Y-132883260D01*
X124499928Y-134210250D01*
X124503962Y-134251212D01*
X124463000Y-134247178D01*
X122963000Y-134247178D01*
X122838518Y-134259438D01*
X122718820Y-134295748D01*
X122608506Y-134354713D01*
X122511815Y-134434065D01*
X122432463Y-134530756D01*
X122373498Y-134641070D01*
X122337188Y-134760768D01*
X122324928Y-134885250D01*
X122324928Y-135435250D01*
X122337188Y-135559732D01*
X122337345Y-135560250D01*
X122337188Y-135560768D01*
X122324928Y-135685250D01*
X122324928Y-136235250D01*
X122337188Y-136359732D01*
X122337345Y-136360250D01*
X122337188Y-136360768D01*
X122324928Y-136485250D01*
X122324928Y-137035250D01*
X122329089Y-137077500D01*
X122135561Y-137077500D01*
X121935602Y-137117274D01*
X121747244Y-137195295D01*
X121577726Y-137308563D01*
X121433563Y-137452726D01*
X121320295Y-137622244D01*
X121242274Y-137810602D01*
X121202500Y-138010561D01*
X121202500Y-138214439D01*
X121239062Y-138398250D01*
X121013380Y-138398250D01*
X121009034Y-138393904D01*
X120985172Y-138364828D01*
X120972401Y-138354347D01*
X120964878Y-138277965D01*
X120914697Y-138112541D01*
X120833208Y-137960086D01*
X120723542Y-137826458D01*
X120589914Y-137716792D01*
X120437459Y-137635303D01*
X120272035Y-137585122D01*
X120100000Y-137568178D01*
X119612500Y-137568178D01*
X119440465Y-137585122D01*
X119275041Y-137635303D01*
X119122586Y-137716792D01*
X118988958Y-137826458D01*
X118983742Y-137832814D01*
X118919935Y-137755065D01*
X118823244Y-137675713D01*
X118712930Y-137616748D01*
X118593232Y-137580438D01*
X118468750Y-137568178D01*
X118267000Y-137571250D01*
X118108250Y-137730000D01*
X118108250Y-138779250D01*
X118128250Y-138779250D01*
X118128250Y-139033250D01*
X118108250Y-139033250D01*
X118108250Y-139053250D01*
X117854250Y-139053250D01*
X117854250Y-139033250D01*
X117017500Y-139033250D01*
X116858750Y-139192000D01*
X116855678Y-139606250D01*
X116867938Y-139730732D01*
X116904248Y-139850430D01*
X116963213Y-139960744D01*
X116993993Y-139998250D01*
X110119631Y-139998250D01*
X108712000Y-138590620D01*
X108712000Y-138206250D01*
X116855678Y-138206250D01*
X116858750Y-138620500D01*
X117017500Y-138779250D01*
X117854250Y-138779250D01*
X117854250Y-137730000D01*
X117695500Y-137571250D01*
X117493750Y-137568178D01*
X117369268Y-137580438D01*
X117249570Y-137616748D01*
X117139256Y-137675713D01*
X117042565Y-137755065D01*
X116963213Y-137851756D01*
X116904248Y-137962070D01*
X116867938Y-138081768D01*
X116855678Y-138206250D01*
X108712000Y-138206250D01*
X108712000Y-133159380D01*
X109489559Y-132381822D01*
X109993750Y-132381822D01*
X110165785Y-132364878D01*
X110331209Y-132314697D01*
X110483664Y-132233208D01*
X110617292Y-132123542D01*
X110726958Y-131989914D01*
X110808447Y-131837459D01*
X110858628Y-131672035D01*
X110875572Y-131500000D01*
X110875572Y-131012500D01*
X110858628Y-130840465D01*
X110808447Y-130675041D01*
X110726958Y-130522586D01*
X110617292Y-130388958D01*
X110531744Y-130318750D01*
X110617292Y-130248542D01*
X110726958Y-130114914D01*
X110808447Y-129962459D01*
X110858628Y-129797035D01*
X110875572Y-129625000D01*
X110875572Y-129137500D01*
X110858628Y-128965465D01*
X110808447Y-128800041D01*
X110726958Y-128647586D01*
X110617292Y-128513958D01*
X110483664Y-128404292D01*
X110331209Y-128322803D01*
X110165785Y-128272622D01*
X109993750Y-128255678D01*
X109489559Y-128255678D01*
X108712000Y-127478120D01*
X108712000Y-126119322D01*
X109000000Y-126119322D01*
X109124482Y-126107062D01*
X109149266Y-126099544D01*
X109168639Y-126105654D01*
X109268250Y-126116250D01*
X109427000Y-125957500D01*
X109427000Y-125952283D01*
X109451185Y-125932435D01*
X109530537Y-125835744D01*
X109589502Y-125725430D01*
X109625812Y-125605732D01*
X109638072Y-125481250D01*
X109638072Y-123231250D01*
X109625812Y-123106768D01*
X109589502Y-122987070D01*
X109530537Y-122876756D01*
X109451185Y-122780065D01*
X109427000Y-122760217D01*
X109427000Y-122755000D01*
X109673000Y-122755000D01*
X109673000Y-124229250D01*
X109697000Y-124229250D01*
X109697000Y-124483250D01*
X109673000Y-124483250D01*
X109673000Y-125957500D01*
X109831750Y-126116250D01*
X109931361Y-126105654D01*
X110050652Y-126068029D01*
X110160311Y-126007854D01*
X110256123Y-125927443D01*
X110334406Y-125829884D01*
X110390123Y-125722828D01*
X110544866Y-125911384D01*
X110770986Y-126096956D01*
X111028966Y-126234849D01*
X111308889Y-126319763D01*
X111600000Y-126348435D01*
X111891110Y-126319763D01*
X112171033Y-126234849D01*
X112429013Y-126096956D01*
X112655134Y-125911384D01*
X112840706Y-125685264D01*
X112978599Y-125427284D01*
X113063513Y-125147361D01*
X113085000Y-124929200D01*
X113085000Y-123783300D01*
X113063513Y-123565139D01*
X112978599Y-123285216D01*
X112840706Y-123027236D01*
X112655134Y-122801116D01*
X112429014Y-122615544D01*
X112171034Y-122477651D01*
X111891111Y-122392737D01*
X111600000Y-122364065D01*
X111308890Y-122392737D01*
X111028967Y-122477651D01*
X110770987Y-122615544D01*
X110544867Y-122801116D01*
X110390123Y-122989671D01*
X110334406Y-122882616D01*
X110256123Y-122785057D01*
X110160311Y-122704646D01*
X110050652Y-122644471D01*
X109931361Y-122606846D01*
X109831750Y-122596250D01*
X109673000Y-122755000D01*
X109427000Y-122755000D01*
X109268250Y-122596250D01*
X109168639Y-122606846D01*
X109149266Y-122612956D01*
X109124482Y-122605438D01*
X109000000Y-122593178D01*
X108500000Y-122593178D01*
X108375518Y-122605438D01*
X108350000Y-122613179D01*
X108324482Y-122605438D01*
X108200000Y-122593178D01*
X107700000Y-122593178D01*
X107575518Y-122605438D01*
X107550000Y-122613179D01*
X107524482Y-122605438D01*
X107400000Y-122593178D01*
X106900000Y-122593178D01*
X106775518Y-122605438D01*
X106750000Y-122613179D01*
X106724482Y-122605438D01*
X106600000Y-122593178D01*
X106100000Y-122593178D01*
X105975518Y-122605438D01*
X105855820Y-122641748D01*
X105745506Y-122700713D01*
X105648815Y-122780065D01*
X105569463Y-122876756D01*
X105510498Y-122987070D01*
X105509754Y-122989521D01*
X105355134Y-122801116D01*
X105129014Y-122615544D01*
X104871034Y-122477651D01*
X104591111Y-122392737D01*
X104300000Y-122364065D01*
X104008890Y-122392737D01*
X103728967Y-122477651D01*
X103470987Y-122615544D01*
X103244867Y-122801116D01*
X103059294Y-123027236D01*
X102921401Y-123285216D01*
X102836487Y-123565139D01*
X102815000Y-123783300D01*
X102815000Y-124929199D01*
X102836487Y-125147360D01*
X102921401Y-125427283D01*
X103059294Y-125685263D01*
X103244866Y-125911384D01*
X103470986Y-126096956D01*
X103728966Y-126234849D01*
X104008889Y-126319763D01*
X104300000Y-126348435D01*
X104591110Y-126319763D01*
X104871033Y-126234849D01*
X105089481Y-126118086D01*
X102632466Y-128575102D01*
X102600959Y-128600959D01*
X102549517Y-128663642D01*
X102497801Y-128726658D01*
X102463909Y-128790065D01*
X102421147Y-128870067D01*
X102373944Y-129025675D01*
X102362931Y-129137500D01*
X102358006Y-129187500D01*
X102362000Y-129228051D01*
X102362001Y-133887257D01*
X102222650Y-133929528D01*
X102069114Y-134011595D01*
X101934538Y-134122038D01*
X101824095Y-134256614D01*
X101742028Y-134410150D01*
X101691492Y-134576746D01*
X101674428Y-134750000D01*
X101674428Y-135500000D01*
X101691492Y-135673254D01*
X101742028Y-135839850D01*
X101824095Y-135993386D01*
X101934538Y-136127962D01*
X102069114Y-136238405D01*
X102222650Y-136320472D01*
X102389246Y-136371008D01*
X102562500Y-136388072D01*
X103812500Y-136388072D01*
X103985754Y-136371008D01*
X104152350Y-136320472D01*
X104305886Y-136238405D01*
X104440462Y-136127962D01*
X104550905Y-135993386D01*
X104632972Y-135839850D01*
X104683508Y-135673254D01*
X104700572Y-135500000D01*
X104700572Y-134750000D01*
X104683508Y-134576746D01*
X104632972Y-134410150D01*
X104550905Y-134256614D01*
X104440462Y-134122038D01*
X104305886Y-134011595D01*
X104152350Y-133929528D01*
X104013000Y-133887257D01*
X104013000Y-129529432D01*
X104230678Y-129311754D01*
X104230678Y-129625000D01*
X104247622Y-129797035D01*
X104297803Y-129962459D01*
X104379292Y-130114914D01*
X104488958Y-130248542D01*
X104574506Y-130318750D01*
X104488958Y-130388958D01*
X104379292Y-130522586D01*
X104297803Y-130675041D01*
X104247622Y-130840465D01*
X104230678Y-131012500D01*
X104230678Y-131500000D01*
X104247622Y-131672035D01*
X104297803Y-131837459D01*
X104379292Y-131989914D01*
X104488958Y-132123542D01*
X104622586Y-132233208D01*
X104775041Y-132314697D01*
X104940465Y-132364878D01*
X105112500Y-132381822D01*
X105616692Y-132381822D01*
X106394250Y-133159381D01*
X106394251Y-138564319D01*
X105199898Y-137369966D01*
X105174041Y-137338459D01*
X105048342Y-137235301D01*
X104904934Y-137158647D01*
X104749326Y-137111444D01*
X104628053Y-137099500D01*
X104628050Y-137099500D01*
X104587500Y-137095506D01*
X104572484Y-137096985D01*
X104550905Y-137056614D01*
X104440462Y-136922038D01*
X104305886Y-136811595D01*
X104152350Y-136729528D01*
X103985754Y-136678992D01*
X103812500Y-136661928D01*
X102562500Y-136661928D01*
X102389246Y-136678992D01*
X102222650Y-136729528D01*
X102069114Y-136811595D01*
X101934538Y-136922038D01*
X101824095Y-137056614D01*
X101742028Y-137210150D01*
X101691492Y-137376746D01*
X101674428Y-137550000D01*
X101674428Y-138300000D01*
X101691492Y-138473254D01*
X101742028Y-138639850D01*
X101824095Y-138793386D01*
X101934538Y-138927962D01*
X102069114Y-139038405D01*
X102222650Y-139120472D01*
X102389246Y-139171008D01*
X102562500Y-139188072D01*
X103812500Y-139188072D01*
X103985754Y-139171008D01*
X104152350Y-139120472D01*
X104305886Y-139038405D01*
X104430887Y-138935820D01*
X111162607Y-145667540D01*
X111188459Y-145699041D01*
X111228107Y-145731579D01*
X111314157Y-145802199D01*
X111406314Y-145851458D01*
X111457566Y-145878853D01*
X111613174Y-145926056D01*
X111734447Y-145938000D01*
X111734449Y-145938000D01*
X111775000Y-145941994D01*
X111815550Y-145938000D01*
X118742160Y-145938000D01*
X118776458Y-145979792D01*
X118782814Y-145985008D01*
X118705065Y-146048815D01*
X118625713Y-146145506D01*
X118566748Y-146255820D01*
X118530438Y-146375518D01*
X118518178Y-146500000D01*
X118521250Y-146701750D01*
X118680000Y-146860500D01*
X119729250Y-146860500D01*
X119729250Y-146840500D01*
X119983250Y-146840500D01*
X119983250Y-146860500D01*
X121032500Y-146860500D01*
X121191250Y-146701750D01*
X121194322Y-146500000D01*
X121182062Y-146375518D01*
X121145752Y-146255820D01*
X121086787Y-146145506D01*
X121007435Y-146048815D01*
X120929686Y-145985008D01*
X120936042Y-145979792D01*
X121045708Y-145846164D01*
X121127197Y-145693709D01*
X121177378Y-145528285D01*
X121194322Y-145356250D01*
X121194322Y-144941860D01*
X121371875Y-144764307D01*
X122022856Y-145415289D01*
X122048709Y-145446791D01*
X122118283Y-145503889D01*
X122174406Y-145549948D01*
X122174408Y-145549949D01*
X122317816Y-145626603D01*
X122473424Y-145673806D01*
X122594697Y-145685750D01*
X122594706Y-145685750D01*
X122635249Y-145689743D01*
X122675792Y-145685750D01*
X124507364Y-145685750D01*
X124512188Y-145734732D01*
X124548498Y-145854430D01*
X124607463Y-145964744D01*
X124686815Y-146061435D01*
X124783506Y-146140787D01*
X124893820Y-146199752D01*
X125013518Y-146236062D01*
X125138000Y-146248322D01*
X125688000Y-146248322D01*
X125812482Y-146236062D01*
X125813663Y-146235704D01*
X125927250Y-146245250D01*
X126019333Y-146153167D01*
X126042494Y-146140787D01*
X126139185Y-146061435D01*
X126213000Y-145971491D01*
X126286815Y-146061435D01*
X126383506Y-146140787D01*
X126406667Y-146153167D01*
X126498750Y-146245250D01*
X126612337Y-146235704D01*
X126613518Y-146236062D01*
X126738000Y-146248322D01*
X127288000Y-146248322D01*
X127412482Y-146236062D01*
X127413000Y-146235905D01*
X127413518Y-146236062D01*
X127538000Y-146248322D01*
X128088000Y-146248322D01*
X128212482Y-146236062D01*
X128213000Y-146235905D01*
X128213518Y-146236062D01*
X128338000Y-146248322D01*
X128888000Y-146248322D01*
X129012482Y-146236062D01*
X129013000Y-146235905D01*
X129013518Y-146236062D01*
X129138000Y-146248322D01*
X129688000Y-146248322D01*
X129812482Y-146236062D01*
X129813000Y-146235905D01*
X129813518Y-146236062D01*
X129938000Y-146248322D01*
X130488000Y-146248322D01*
X130612482Y-146236062D01*
X130613000Y-146235905D01*
X130613518Y-146236062D01*
X130738000Y-146248322D01*
X131288000Y-146248322D01*
X131412482Y-146236062D01*
X131413000Y-146235905D01*
X131413518Y-146236062D01*
X131538000Y-146248322D01*
X132088000Y-146248322D01*
X132212482Y-146236062D01*
X132213663Y-146235704D01*
X132327250Y-146245250D01*
X132419333Y-146153167D01*
X132442494Y-146140787D01*
X132539185Y-146061435D01*
X132613000Y-145971491D01*
X132686815Y-146061435D01*
X132783506Y-146140787D01*
X132806667Y-146153167D01*
X132898750Y-146245250D01*
X133012337Y-146235704D01*
X133013518Y-146236062D01*
X133138000Y-146248322D01*
X133383501Y-146248322D01*
X133383500Y-147063160D01*
X133341708Y-147097458D01*
X133336492Y-147103814D01*
X133272685Y-147026065D01*
X133175994Y-146946713D01*
X133065680Y-146887748D01*
X132945982Y-146851438D01*
X132821500Y-146839178D01*
X132619750Y-146842250D01*
X132461000Y-147001000D01*
X132461000Y-148050250D01*
X132481000Y-148050250D01*
X132481000Y-148304250D01*
X132461000Y-148304250D01*
X132461000Y-149353500D01*
X132619750Y-149512250D01*
X132821500Y-149515322D01*
X132945982Y-149503062D01*
X133065680Y-149466752D01*
X133175994Y-149407787D01*
X133272685Y-149328435D01*
X133336492Y-149250686D01*
X133341708Y-149257042D01*
X133475336Y-149366708D01*
X133627791Y-149448197D01*
X133793215Y-149498378D01*
X133965250Y-149515322D01*
X134452750Y-149515322D01*
X134624785Y-149498378D01*
X134790209Y-149448197D01*
X134942664Y-149366708D01*
X135076292Y-149257042D01*
X135076532Y-149256750D01*
X135897497Y-149256750D01*
X136034744Y-149348455D01*
X136223102Y-149426476D01*
X136423061Y-149466250D01*
X136626939Y-149466250D01*
X136826898Y-149426476D01*
X137015256Y-149348455D01*
X137184774Y-149235187D01*
X137328937Y-149091024D01*
X137442205Y-148921506D01*
X137520226Y-148733148D01*
X137560000Y-148533189D01*
X137560000Y-148329311D01*
X137520226Y-148129352D01*
X137442205Y-147940994D01*
X137328937Y-147771476D01*
X137184774Y-147627313D01*
X137015256Y-147514045D01*
X136826898Y-147436024D01*
X136626939Y-147396250D01*
X136423061Y-147396250D01*
X136223102Y-147436024D01*
X136034744Y-147514045D01*
X135897497Y-147605750D01*
X135323221Y-147605750D01*
X135317628Y-147548965D01*
X135267447Y-147383541D01*
X135185958Y-147231086D01*
X135076292Y-147097458D01*
X135034500Y-147063160D01*
X135034500Y-145743750D01*
X137568178Y-145743750D01*
X137580438Y-145868232D01*
X137616748Y-145987930D01*
X137675713Y-146098244D01*
X137755065Y-146194935D01*
X137851756Y-146274287D01*
X137962070Y-146333252D01*
X138081768Y-146369562D01*
X138206250Y-146381822D01*
X138620500Y-146378750D01*
X138779250Y-146220000D01*
X138779250Y-145383250D01*
X139033250Y-145383250D01*
X139033250Y-146220000D01*
X139192000Y-146378750D01*
X139606250Y-146381822D01*
X139730732Y-146369562D01*
X139850430Y-146333252D01*
X139960744Y-146274287D01*
X140057435Y-146194935D01*
X140136787Y-146098244D01*
X140195752Y-145987930D01*
X140232062Y-145868232D01*
X140244322Y-145743750D01*
X140241250Y-145542000D01*
X140082500Y-145383250D01*
X139033250Y-145383250D01*
X138779250Y-145383250D01*
X137730000Y-145383250D01*
X137571250Y-145542000D01*
X137568178Y-145743750D01*
X135034500Y-145743750D01*
X135034500Y-145040800D01*
X135038494Y-145000250D01*
X135033611Y-144950673D01*
X135022556Y-144838424D01*
X134975353Y-144682816D01*
X134898699Y-144539408D01*
X134795541Y-144413709D01*
X134764038Y-144387855D01*
X134681397Y-144305214D01*
X134655541Y-144273709D01*
X134529842Y-144170551D01*
X134386434Y-144093897D01*
X134322553Y-144074519D01*
X134322038Y-144069288D01*
X134363000Y-144073322D01*
X135012305Y-144073322D01*
X135040985Y-144088652D01*
X135184622Y-144132224D01*
X135296574Y-144143250D01*
X135296576Y-144143250D01*
X135333999Y-144146936D01*
X135371422Y-144143250D01*
X137740047Y-144143250D01*
X137826458Y-144248542D01*
X137832814Y-144253758D01*
X137755065Y-144317565D01*
X137675713Y-144414256D01*
X137616748Y-144524570D01*
X137580438Y-144644268D01*
X137568178Y-144768750D01*
X137571250Y-144970500D01*
X137730000Y-145129250D01*
X138779250Y-145129250D01*
X138779250Y-145109250D01*
X139033250Y-145109250D01*
X139033250Y-145129250D01*
X140082500Y-145129250D01*
X140241250Y-144970500D01*
X140244322Y-144768750D01*
X140232062Y-144644268D01*
X140195752Y-144524570D01*
X140136787Y-144414256D01*
X140057435Y-144317565D01*
X139979686Y-144253758D01*
X139986042Y-144248542D01*
X140095708Y-144114914D01*
X140177197Y-143962459D01*
X140227378Y-143797035D01*
X140244322Y-143625000D01*
X140244322Y-143137500D01*
X140227378Y-142965465D01*
X140177197Y-142800041D01*
X140095708Y-142647586D01*
X139986042Y-142513958D01*
X139852414Y-142404292D01*
X139699959Y-142322803D01*
X139534535Y-142272622D01*
X139362500Y-142255678D01*
X138450000Y-142255678D01*
X138277965Y-142272622D01*
X138112541Y-142322803D01*
X137960086Y-142404292D01*
X137826458Y-142513958D01*
X137740047Y-142619250D01*
X136501072Y-142619250D01*
X136501072Y-142085250D01*
X136488812Y-141960768D01*
X136488655Y-141960250D01*
X136488812Y-141959732D01*
X136501072Y-141835250D01*
X136501072Y-141522250D01*
X141160500Y-141522250D01*
X141160500Y-155708750D01*
X102426029Y-155708750D01*
X102060040Y-155672864D01*
X101739038Y-155575948D01*
X101442975Y-155418529D01*
X101183127Y-155206601D01*
X100969394Y-154948242D01*
X100809912Y-154653286D01*
X100710757Y-154332969D01*
X100672500Y-153968979D01*
X100672500Y-153743750D01*
X101799428Y-153743750D01*
X101811688Y-153868232D01*
X101847998Y-153987930D01*
X101906963Y-154098244D01*
X101986315Y-154194935D01*
X102083006Y-154274287D01*
X102193320Y-154333252D01*
X102313018Y-154369562D01*
X102437500Y-154381822D01*
X103051750Y-154378750D01*
X103210500Y-154220000D01*
X103210500Y-153320750D01*
X103464500Y-153320750D01*
X103464500Y-154220000D01*
X103623250Y-154378750D01*
X104237500Y-154381822D01*
X104361982Y-154369562D01*
X104481680Y-154333252D01*
X104591994Y-154274287D01*
X104688685Y-154194935D01*
X104768037Y-154098244D01*
X104827002Y-153987930D01*
X104863312Y-153868232D01*
X104875572Y-153743750D01*
X104872500Y-153479500D01*
X104713750Y-153320750D01*
X103464500Y-153320750D01*
X103210500Y-153320750D01*
X101961250Y-153320750D01*
X101802500Y-153479500D01*
X101799428Y-153743750D01*
X100672500Y-153743750D01*
X100672500Y-152643750D01*
X101799428Y-152643750D01*
X101802500Y-152908000D01*
X101961250Y-153066750D01*
X103210500Y-153066750D01*
X103210500Y-152167500D01*
X103464500Y-152167500D01*
X103464500Y-153066750D01*
X104713750Y-153066750D01*
X104872500Y-152908000D01*
X104875572Y-152643750D01*
X107999428Y-152643750D01*
X107999428Y-153743750D01*
X108011688Y-153868232D01*
X108047998Y-153987930D01*
X108106963Y-154098244D01*
X108186315Y-154194935D01*
X108283006Y-154274287D01*
X108393320Y-154333252D01*
X108513018Y-154369562D01*
X108637500Y-154381822D01*
X110437500Y-154381822D01*
X110561982Y-154369562D01*
X110681680Y-154333252D01*
X110791994Y-154274287D01*
X110888685Y-154194935D01*
X110968037Y-154098244D01*
X111027002Y-153987930D01*
X111063312Y-153868232D01*
X111075572Y-153743750D01*
X111075572Y-152643750D01*
X111063312Y-152519268D01*
X111027002Y-152399570D01*
X110968037Y-152289256D01*
X110888685Y-152192565D01*
X110791994Y-152113213D01*
X110681680Y-152054248D01*
X110561982Y-152017938D01*
X110437500Y-152005678D01*
X108637500Y-152005678D01*
X108513018Y-152017938D01*
X108393320Y-152054248D01*
X108283006Y-152113213D01*
X108186315Y-152192565D01*
X108106963Y-152289256D01*
X108047998Y-152399570D01*
X108011688Y-152519268D01*
X107999428Y-152643750D01*
X104875572Y-152643750D01*
X104863312Y-152519268D01*
X104827002Y-152399570D01*
X104768037Y-152289256D01*
X104688685Y-152192565D01*
X104591994Y-152113213D01*
X104481680Y-152054248D01*
X104361982Y-152017938D01*
X104237500Y-152005678D01*
X103623250Y-152008750D01*
X103464500Y-152167500D01*
X103210500Y-152167500D01*
X103051750Y-152008750D01*
X102437500Y-152005678D01*
X102313018Y-152017938D01*
X102193320Y-152054248D01*
X102083006Y-152113213D01*
X101986315Y-152192565D01*
X101906963Y-152289256D01*
X101847998Y-152399570D01*
X101811688Y-152519268D01*
X101799428Y-152643750D01*
X100672500Y-152643750D01*
X100672500Y-148943750D01*
X101799428Y-148943750D01*
X101799428Y-150043750D01*
X101811688Y-150168232D01*
X101847998Y-150287930D01*
X101906963Y-150398244D01*
X101986315Y-150494935D01*
X102083006Y-150574287D01*
X102193320Y-150633252D01*
X102313018Y-150669562D01*
X102437500Y-150681822D01*
X104237500Y-150681822D01*
X104361982Y-150669562D01*
X104481680Y-150633252D01*
X104591994Y-150574287D01*
X104688685Y-150494935D01*
X104768037Y-150398244D01*
X104827002Y-150287930D01*
X104863312Y-150168232D01*
X104875572Y-150043750D01*
X104875572Y-148943750D01*
X107999428Y-148943750D01*
X107999428Y-150043750D01*
X108011688Y-150168232D01*
X108047998Y-150287930D01*
X108106963Y-150398244D01*
X108186315Y-150494935D01*
X108283006Y-150574287D01*
X108393320Y-150633252D01*
X108513018Y-150669562D01*
X108637500Y-150681822D01*
X110437500Y-150681822D01*
X110561982Y-150669562D01*
X110681680Y-150633252D01*
X110791994Y-150574287D01*
X110888685Y-150494935D01*
X110968037Y-150398244D01*
X111027002Y-150287930D01*
X111036764Y-150255750D01*
X111742039Y-150255750D01*
X111783976Y-150297687D01*
X111953494Y-150410955D01*
X112141852Y-150488976D01*
X112341811Y-150528750D01*
X112545689Y-150528750D01*
X112745648Y-150488976D01*
X112934006Y-150410955D01*
X113103524Y-150297687D01*
X113247687Y-150153524D01*
X113360955Y-149984006D01*
X113438976Y-149795648D01*
X113478750Y-149595689D01*
X113478750Y-149391811D01*
X113438976Y-149191852D01*
X113360955Y-149003494D01*
X113276602Y-148877250D01*
X131208428Y-148877250D01*
X131220688Y-149001732D01*
X131256998Y-149121430D01*
X131315963Y-149231744D01*
X131395315Y-149328435D01*
X131492006Y-149407787D01*
X131602320Y-149466752D01*
X131722018Y-149503062D01*
X131846500Y-149515322D01*
X132048250Y-149512250D01*
X132207000Y-149353500D01*
X132207000Y-148304250D01*
X131370250Y-148304250D01*
X131211500Y-148463000D01*
X131208428Y-148877250D01*
X113276602Y-148877250D01*
X113247687Y-148833976D01*
X113103524Y-148689813D01*
X112934006Y-148576545D01*
X112745648Y-148498524D01*
X112545689Y-148458750D01*
X112341811Y-148458750D01*
X112141852Y-148498524D01*
X111953494Y-148576545D01*
X111783976Y-148689813D01*
X111742039Y-148731750D01*
X111036764Y-148731750D01*
X111027002Y-148699570D01*
X110968037Y-148589256D01*
X110888685Y-148492565D01*
X110791994Y-148413213D01*
X110681680Y-148354248D01*
X110561982Y-148317938D01*
X110437500Y-148305678D01*
X108637500Y-148305678D01*
X108513018Y-148317938D01*
X108393320Y-148354248D01*
X108283006Y-148413213D01*
X108186315Y-148492565D01*
X108106963Y-148589256D01*
X108047998Y-148699570D01*
X108011688Y-148819268D01*
X107999428Y-148943750D01*
X104875572Y-148943750D01*
X104863312Y-148819268D01*
X104827002Y-148699570D01*
X104768037Y-148589256D01*
X104688685Y-148492565D01*
X104591994Y-148413213D01*
X104481680Y-148354248D01*
X104361982Y-148317938D01*
X104237500Y-148305678D01*
X102437500Y-148305678D01*
X102313018Y-148317938D01*
X102193320Y-148354248D01*
X102083006Y-148413213D01*
X101986315Y-148492565D01*
X101906963Y-148589256D01*
X101847998Y-148699570D01*
X101811688Y-148819268D01*
X101799428Y-148943750D01*
X100672500Y-148943750D01*
X100672500Y-147475000D01*
X118518178Y-147475000D01*
X118530438Y-147599482D01*
X118566748Y-147719180D01*
X118625713Y-147829494D01*
X118705065Y-147926185D01*
X118801756Y-148005537D01*
X118912070Y-148064502D01*
X119031768Y-148100812D01*
X119156250Y-148113072D01*
X119570500Y-148110000D01*
X119729250Y-147951250D01*
X119729250Y-147114500D01*
X119983250Y-147114500D01*
X119983250Y-147951250D01*
X120142000Y-148110000D01*
X120556250Y-148113072D01*
X120680732Y-148100812D01*
X120800430Y-148064502D01*
X120910744Y-148005537D01*
X121007435Y-147926185D01*
X121086787Y-147829494D01*
X121145752Y-147719180D01*
X121182062Y-147599482D01*
X121194100Y-147477250D01*
X131208428Y-147477250D01*
X131211500Y-147891500D01*
X131370250Y-148050250D01*
X132207000Y-148050250D01*
X132207000Y-147001000D01*
X132048250Y-146842250D01*
X131846500Y-146839178D01*
X131722018Y-146851438D01*
X131602320Y-146887748D01*
X131492006Y-146946713D01*
X131395315Y-147026065D01*
X131315963Y-147122756D01*
X131256998Y-147233070D01*
X131220688Y-147352768D01*
X131208428Y-147477250D01*
X121194100Y-147477250D01*
X121194322Y-147475000D01*
X121191250Y-147273250D01*
X121032500Y-147114500D01*
X119983250Y-147114500D01*
X119729250Y-147114500D01*
X118680000Y-147114500D01*
X118521250Y-147273250D01*
X118518178Y-147475000D01*
X100672500Y-147475000D01*
X100672500Y-120682279D01*
X100708386Y-120316290D01*
X100805301Y-119995290D01*
X100962721Y-119699225D01*
X101174649Y-119439377D01*
X101433010Y-119225642D01*
X101727964Y-119066162D01*
X102048282Y-118967006D01*
X102412262Y-118928750D01*
X102877860Y-118928750D01*
X102836487Y-119065139D01*
X102836487Y-119065139D01*
G37*
X102836487Y-119065139D02*
X102815000Y-119283300D01*
X102815000Y-120429199D01*
X102836487Y-120647360D01*
X102921401Y-120927283D01*
X103059294Y-121185263D01*
X103244866Y-121411384D01*
X103470986Y-121596956D01*
X103728966Y-121734849D01*
X104008889Y-121819763D01*
X104300000Y-121848435D01*
X104591110Y-121819763D01*
X104871033Y-121734849D01*
X105129013Y-121596956D01*
X105355134Y-121411384D01*
X105540706Y-121185264D01*
X105678599Y-120927284D01*
X105763513Y-120647361D01*
X105785000Y-120429200D01*
X105785000Y-119283300D01*
X105763513Y-119065139D01*
X105722140Y-118928750D01*
X110177860Y-118928750D01*
X110136487Y-119065139D01*
X110115000Y-119283300D01*
X110115000Y-120429199D01*
X110136487Y-120647360D01*
X110221401Y-120927283D01*
X110359294Y-121185263D01*
X110544866Y-121411384D01*
X110770986Y-121596956D01*
X111028966Y-121734849D01*
X111308889Y-121819763D01*
X111600000Y-121848435D01*
X111891110Y-121819763D01*
X112171033Y-121734849D01*
X112429013Y-121596956D01*
X112655134Y-121411384D01*
X112840706Y-121185264D01*
X112978599Y-120927284D01*
X113063513Y-120647361D01*
X113085000Y-120429200D01*
X113085000Y-119283300D01*
X113063513Y-119065139D01*
X113022140Y-118928750D01*
X141160500Y-118928750D01*
X141160500Y-135494985D01*
X141100470Y-135506925D01*
X141098750Y-135506756D01*
X141058200Y-135510750D01*
X139798090Y-135510750D01*
X139763792Y-135468958D01*
X139757436Y-135463742D01*
X139835185Y-135399935D01*
X139914537Y-135303244D01*
X139973502Y-135192930D01*
X140009812Y-135073232D01*
X140022072Y-134948750D01*
X140019000Y-134747000D01*
X139860250Y-134588250D01*
X138811000Y-134588250D01*
X138811000Y-134608250D01*
X138557000Y-134608250D01*
X138557000Y-134588250D01*
X137507750Y-134588250D01*
X137349000Y-134747000D01*
X137345928Y-134948750D01*
X137358188Y-135073232D01*
X137376849Y-135134750D01*
X136498000Y-135134750D01*
X136498000Y-135033248D01*
X136339252Y-135033248D01*
X136498000Y-134874500D01*
X136488177Y-134757619D01*
X136451265Y-134638105D01*
X136391746Y-134528089D01*
X136311908Y-134431799D01*
X136214818Y-134352934D01*
X136104208Y-134294526D01*
X135984329Y-134258820D01*
X135859787Y-134247186D01*
X135398750Y-134250250D01*
X135240000Y-134409000D01*
X135240000Y-135033250D01*
X135260000Y-135033250D01*
X135260000Y-135047178D01*
X134363000Y-135047178D01*
X134238518Y-135059438D01*
X134118820Y-135095748D01*
X134008506Y-135154713D01*
X133911815Y-135234065D01*
X133832463Y-135330756D01*
X133820083Y-135353917D01*
X133728000Y-135446000D01*
X133737546Y-135559587D01*
X133737188Y-135560768D01*
X133724928Y-135685250D01*
X133724928Y-136235250D01*
X133737188Y-136359732D01*
X133737345Y-136360250D01*
X133737188Y-136360768D01*
X133724928Y-136485250D01*
X133724928Y-137035250D01*
X133737188Y-137159732D01*
X133737345Y-137160250D01*
X133737188Y-137160768D01*
X133724928Y-137285250D01*
X133724928Y-137835250D01*
X133737188Y-137959732D01*
X133737345Y-137960250D01*
X133737188Y-137960768D01*
X133724928Y-138085250D01*
X133724928Y-138635250D01*
X133737188Y-138759732D01*
X133737345Y-138760250D01*
X133737188Y-138760768D01*
X133724928Y-138885250D01*
X133724928Y-139435250D01*
X133737188Y-139559732D01*
X133737345Y-139560250D01*
X133737188Y-139560768D01*
X133724928Y-139685250D01*
X133724928Y-140235250D01*
X133737188Y-140359732D01*
X133737345Y-140360250D01*
X133737188Y-140360768D01*
X133724928Y-140485250D01*
X133724928Y-141035250D01*
X133737188Y-141159732D01*
X133737345Y-141160250D01*
X133737188Y-141160768D01*
X133724928Y-141285250D01*
X133724928Y-141835250D01*
X133737188Y-141959732D01*
X133737345Y-141960250D01*
X133737188Y-141960768D01*
X133724928Y-142085250D01*
X133724928Y-142635250D01*
X133737188Y-142759732D01*
X133737345Y-142760250D01*
X133737188Y-142760768D01*
X133724928Y-142885250D01*
X133724928Y-143435250D01*
X133728962Y-143476212D01*
X133688000Y-143472178D01*
X133138000Y-143472178D01*
X133013518Y-143484438D01*
X133012337Y-143484796D01*
X132898750Y-143475250D01*
X132806667Y-143567333D01*
X132783506Y-143579713D01*
X132686815Y-143659065D01*
X132613000Y-143749009D01*
X132539185Y-143659065D01*
X132442494Y-143579713D01*
X132419333Y-143567333D01*
X132327250Y-143475250D01*
X132213663Y-143484796D01*
X132212482Y-143484438D01*
X132088000Y-143472178D01*
X131538000Y-143472178D01*
X131413518Y-143484438D01*
X131413000Y-143484595D01*
X131412482Y-143484438D01*
X131288000Y-143472178D01*
X130738000Y-143472178D01*
X130613518Y-143484438D01*
X130613000Y-143484595D01*
X130612482Y-143484438D01*
X130488000Y-143472178D01*
X129938000Y-143472178D01*
X129813518Y-143484438D01*
X129813000Y-143484595D01*
X129812482Y-143484438D01*
X129688000Y-143472178D01*
X129138000Y-143472178D01*
X129013518Y-143484438D01*
X129013000Y-143484595D01*
X129012482Y-143484438D01*
X128888000Y-143472178D01*
X128338000Y-143472178D01*
X128213518Y-143484438D01*
X128213000Y-143484595D01*
X128212482Y-143484438D01*
X128088000Y-143472178D01*
X127538000Y-143472178D01*
X127413518Y-143484438D01*
X127413000Y-143484595D01*
X127412482Y-143484438D01*
X127288000Y-143472178D01*
X126738000Y-143472178D01*
X126613518Y-143484438D01*
X126612337Y-143484796D01*
X126498750Y-143475250D01*
X126406667Y-143567333D01*
X126383506Y-143579713D01*
X126286815Y-143659065D01*
X126213000Y-143749009D01*
X126139185Y-143659065D01*
X126042494Y-143579713D01*
X126019333Y-143567333D01*
X125927250Y-143475250D01*
X125813663Y-143484796D01*
X125812482Y-143484438D01*
X125688000Y-143472178D01*
X125138000Y-143472178D01*
X125097038Y-143476212D01*
X125101072Y-143435250D01*
X125101072Y-142885250D01*
X125088812Y-142760768D01*
X125088655Y-142760250D01*
X125088812Y-142759732D01*
X125101072Y-142635250D01*
X125101072Y-142085250D01*
X125088812Y-141960768D01*
X125088655Y-141960250D01*
X125088812Y-141959732D01*
X125101072Y-141835250D01*
X125101072Y-141285250D01*
X125088812Y-141160768D01*
X125088655Y-141160250D01*
X125088812Y-141159732D01*
X125101072Y-141035250D01*
X125101072Y-140485250D01*
X125088812Y-140360768D01*
X125088454Y-140359587D01*
X125098000Y-140246000D01*
X125005917Y-140153917D01*
X124993537Y-140130756D01*
X124914185Y-140034065D01*
X124824241Y-139960250D01*
X124914185Y-139886435D01*
X124993537Y-139789744D01*
X125005917Y-139766583D01*
X125098000Y-139674500D01*
X125088454Y-139560913D01*
X125088812Y-139559732D01*
X125101072Y-139435250D01*
X125101072Y-138885250D01*
X125088812Y-138760768D01*
X125088655Y-138760250D01*
X125088812Y-138759732D01*
X125101072Y-138635250D01*
X125101072Y-138085250D01*
X125088812Y-137960768D01*
X125088655Y-137960250D01*
X125088812Y-137959732D01*
X125101072Y-137835250D01*
X125101072Y-137285250D01*
X125088812Y-137160768D01*
X125088655Y-137160250D01*
X125088812Y-137159732D01*
X125101072Y-137035250D01*
X125101072Y-136485250D01*
X125088812Y-136360768D01*
X125088655Y-136360250D01*
X125088812Y-136359732D01*
X125101072Y-136235250D01*
X125101072Y-135685250D01*
X125088812Y-135560768D01*
X125088655Y-135560250D01*
X125088812Y-135559732D01*
X125101072Y-135435250D01*
X125101072Y-134885250D01*
X125097038Y-134844288D01*
X125138000Y-134848322D01*
X125688000Y-134848322D01*
X125812482Y-134836062D01*
X125813000Y-134835905D01*
X125813518Y-134836062D01*
X125938000Y-134848322D01*
X126488000Y-134848322D01*
X126612482Y-134836062D01*
X126613000Y-134835905D01*
X126613518Y-134836062D01*
X126738000Y-134848322D01*
X127288000Y-134848322D01*
X127412482Y-134836062D01*
X127413663Y-134835704D01*
X127527250Y-134845250D01*
X127619333Y-134753167D01*
X127642494Y-134740787D01*
X127739185Y-134661435D01*
X127813000Y-134571491D01*
X127886815Y-134661435D01*
X127983506Y-134740787D01*
X128006667Y-134753167D01*
X128098750Y-134845250D01*
X128212337Y-134835704D01*
X128213518Y-134836062D01*
X128338000Y-134848322D01*
X128888000Y-134848322D01*
X129012482Y-134836062D01*
X129013000Y-134835905D01*
X129013518Y-134836062D01*
X129138000Y-134848322D01*
X129688000Y-134848322D01*
X129812482Y-134836062D01*
X129813000Y-134835905D01*
X129813518Y-134836062D01*
X129938000Y-134848322D01*
X130488000Y-134848322D01*
X130612482Y-134836062D01*
X130613000Y-134835905D01*
X130613518Y-134836062D01*
X130738000Y-134848322D01*
X131288000Y-134848322D01*
X131412482Y-134836062D01*
X131413000Y-134835905D01*
X131413518Y-134836062D01*
X131538000Y-134848322D01*
X132088000Y-134848322D01*
X132212482Y-134836062D01*
X132213000Y-134835905D01*
X132213518Y-134836062D01*
X132338000Y-134848322D01*
X132888000Y-134848322D01*
X133012482Y-134836062D01*
X133013000Y-134835905D01*
X133013518Y-134836062D01*
X133138000Y-134848322D01*
X133688000Y-134848322D01*
X133730552Y-134844131D01*
X133728000Y-134874500D01*
X133886750Y-135033250D01*
X134986000Y-135033250D01*
X134986000Y-134409000D01*
X134827250Y-134250250D01*
X134366213Y-134247186D01*
X134322028Y-134251314D01*
X134326072Y-134210250D01*
X134326072Y-133973750D01*
X137345928Y-133973750D01*
X137349000Y-134175500D01*
X137507750Y-134334250D01*
X138557000Y-134334250D01*
X138557000Y-133497500D01*
X138811000Y-133497500D01*
X138811000Y-134334250D01*
X139860250Y-134334250D01*
X140019000Y-134175500D01*
X140022072Y-133973750D01*
X140009812Y-133849268D01*
X139973502Y-133729570D01*
X139914537Y-133619256D01*
X139835185Y-133522565D01*
X139738494Y-133443213D01*
X139628180Y-133384248D01*
X139508482Y-133347938D01*
X139384000Y-133335678D01*
X138969750Y-133338750D01*
X138811000Y-133497500D01*
X138557000Y-133497500D01*
X138398250Y-133338750D01*
X137984000Y-133335678D01*
X137859518Y-133347938D01*
X137739820Y-133384248D01*
X137629506Y-133443213D01*
X137532815Y-133522565D01*
X137453463Y-133619256D01*
X137394498Y-133729570D01*
X137358188Y-133849268D01*
X137345928Y-133973750D01*
X134326072Y-133973750D01*
X134326072Y-132710250D01*
X134313812Y-132585768D01*
X134277502Y-132466070D01*
X134218537Y-132355756D01*
X134139185Y-132259065D01*
X134042494Y-132179713D01*
X133932180Y-132120748D01*
X133812482Y-132084438D01*
X133688000Y-132072178D01*
X133138000Y-132072178D01*
X133013518Y-132084438D01*
X133013000Y-132084595D01*
X133012482Y-132084438D01*
X132888000Y-132072178D01*
X132338000Y-132072178D01*
X132213518Y-132084438D01*
X132213000Y-132084595D01*
X132212482Y-132084438D01*
X132088000Y-132072178D01*
X131538000Y-132072178D01*
X131413518Y-132084438D01*
X131413000Y-132084595D01*
X131412482Y-132084438D01*
X131288000Y-132072178D01*
X130738000Y-132072178D01*
X130613518Y-132084438D01*
X130613000Y-132084595D01*
X130612482Y-132084438D01*
X130488000Y-132072178D01*
X130175000Y-132072178D01*
X130175000Y-131252630D01*
X130941351Y-130486279D01*
X130970422Y-130462422D01*
X131065645Y-130346392D01*
X131136402Y-130214015D01*
X131179974Y-130070378D01*
X131191000Y-129958426D01*
X131191000Y-129958424D01*
X131194686Y-129921001D01*
X131191000Y-129883578D01*
X131191000Y-129470216D01*
X131253482Y-129464062D01*
X131373180Y-129427752D01*
X131483494Y-129368787D01*
X131580185Y-129289435D01*
X131659537Y-129192744D01*
X131718502Y-129082430D01*
X131743431Y-129000250D01*
X131996840Y-129000250D01*
X132033542Y-129068914D01*
X132143208Y-129202542D01*
X132276836Y-129312208D01*
X132429291Y-129393697D01*
X132594715Y-129443878D01*
X132766750Y-129460822D01*
X133679250Y-129460822D01*
X133851285Y-129443878D01*
X134016709Y-129393697D01*
X134169164Y-129312208D01*
X134302792Y-129202542D01*
X134412458Y-129068914D01*
X134493947Y-128916459D01*
X134544128Y-128751035D01*
X134561072Y-128579000D01*
X134561072Y-128091500D01*
X134544128Y-127919465D01*
X134493947Y-127754041D01*
X134412458Y-127601586D01*
X134302792Y-127467958D01*
X134296436Y-127462742D01*
X134374185Y-127398935D01*
X134453537Y-127302244D01*
X134512502Y-127191930D01*
X134548812Y-127072232D01*
X134561072Y-126947750D01*
X134558000Y-126746000D01*
X134399250Y-126587250D01*
X133350000Y-126587250D01*
X133350000Y-126607250D01*
X133096000Y-126607250D01*
X133096000Y-126587250D01*
X132046750Y-126587250D01*
X131888000Y-126746000D01*
X131884928Y-126947750D01*
X131897188Y-127072232D01*
X131933498Y-127191930D01*
X131992463Y-127302244D01*
X132071815Y-127398935D01*
X132149564Y-127462742D01*
X132143208Y-127467958D01*
X132136403Y-127476250D01*
X131743431Y-127476250D01*
X131718502Y-127394070D01*
X131715391Y-127388250D01*
X131718502Y-127382430D01*
X131754812Y-127262732D01*
X131767072Y-127138250D01*
X131764000Y-126824000D01*
X131605250Y-126665250D01*
X130556000Y-126665250D01*
X130556000Y-126685250D01*
X130302000Y-126685250D01*
X130302000Y-126665250D01*
X130282000Y-126665250D01*
X130282000Y-126411250D01*
X130302000Y-126411250D01*
X130302000Y-125462000D01*
X130556000Y-125462000D01*
X130556000Y-126411250D01*
X131605250Y-126411250D01*
X131764000Y-126252500D01*
X131766734Y-125972750D01*
X131884928Y-125972750D01*
X131888000Y-126174500D01*
X132046750Y-126333250D01*
X133096000Y-126333250D01*
X133096000Y-125496500D01*
X133350000Y-125496500D01*
X133350000Y-126333250D01*
X134399250Y-126333250D01*
X134558000Y-126174500D01*
X134561072Y-125972750D01*
X134548812Y-125848268D01*
X134512502Y-125728570D01*
X134453537Y-125618256D01*
X134374185Y-125521565D01*
X134277494Y-125442213D01*
X134167180Y-125383248D01*
X134047482Y-125346938D01*
X133923000Y-125334678D01*
X133508750Y-125337750D01*
X133350000Y-125496500D01*
X133096000Y-125496500D01*
X132937250Y-125337750D01*
X132523000Y-125334678D01*
X132398518Y-125346938D01*
X132278820Y-125383248D01*
X132168506Y-125442213D01*
X132071815Y-125521565D01*
X131992463Y-125618256D01*
X131933498Y-125728570D01*
X131897188Y-125848268D01*
X131884928Y-125972750D01*
X131766734Y-125972750D01*
X131767072Y-125938250D01*
X131754812Y-125813768D01*
X131718502Y-125694070D01*
X131659537Y-125583756D01*
X131580185Y-125487065D01*
X131483494Y-125407713D01*
X131373180Y-125348748D01*
X131253482Y-125312438D01*
X131129000Y-125300178D01*
X130714750Y-125303250D01*
X130556000Y-125462000D01*
X130302000Y-125462000D01*
X130143250Y-125303250D01*
X129729000Y-125300178D01*
X129604518Y-125312438D01*
X129484820Y-125348748D01*
X129374506Y-125407713D01*
X129329000Y-125445059D01*
X129283494Y-125407713D01*
X129173180Y-125348748D01*
X129053482Y-125312438D01*
X128929000Y-125300178D01*
X127529000Y-125300178D01*
X127404518Y-125312438D01*
X127284820Y-125348748D01*
X127174506Y-125407713D01*
X127077815Y-125487065D01*
X126998463Y-125583756D01*
X126939498Y-125694070D01*
X126938230Y-125698250D01*
X126388203Y-125698250D01*
X126301792Y-125592958D01*
X126168164Y-125483292D01*
X126015709Y-125401803D01*
X125850285Y-125351622D01*
X125678250Y-125334678D01*
X124765750Y-125334678D01*
X124593715Y-125351622D01*
X124428291Y-125401803D01*
X124275836Y-125483292D01*
X124142208Y-125592958D01*
X124032542Y-125726586D01*
X123951053Y-125879041D01*
X123900872Y-126044465D01*
X123883928Y-126216500D01*
X123883928Y-126704000D01*
X123900872Y-126876035D01*
X123951053Y-127041459D01*
X124032542Y-127193914D01*
X124142208Y-127327542D01*
X124148564Y-127332758D01*
X124070815Y-127396565D01*
X123991463Y-127493256D01*
X123932498Y-127603570D01*
X123896188Y-127723268D01*
X123883928Y-127847750D01*
X123887000Y-128049500D01*
X124045750Y-128208250D01*
X125095000Y-128208250D01*
X125095000Y-128188250D01*
X125349000Y-128188250D01*
X125349000Y-128208250D01*
X125369000Y-128208250D01*
X125369000Y-128462250D01*
X125349000Y-128462250D01*
X125349000Y-129299000D01*
X125507750Y-129457750D01*
X125922000Y-129460822D01*
X126046482Y-129448562D01*
X126166180Y-129412252D01*
X126276494Y-129353287D01*
X126348032Y-129294577D01*
X126363355Y-129323244D01*
X126410959Y-129381249D01*
X126458579Y-129439274D01*
X126487649Y-129463131D01*
X127851000Y-130826483D01*
X127851000Y-131774425D01*
X127851001Y-131774435D01*
X127851001Y-132302705D01*
X127818133Y-132342755D01*
X127779353Y-132214914D01*
X127761495Y-132181504D01*
X127702699Y-132071505D01*
X127625392Y-131977306D01*
X127625389Y-131977303D01*
X127599541Y-131945807D01*
X127568046Y-131919960D01*
X126696799Y-131048715D01*
X126670943Y-131017209D01*
X126545244Y-130914051D01*
X126401836Y-130837397D01*
X126246228Y-130790194D01*
X126124955Y-130778250D01*
X126124952Y-130778250D01*
X126084402Y-130774256D01*
X126043852Y-130778250D01*
X122367340Y-130778250D01*
X122333042Y-130736458D01*
X122326686Y-130731242D01*
X122404435Y-130667435D01*
X122483787Y-130570744D01*
X122542752Y-130460430D01*
X122579062Y-130340732D01*
X122591322Y-130216250D01*
X122588250Y-130014500D01*
X122429500Y-129855750D01*
X121380250Y-129855750D01*
X121380250Y-129875750D01*
X121126250Y-129875750D01*
X121126250Y-129855750D01*
X121106250Y-129855750D01*
X121106250Y-129601750D01*
X121126250Y-129601750D01*
X121126250Y-128765000D01*
X121380250Y-128765000D01*
X121380250Y-129601750D01*
X122429500Y-129601750D01*
X122588250Y-129443000D01*
X122591322Y-129241250D01*
X122579062Y-129116768D01*
X122542752Y-128997070D01*
X122483787Y-128886756D01*
X122431259Y-128822750D01*
X123883928Y-128822750D01*
X123896188Y-128947232D01*
X123932498Y-129066930D01*
X123991463Y-129177244D01*
X124070815Y-129273935D01*
X124167506Y-129353287D01*
X124277820Y-129412252D01*
X124397518Y-129448562D01*
X124522000Y-129460822D01*
X124936250Y-129457750D01*
X125095000Y-129299000D01*
X125095000Y-128462250D01*
X124045750Y-128462250D01*
X123887000Y-128621000D01*
X123883928Y-128822750D01*
X122431259Y-128822750D01*
X122404435Y-128790065D01*
X122307744Y-128710713D01*
X122197430Y-128651748D01*
X122077732Y-128615438D01*
X121953250Y-128603178D01*
X121539000Y-128606250D01*
X121380250Y-128765000D01*
X121126250Y-128765000D01*
X120967500Y-128606250D01*
X120553250Y-128603178D01*
X120428768Y-128615438D01*
X120309070Y-128651748D01*
X120198756Y-128710713D01*
X120102065Y-128790065D01*
X120022713Y-128886756D01*
X119963748Y-128997070D01*
X119927438Y-129116768D01*
X119927121Y-129119991D01*
X119887592Y-129087551D01*
X119744184Y-129010897D01*
X119588576Y-128963694D01*
X119467303Y-128951750D01*
X119467300Y-128951750D01*
X119426750Y-128947756D01*
X119386200Y-128951750D01*
X119319340Y-128951750D01*
X119285042Y-128909958D01*
X119151414Y-128800292D01*
X118998959Y-128718803D01*
X118833535Y-128668622D01*
X118661500Y-128651678D01*
X117749000Y-128651678D01*
X117576965Y-128668622D01*
X117411541Y-128718803D01*
X117259086Y-128800292D01*
X117125458Y-128909958D01*
X117015792Y-129043586D01*
X116934303Y-129196041D01*
X116884122Y-129361465D01*
X116867178Y-129533500D01*
X116867178Y-130021000D01*
X116884122Y-130193035D01*
X116934303Y-130358459D01*
X117015792Y-130510914D01*
X117125458Y-130644542D01*
X117211006Y-130714750D01*
X117125458Y-130784958D01*
X117100185Y-130815753D01*
X116983148Y-130767274D01*
X116783189Y-130727500D01*
X116579311Y-130727500D01*
X116379352Y-130767274D01*
X116190994Y-130845295D01*
X116021476Y-130958563D01*
X115877313Y-131102726D01*
X115764045Y-131272244D01*
X115686024Y-131460602D01*
X115646250Y-131660561D01*
X115646250Y-131864439D01*
X115686024Y-132064398D01*
X115764045Y-132252756D01*
X115877313Y-132422274D01*
X116021476Y-132566437D01*
X116190994Y-132679705D01*
X116379352Y-132757726D01*
X116579311Y-132797500D01*
X116783189Y-132797500D01*
X116983148Y-132757726D01*
X117171506Y-132679705D01*
X117253698Y-132624786D01*
X117259086Y-132629208D01*
X117411541Y-132710697D01*
X117576965Y-132760878D01*
X117749000Y-132777822D01*
X118661500Y-132777822D01*
X118833535Y-132760878D01*
X118989067Y-132713698D01*
X119236369Y-132961000D01*
X119260227Y-132990071D01*
X119376257Y-133085294D01*
X119508634Y-133156051D01*
X119652271Y-133199623D01*
X119764223Y-133210649D01*
X119764225Y-133210649D01*
X119801648Y-133214335D01*
X119839071Y-133210649D01*
X122307678Y-133210649D01*
X122345101Y-133214335D01*
X122382524Y-133210649D01*
X122382527Y-133210649D01*
X122494479Y-133199623D01*
X122638116Y-133156051D01*
X122770493Y-133085294D01*
X122886523Y-132990071D01*
X122910385Y-132960995D01*
X122988120Y-132883260D01*
X124499928Y-132883260D01*
X124499928Y-134210250D01*
X124503962Y-134251212D01*
X124463000Y-134247178D01*
X122963000Y-134247178D01*
X122838518Y-134259438D01*
X122718820Y-134295748D01*
X122608506Y-134354713D01*
X122511815Y-134434065D01*
X122432463Y-134530756D01*
X122373498Y-134641070D01*
X122337188Y-134760768D01*
X122324928Y-134885250D01*
X122324928Y-135435250D01*
X122337188Y-135559732D01*
X122337345Y-135560250D01*
X122337188Y-135560768D01*
X122324928Y-135685250D01*
X122324928Y-136235250D01*
X122337188Y-136359732D01*
X122337345Y-136360250D01*
X122337188Y-136360768D01*
X122324928Y-136485250D01*
X122324928Y-137035250D01*
X122329089Y-137077500D01*
X122135561Y-137077500D01*
X121935602Y-137117274D01*
X121747244Y-137195295D01*
X121577726Y-137308563D01*
X121433563Y-137452726D01*
X121320295Y-137622244D01*
X121242274Y-137810602D01*
X121202500Y-138010561D01*
X121202500Y-138214439D01*
X121239062Y-138398250D01*
X121013380Y-138398250D01*
X121009034Y-138393904D01*
X120985172Y-138364828D01*
X120972401Y-138354347D01*
X120964878Y-138277965D01*
X120914697Y-138112541D01*
X120833208Y-137960086D01*
X120723542Y-137826458D01*
X120589914Y-137716792D01*
X120437459Y-137635303D01*
X120272035Y-137585122D01*
X120100000Y-137568178D01*
X119612500Y-137568178D01*
X119440465Y-137585122D01*
X119275041Y-137635303D01*
X119122586Y-137716792D01*
X118988958Y-137826458D01*
X118983742Y-137832814D01*
X118919935Y-137755065D01*
X118823244Y-137675713D01*
X118712930Y-137616748D01*
X118593232Y-137580438D01*
X118468750Y-137568178D01*
X118267000Y-137571250D01*
X118108250Y-137730000D01*
X118108250Y-138779250D01*
X118128250Y-138779250D01*
X118128250Y-139033250D01*
X118108250Y-139033250D01*
X118108250Y-139053250D01*
X117854250Y-139053250D01*
X117854250Y-139033250D01*
X117017500Y-139033250D01*
X116858750Y-139192000D01*
X116855678Y-139606250D01*
X116867938Y-139730732D01*
X116904248Y-139850430D01*
X116963213Y-139960744D01*
X116993993Y-139998250D01*
X110119631Y-139998250D01*
X108712000Y-138590620D01*
X108712000Y-138206250D01*
X116855678Y-138206250D01*
X116858750Y-138620500D01*
X117017500Y-138779250D01*
X117854250Y-138779250D01*
X117854250Y-137730000D01*
X117695500Y-137571250D01*
X117493750Y-137568178D01*
X117369268Y-137580438D01*
X117249570Y-137616748D01*
X117139256Y-137675713D01*
X117042565Y-137755065D01*
X116963213Y-137851756D01*
X116904248Y-137962070D01*
X116867938Y-138081768D01*
X116855678Y-138206250D01*
X108712000Y-138206250D01*
X108712000Y-133159380D01*
X109489559Y-132381822D01*
X109993750Y-132381822D01*
X110165785Y-132364878D01*
X110331209Y-132314697D01*
X110483664Y-132233208D01*
X110617292Y-132123542D01*
X110726958Y-131989914D01*
X110808447Y-131837459D01*
X110858628Y-131672035D01*
X110875572Y-131500000D01*
X110875572Y-131012500D01*
X110858628Y-130840465D01*
X110808447Y-130675041D01*
X110726958Y-130522586D01*
X110617292Y-130388958D01*
X110531744Y-130318750D01*
X110617292Y-130248542D01*
X110726958Y-130114914D01*
X110808447Y-129962459D01*
X110858628Y-129797035D01*
X110875572Y-129625000D01*
X110875572Y-129137500D01*
X110858628Y-128965465D01*
X110808447Y-128800041D01*
X110726958Y-128647586D01*
X110617292Y-128513958D01*
X110483664Y-128404292D01*
X110331209Y-128322803D01*
X110165785Y-128272622D01*
X109993750Y-128255678D01*
X109489559Y-128255678D01*
X108712000Y-127478120D01*
X108712000Y-126119322D01*
X109000000Y-126119322D01*
X109124482Y-126107062D01*
X109149266Y-126099544D01*
X109168639Y-126105654D01*
X109268250Y-126116250D01*
X109427000Y-125957500D01*
X109427000Y-125952283D01*
X109451185Y-125932435D01*
X109530537Y-125835744D01*
X109589502Y-125725430D01*
X109625812Y-125605732D01*
X109638072Y-125481250D01*
X109638072Y-123231250D01*
X109625812Y-123106768D01*
X109589502Y-122987070D01*
X109530537Y-122876756D01*
X109451185Y-122780065D01*
X109427000Y-122760217D01*
X109427000Y-122755000D01*
X109673000Y-122755000D01*
X109673000Y-124229250D01*
X109697000Y-124229250D01*
X109697000Y-124483250D01*
X109673000Y-124483250D01*
X109673000Y-125957500D01*
X109831750Y-126116250D01*
X109931361Y-126105654D01*
X110050652Y-126068029D01*
X110160311Y-126007854D01*
X110256123Y-125927443D01*
X110334406Y-125829884D01*
X110390123Y-125722828D01*
X110544866Y-125911384D01*
X110770986Y-126096956D01*
X111028966Y-126234849D01*
X111308889Y-126319763D01*
X111600000Y-126348435D01*
X111891110Y-126319763D01*
X112171033Y-126234849D01*
X112429013Y-126096956D01*
X112655134Y-125911384D01*
X112840706Y-125685264D01*
X112978599Y-125427284D01*
X113063513Y-125147361D01*
X113085000Y-124929200D01*
X113085000Y-123783300D01*
X113063513Y-123565139D01*
X112978599Y-123285216D01*
X112840706Y-123027236D01*
X112655134Y-122801116D01*
X112429014Y-122615544D01*
X112171034Y-122477651D01*
X111891111Y-122392737D01*
X111600000Y-122364065D01*
X111308890Y-122392737D01*
X111028967Y-122477651D01*
X110770987Y-122615544D01*
X110544867Y-122801116D01*
X110390123Y-122989671D01*
X110334406Y-122882616D01*
X110256123Y-122785057D01*
X110160311Y-122704646D01*
X110050652Y-122644471D01*
X109931361Y-122606846D01*
X109831750Y-122596250D01*
X109673000Y-122755000D01*
X109427000Y-122755000D01*
X109268250Y-122596250D01*
X109168639Y-122606846D01*
X109149266Y-122612956D01*
X109124482Y-122605438D01*
X109000000Y-122593178D01*
X108500000Y-122593178D01*
X108375518Y-122605438D01*
X108350000Y-122613179D01*
X108324482Y-122605438D01*
X108200000Y-122593178D01*
X107700000Y-122593178D01*
X107575518Y-122605438D01*
X107550000Y-122613179D01*
X107524482Y-122605438D01*
X107400000Y-122593178D01*
X106900000Y-122593178D01*
X106775518Y-122605438D01*
X106750000Y-122613179D01*
X106724482Y-122605438D01*
X106600000Y-122593178D01*
X106100000Y-122593178D01*
X105975518Y-122605438D01*
X105855820Y-122641748D01*
X105745506Y-122700713D01*
X105648815Y-122780065D01*
X105569463Y-122876756D01*
X105510498Y-122987070D01*
X105509754Y-122989521D01*
X105355134Y-122801116D01*
X105129014Y-122615544D01*
X104871034Y-122477651D01*
X104591111Y-122392737D01*
X104300000Y-122364065D01*
X104008890Y-122392737D01*
X103728967Y-122477651D01*
X103470987Y-122615544D01*
X103244867Y-122801116D01*
X103059294Y-123027236D01*
X102921401Y-123285216D01*
X102836487Y-123565139D01*
X102815000Y-123783300D01*
X102815000Y-124929199D01*
X102836487Y-125147360D01*
X102921401Y-125427283D01*
X103059294Y-125685263D01*
X103244866Y-125911384D01*
X103470986Y-126096956D01*
X103728966Y-126234849D01*
X104008889Y-126319763D01*
X104300000Y-126348435D01*
X104591110Y-126319763D01*
X104871033Y-126234849D01*
X105089481Y-126118086D01*
X102632466Y-128575102D01*
X102600959Y-128600959D01*
X102549517Y-128663642D01*
X102497801Y-128726658D01*
X102463909Y-128790065D01*
X102421147Y-128870067D01*
X102373944Y-129025675D01*
X102362931Y-129137500D01*
X102358006Y-129187500D01*
X102362000Y-129228051D01*
X102362001Y-133887257D01*
X102222650Y-133929528D01*
X102069114Y-134011595D01*
X101934538Y-134122038D01*
X101824095Y-134256614D01*
X101742028Y-134410150D01*
X101691492Y-134576746D01*
X101674428Y-134750000D01*
X101674428Y-135500000D01*
X101691492Y-135673254D01*
X101742028Y-135839850D01*
X101824095Y-135993386D01*
X101934538Y-136127962D01*
X102069114Y-136238405D01*
X102222650Y-136320472D01*
X102389246Y-136371008D01*
X102562500Y-136388072D01*
X103812500Y-136388072D01*
X103985754Y-136371008D01*
X104152350Y-136320472D01*
X104305886Y-136238405D01*
X104440462Y-136127962D01*
X104550905Y-135993386D01*
X104632972Y-135839850D01*
X104683508Y-135673254D01*
X104700572Y-135500000D01*
X104700572Y-134750000D01*
X104683508Y-134576746D01*
X104632972Y-134410150D01*
X104550905Y-134256614D01*
X104440462Y-134122038D01*
X104305886Y-134011595D01*
X104152350Y-133929528D01*
X104013000Y-133887257D01*
X104013000Y-129529432D01*
X104230678Y-129311754D01*
X104230678Y-129625000D01*
X104247622Y-129797035D01*
X104297803Y-129962459D01*
X104379292Y-130114914D01*
X104488958Y-130248542D01*
X104574506Y-130318750D01*
X104488958Y-130388958D01*
X104379292Y-130522586D01*
X104297803Y-130675041D01*
X104247622Y-130840465D01*
X104230678Y-131012500D01*
X104230678Y-131500000D01*
X104247622Y-131672035D01*
X104297803Y-131837459D01*
X104379292Y-131989914D01*
X104488958Y-132123542D01*
X104622586Y-132233208D01*
X104775041Y-132314697D01*
X104940465Y-132364878D01*
X105112500Y-132381822D01*
X105616692Y-132381822D01*
X106394250Y-133159381D01*
X106394251Y-138564319D01*
X105199898Y-137369966D01*
X105174041Y-137338459D01*
X105048342Y-137235301D01*
X104904934Y-137158647D01*
X104749326Y-137111444D01*
X104628053Y-137099500D01*
X104628050Y-137099500D01*
X104587500Y-137095506D01*
X104572484Y-137096985D01*
X104550905Y-137056614D01*
X104440462Y-136922038D01*
X104305886Y-136811595D01*
X104152350Y-136729528D01*
X103985754Y-136678992D01*
X103812500Y-136661928D01*
X102562500Y-136661928D01*
X102389246Y-136678992D01*
X102222650Y-136729528D01*
X102069114Y-136811595D01*
X101934538Y-136922038D01*
X101824095Y-137056614D01*
X101742028Y-137210150D01*
X101691492Y-137376746D01*
X101674428Y-137550000D01*
X101674428Y-138300000D01*
X101691492Y-138473254D01*
X101742028Y-138639850D01*
X101824095Y-138793386D01*
X101934538Y-138927962D01*
X102069114Y-139038405D01*
X102222650Y-139120472D01*
X102389246Y-139171008D01*
X102562500Y-139188072D01*
X103812500Y-139188072D01*
X103985754Y-139171008D01*
X104152350Y-139120472D01*
X104305886Y-139038405D01*
X104430887Y-138935820D01*
X111162607Y-145667540D01*
X111188459Y-145699041D01*
X111228107Y-145731579D01*
X111314157Y-145802199D01*
X111406314Y-145851458D01*
X111457566Y-145878853D01*
X111613174Y-145926056D01*
X111734447Y-145938000D01*
X111734449Y-145938000D01*
X111775000Y-145941994D01*
X111815550Y-145938000D01*
X118742160Y-145938000D01*
X118776458Y-145979792D01*
X118782814Y-145985008D01*
X118705065Y-146048815D01*
X118625713Y-146145506D01*
X118566748Y-146255820D01*
X118530438Y-146375518D01*
X118518178Y-146500000D01*
X118521250Y-146701750D01*
X118680000Y-146860500D01*
X119729250Y-146860500D01*
X119729250Y-146840500D01*
X119983250Y-146840500D01*
X119983250Y-146860500D01*
X121032500Y-146860500D01*
X121191250Y-146701750D01*
X121194322Y-146500000D01*
X121182062Y-146375518D01*
X121145752Y-146255820D01*
X121086787Y-146145506D01*
X121007435Y-146048815D01*
X120929686Y-145985008D01*
X120936042Y-145979792D01*
X121045708Y-145846164D01*
X121127197Y-145693709D01*
X121177378Y-145528285D01*
X121194322Y-145356250D01*
X121194322Y-144941860D01*
X121371875Y-144764307D01*
X122022856Y-145415289D01*
X122048709Y-145446791D01*
X122118283Y-145503889D01*
X122174406Y-145549948D01*
X122174408Y-145549949D01*
X122317816Y-145626603D01*
X122473424Y-145673806D01*
X122594697Y-145685750D01*
X122594706Y-145685750D01*
X122635249Y-145689743D01*
X122675792Y-145685750D01*
X124507364Y-145685750D01*
X124512188Y-145734732D01*
X124548498Y-145854430D01*
X124607463Y-145964744D01*
X124686815Y-146061435D01*
X124783506Y-146140787D01*
X124893820Y-146199752D01*
X125013518Y-146236062D01*
X125138000Y-146248322D01*
X125688000Y-146248322D01*
X125812482Y-146236062D01*
X125813663Y-146235704D01*
X125927250Y-146245250D01*
X126019333Y-146153167D01*
X126042494Y-146140787D01*
X126139185Y-146061435D01*
X126213000Y-145971491D01*
X126286815Y-146061435D01*
X126383506Y-146140787D01*
X126406667Y-146153167D01*
X126498750Y-146245250D01*
X126612337Y-146235704D01*
X126613518Y-146236062D01*
X126738000Y-146248322D01*
X127288000Y-146248322D01*
X127412482Y-146236062D01*
X127413000Y-146235905D01*
X127413518Y-146236062D01*
X127538000Y-146248322D01*
X128088000Y-146248322D01*
X128212482Y-146236062D01*
X128213000Y-146235905D01*
X128213518Y-146236062D01*
X128338000Y-146248322D01*
X128888000Y-146248322D01*
X129012482Y-146236062D01*
X129013000Y-146235905D01*
X129013518Y-146236062D01*
X129138000Y-146248322D01*
X129688000Y-146248322D01*
X129812482Y-146236062D01*
X129813000Y-146235905D01*
X129813518Y-146236062D01*
X129938000Y-146248322D01*
X130488000Y-146248322D01*
X130612482Y-146236062D01*
X130613000Y-146235905D01*
X130613518Y-146236062D01*
X130738000Y-146248322D01*
X131288000Y-146248322D01*
X131412482Y-146236062D01*
X131413000Y-146235905D01*
X131413518Y-146236062D01*
X131538000Y-146248322D01*
X132088000Y-146248322D01*
X132212482Y-146236062D01*
X132213663Y-146235704D01*
X132327250Y-146245250D01*
X132419333Y-146153167D01*
X132442494Y-146140787D01*
X132539185Y-146061435D01*
X132613000Y-145971491D01*
X132686815Y-146061435D01*
X132783506Y-146140787D01*
X132806667Y-146153167D01*
X132898750Y-146245250D01*
X133012337Y-146235704D01*
X133013518Y-146236062D01*
X133138000Y-146248322D01*
X133383501Y-146248322D01*
X133383500Y-147063160D01*
X133341708Y-147097458D01*
X133336492Y-147103814D01*
X133272685Y-147026065D01*
X133175994Y-146946713D01*
X133065680Y-146887748D01*
X132945982Y-146851438D01*
X132821500Y-146839178D01*
X132619750Y-146842250D01*
X132461000Y-147001000D01*
X132461000Y-148050250D01*
X132481000Y-148050250D01*
X132481000Y-148304250D01*
X132461000Y-148304250D01*
X132461000Y-149353500D01*
X132619750Y-149512250D01*
X132821500Y-149515322D01*
X132945982Y-149503062D01*
X133065680Y-149466752D01*
X133175994Y-149407787D01*
X133272685Y-149328435D01*
X133336492Y-149250686D01*
X133341708Y-149257042D01*
X133475336Y-149366708D01*
X133627791Y-149448197D01*
X133793215Y-149498378D01*
X133965250Y-149515322D01*
X134452750Y-149515322D01*
X134624785Y-149498378D01*
X134790209Y-149448197D01*
X134942664Y-149366708D01*
X135076292Y-149257042D01*
X135076532Y-149256750D01*
X135897497Y-149256750D01*
X136034744Y-149348455D01*
X136223102Y-149426476D01*
X136423061Y-149466250D01*
X136626939Y-149466250D01*
X136826898Y-149426476D01*
X137015256Y-149348455D01*
X137184774Y-149235187D01*
X137328937Y-149091024D01*
X137442205Y-148921506D01*
X137520226Y-148733148D01*
X137560000Y-148533189D01*
X137560000Y-148329311D01*
X137520226Y-148129352D01*
X137442205Y-147940994D01*
X137328937Y-147771476D01*
X137184774Y-147627313D01*
X137015256Y-147514045D01*
X136826898Y-147436024D01*
X136626939Y-147396250D01*
X136423061Y-147396250D01*
X136223102Y-147436024D01*
X136034744Y-147514045D01*
X135897497Y-147605750D01*
X135323221Y-147605750D01*
X135317628Y-147548965D01*
X135267447Y-147383541D01*
X135185958Y-147231086D01*
X135076292Y-147097458D01*
X135034500Y-147063160D01*
X135034500Y-145743750D01*
X137568178Y-145743750D01*
X137580438Y-145868232D01*
X137616748Y-145987930D01*
X137675713Y-146098244D01*
X137755065Y-146194935D01*
X137851756Y-146274287D01*
X137962070Y-146333252D01*
X138081768Y-146369562D01*
X138206250Y-146381822D01*
X138620500Y-146378750D01*
X138779250Y-146220000D01*
X138779250Y-145383250D01*
X139033250Y-145383250D01*
X139033250Y-146220000D01*
X139192000Y-146378750D01*
X139606250Y-146381822D01*
X139730732Y-146369562D01*
X139850430Y-146333252D01*
X139960744Y-146274287D01*
X140057435Y-146194935D01*
X140136787Y-146098244D01*
X140195752Y-145987930D01*
X140232062Y-145868232D01*
X140244322Y-145743750D01*
X140241250Y-145542000D01*
X140082500Y-145383250D01*
X139033250Y-145383250D01*
X138779250Y-145383250D01*
X137730000Y-145383250D01*
X137571250Y-145542000D01*
X137568178Y-145743750D01*
X135034500Y-145743750D01*
X135034500Y-145040800D01*
X135038494Y-145000250D01*
X135033611Y-144950673D01*
X135022556Y-144838424D01*
X134975353Y-144682816D01*
X134898699Y-144539408D01*
X134795541Y-144413709D01*
X134764038Y-144387855D01*
X134681397Y-144305214D01*
X134655541Y-144273709D01*
X134529842Y-144170551D01*
X134386434Y-144093897D01*
X134322553Y-144074519D01*
X134322038Y-144069288D01*
X134363000Y-144073322D01*
X135012305Y-144073322D01*
X135040985Y-144088652D01*
X135184622Y-144132224D01*
X135296574Y-144143250D01*
X135296576Y-144143250D01*
X135333999Y-144146936D01*
X135371422Y-144143250D01*
X137740047Y-144143250D01*
X137826458Y-144248542D01*
X137832814Y-144253758D01*
X137755065Y-144317565D01*
X137675713Y-144414256D01*
X137616748Y-144524570D01*
X137580438Y-144644268D01*
X137568178Y-144768750D01*
X137571250Y-144970500D01*
X137730000Y-145129250D01*
X138779250Y-145129250D01*
X138779250Y-145109250D01*
X139033250Y-145109250D01*
X139033250Y-145129250D01*
X140082500Y-145129250D01*
X140241250Y-144970500D01*
X140244322Y-144768750D01*
X140232062Y-144644268D01*
X140195752Y-144524570D01*
X140136787Y-144414256D01*
X140057435Y-144317565D01*
X139979686Y-144253758D01*
X139986042Y-144248542D01*
X140095708Y-144114914D01*
X140177197Y-143962459D01*
X140227378Y-143797035D01*
X140244322Y-143625000D01*
X140244322Y-143137500D01*
X140227378Y-142965465D01*
X140177197Y-142800041D01*
X140095708Y-142647586D01*
X139986042Y-142513958D01*
X139852414Y-142404292D01*
X139699959Y-142322803D01*
X139534535Y-142272622D01*
X139362500Y-142255678D01*
X138450000Y-142255678D01*
X138277965Y-142272622D01*
X138112541Y-142322803D01*
X137960086Y-142404292D01*
X137826458Y-142513958D01*
X137740047Y-142619250D01*
X136501072Y-142619250D01*
X136501072Y-142085250D01*
X136488812Y-141960768D01*
X136488655Y-141960250D01*
X136488812Y-141959732D01*
X136501072Y-141835250D01*
X136501072Y-141522250D01*
X141160500Y-141522250D01*
X141160500Y-155708750D01*
X102426029Y-155708750D01*
X102060040Y-155672864D01*
X101739038Y-155575948D01*
X101442975Y-155418529D01*
X101183127Y-155206601D01*
X100969394Y-154948242D01*
X100809912Y-154653286D01*
X100710757Y-154332969D01*
X100672500Y-153968979D01*
X100672500Y-153743750D01*
X101799428Y-153743750D01*
X101811688Y-153868232D01*
X101847998Y-153987930D01*
X101906963Y-154098244D01*
X101986315Y-154194935D01*
X102083006Y-154274287D01*
X102193320Y-154333252D01*
X102313018Y-154369562D01*
X102437500Y-154381822D01*
X103051750Y-154378750D01*
X103210500Y-154220000D01*
X103210500Y-153320750D01*
X103464500Y-153320750D01*
X103464500Y-154220000D01*
X103623250Y-154378750D01*
X104237500Y-154381822D01*
X104361982Y-154369562D01*
X104481680Y-154333252D01*
X104591994Y-154274287D01*
X104688685Y-154194935D01*
X104768037Y-154098244D01*
X104827002Y-153987930D01*
X104863312Y-153868232D01*
X104875572Y-153743750D01*
X104872500Y-153479500D01*
X104713750Y-153320750D01*
X103464500Y-153320750D01*
X103210500Y-153320750D01*
X101961250Y-153320750D01*
X101802500Y-153479500D01*
X101799428Y-153743750D01*
X100672500Y-153743750D01*
X100672500Y-152643750D01*
X101799428Y-152643750D01*
X101802500Y-152908000D01*
X101961250Y-153066750D01*
X103210500Y-153066750D01*
X103210500Y-152167500D01*
X103464500Y-152167500D01*
X103464500Y-153066750D01*
X104713750Y-153066750D01*
X104872500Y-152908000D01*
X104875572Y-152643750D01*
X107999428Y-152643750D01*
X107999428Y-153743750D01*
X108011688Y-153868232D01*
X108047998Y-153987930D01*
X108106963Y-154098244D01*
X108186315Y-154194935D01*
X108283006Y-154274287D01*
X108393320Y-154333252D01*
X108513018Y-154369562D01*
X108637500Y-154381822D01*
X110437500Y-154381822D01*
X110561982Y-154369562D01*
X110681680Y-154333252D01*
X110791994Y-154274287D01*
X110888685Y-154194935D01*
X110968037Y-154098244D01*
X111027002Y-153987930D01*
X111063312Y-153868232D01*
X111075572Y-153743750D01*
X111075572Y-152643750D01*
X111063312Y-152519268D01*
X111027002Y-152399570D01*
X110968037Y-152289256D01*
X110888685Y-152192565D01*
X110791994Y-152113213D01*
X110681680Y-152054248D01*
X110561982Y-152017938D01*
X110437500Y-152005678D01*
X108637500Y-152005678D01*
X108513018Y-152017938D01*
X108393320Y-152054248D01*
X108283006Y-152113213D01*
X108186315Y-152192565D01*
X108106963Y-152289256D01*
X108047998Y-152399570D01*
X108011688Y-152519268D01*
X107999428Y-152643750D01*
X104875572Y-152643750D01*
X104863312Y-152519268D01*
X104827002Y-152399570D01*
X104768037Y-152289256D01*
X104688685Y-152192565D01*
X104591994Y-152113213D01*
X104481680Y-152054248D01*
X104361982Y-152017938D01*
X104237500Y-152005678D01*
X103623250Y-152008750D01*
X103464500Y-152167500D01*
X103210500Y-152167500D01*
X103051750Y-152008750D01*
X102437500Y-152005678D01*
X102313018Y-152017938D01*
X102193320Y-152054248D01*
X102083006Y-152113213D01*
X101986315Y-152192565D01*
X101906963Y-152289256D01*
X101847998Y-152399570D01*
X101811688Y-152519268D01*
X101799428Y-152643750D01*
X100672500Y-152643750D01*
X100672500Y-148943750D01*
X101799428Y-148943750D01*
X101799428Y-150043750D01*
X101811688Y-150168232D01*
X101847998Y-150287930D01*
X101906963Y-150398244D01*
X101986315Y-150494935D01*
X102083006Y-150574287D01*
X102193320Y-150633252D01*
X102313018Y-150669562D01*
X102437500Y-150681822D01*
X104237500Y-150681822D01*
X104361982Y-150669562D01*
X104481680Y-150633252D01*
X104591994Y-150574287D01*
X104688685Y-150494935D01*
X104768037Y-150398244D01*
X104827002Y-150287930D01*
X104863312Y-150168232D01*
X104875572Y-150043750D01*
X104875572Y-148943750D01*
X107999428Y-148943750D01*
X107999428Y-150043750D01*
X108011688Y-150168232D01*
X108047998Y-150287930D01*
X108106963Y-150398244D01*
X108186315Y-150494935D01*
X108283006Y-150574287D01*
X108393320Y-150633252D01*
X108513018Y-150669562D01*
X108637500Y-150681822D01*
X110437500Y-150681822D01*
X110561982Y-150669562D01*
X110681680Y-150633252D01*
X110791994Y-150574287D01*
X110888685Y-150494935D01*
X110968037Y-150398244D01*
X111027002Y-150287930D01*
X111036764Y-150255750D01*
X111742039Y-150255750D01*
X111783976Y-150297687D01*
X111953494Y-150410955D01*
X112141852Y-150488976D01*
X112341811Y-150528750D01*
X112545689Y-150528750D01*
X112745648Y-150488976D01*
X112934006Y-150410955D01*
X113103524Y-150297687D01*
X113247687Y-150153524D01*
X113360955Y-149984006D01*
X113438976Y-149795648D01*
X113478750Y-149595689D01*
X113478750Y-149391811D01*
X113438976Y-149191852D01*
X113360955Y-149003494D01*
X113276602Y-148877250D01*
X131208428Y-148877250D01*
X131220688Y-149001732D01*
X131256998Y-149121430D01*
X131315963Y-149231744D01*
X131395315Y-149328435D01*
X131492006Y-149407787D01*
X131602320Y-149466752D01*
X131722018Y-149503062D01*
X131846500Y-149515322D01*
X132048250Y-149512250D01*
X132207000Y-149353500D01*
X132207000Y-148304250D01*
X131370250Y-148304250D01*
X131211500Y-148463000D01*
X131208428Y-148877250D01*
X113276602Y-148877250D01*
X113247687Y-148833976D01*
X113103524Y-148689813D01*
X112934006Y-148576545D01*
X112745648Y-148498524D01*
X112545689Y-148458750D01*
X112341811Y-148458750D01*
X112141852Y-148498524D01*
X111953494Y-148576545D01*
X111783976Y-148689813D01*
X111742039Y-148731750D01*
X111036764Y-148731750D01*
X111027002Y-148699570D01*
X110968037Y-148589256D01*
X110888685Y-148492565D01*
X110791994Y-148413213D01*
X110681680Y-148354248D01*
X110561982Y-148317938D01*
X110437500Y-148305678D01*
X108637500Y-148305678D01*
X108513018Y-148317938D01*
X108393320Y-148354248D01*
X108283006Y-148413213D01*
X108186315Y-148492565D01*
X108106963Y-148589256D01*
X108047998Y-148699570D01*
X108011688Y-148819268D01*
X107999428Y-148943750D01*
X104875572Y-148943750D01*
X104863312Y-148819268D01*
X104827002Y-148699570D01*
X104768037Y-148589256D01*
X104688685Y-148492565D01*
X104591994Y-148413213D01*
X104481680Y-148354248D01*
X104361982Y-148317938D01*
X104237500Y-148305678D01*
X102437500Y-148305678D01*
X102313018Y-148317938D01*
X102193320Y-148354248D01*
X102083006Y-148413213D01*
X101986315Y-148492565D01*
X101906963Y-148589256D01*
X101847998Y-148699570D01*
X101811688Y-148819268D01*
X101799428Y-148943750D01*
X100672500Y-148943750D01*
X100672500Y-147475000D01*
X118518178Y-147475000D01*
X118530438Y-147599482D01*
X118566748Y-147719180D01*
X118625713Y-147829494D01*
X118705065Y-147926185D01*
X118801756Y-148005537D01*
X118912070Y-148064502D01*
X119031768Y-148100812D01*
X119156250Y-148113072D01*
X119570500Y-148110000D01*
X119729250Y-147951250D01*
X119729250Y-147114500D01*
X119983250Y-147114500D01*
X119983250Y-147951250D01*
X120142000Y-148110000D01*
X120556250Y-148113072D01*
X120680732Y-148100812D01*
X120800430Y-148064502D01*
X120910744Y-148005537D01*
X121007435Y-147926185D01*
X121086787Y-147829494D01*
X121145752Y-147719180D01*
X121182062Y-147599482D01*
X121194100Y-147477250D01*
X131208428Y-147477250D01*
X131211500Y-147891500D01*
X131370250Y-148050250D01*
X132207000Y-148050250D01*
X132207000Y-147001000D01*
X132048250Y-146842250D01*
X131846500Y-146839178D01*
X131722018Y-146851438D01*
X131602320Y-146887748D01*
X131492006Y-146946713D01*
X131395315Y-147026065D01*
X131315963Y-147122756D01*
X131256998Y-147233070D01*
X131220688Y-147352768D01*
X131208428Y-147477250D01*
X121194100Y-147477250D01*
X121194322Y-147475000D01*
X121191250Y-147273250D01*
X121032500Y-147114500D01*
X119983250Y-147114500D01*
X119729250Y-147114500D01*
X118680000Y-147114500D01*
X118521250Y-147273250D01*
X118518178Y-147475000D01*
X100672500Y-147475000D01*
X100672500Y-120682279D01*
X100708386Y-120316290D01*
X100805301Y-119995290D01*
X100962721Y-119699225D01*
X101174649Y-119439377D01*
X101433010Y-119225642D01*
X101727964Y-119066162D01*
X102048282Y-118967006D01*
X102412262Y-118928750D01*
X102877860Y-118928750D01*
X102836487Y-119065139D01*
G36*
X122601759Y-139960250D02*
G01*
X122555456Y-139998250D01*
X120708667Y-139998250D01*
X120723542Y-139986042D01*
X120775895Y-139922250D01*
X122555456Y-139922250D01*
X122601759Y-139960250D01*
X122601759Y-139960250D01*
G37*
X122601759Y-139960250D02*
X122555456Y-139998250D01*
X120708667Y-139998250D01*
X120723542Y-139986042D01*
X120775895Y-139922250D01*
X122555456Y-139922250D01*
X122601759Y-139960250D01*
G36*
X128356000Y-128111250D02*
G01*
X128376000Y-128111250D01*
X128376000Y-128365250D01*
X128356000Y-128365250D01*
X128356000Y-128385250D01*
X128102000Y-128385250D01*
X128102000Y-128365250D01*
X128082000Y-128365250D01*
X128082000Y-128111250D01*
X128102000Y-128111250D01*
X128102000Y-128091250D01*
X128356000Y-128091250D01*
X128356000Y-128111250D01*
X128356000Y-128111250D01*
G37*
X128356000Y-128111250D02*
X128376000Y-128111250D01*
X128376000Y-128365250D01*
X128356000Y-128365250D01*
X128356000Y-128385250D01*
X128102000Y-128385250D01*
X128102000Y-128365250D01*
X128082000Y-128365250D01*
X128082000Y-128111250D01*
X128102000Y-128111250D01*
X128102000Y-128091250D01*
X128356000Y-128091250D01*
X128356000Y-128111250D01*
M02*
