G04 #@! TF.GenerationSoftware,KiCad,Pcbnew,(5.1.4)-1*
G04 #@! TF.CreationDate,2021-04-18T17:33:52-07:00*
G04 #@! TF.ProjectId,ai03-pcb-guide,61693033-2d70-4636-922d-67756964652e,rev?*
G04 #@! TF.SameCoordinates,Original*
G04 #@! TF.FileFunction,Copper,L1,Top*
G04 #@! TF.FilePolarity,Positive*
%FSLAX46Y46*%
G04 Gerber Fmt 4.6, Leading zero omitted, Abs format (unit mm)*
G04 Created by KiCad (PCBNEW (5.1.4)-1) date 2021-04-18 17:33:52*
%MOMM*%
%LPD*%
G04 APERTURE LIST*
%ADD10O,1.700000X2.700000*%
%ADD11R,1.905000X1.905000*%
%ADD12C,1.905000*%
%ADD13C,2.250000*%
%ADD14C,2.250000*%
%ADD15C,0.800000*%
%ADD16C,0.381000*%
%ADD17C,0.254000*%
G04 APERTURE END LIST*
D10*
X104300000Y-119856250D03*
X111600000Y-119856250D03*
X111600000Y-124356250D03*
X104300000Y-124356250D03*
D11*
X171132500Y-151923750D03*
D12*
X168592500Y-151923750D03*
D13*
X167362500Y-142843750D03*
X166707501Y-143573750D03*
D14*
X166052500Y-144303750D02*
X167362502Y-142843750D01*
D13*
X172402500Y-141763750D03*
X172382500Y-142053750D03*
D14*
X172362500Y-142343750D02*
X172402500Y-141763750D01*
D11*
X171132500Y-132873750D03*
D12*
X168592500Y-132873750D03*
D13*
X167362500Y-123793750D03*
X166707501Y-124523750D03*
D14*
X166052500Y-125253750D02*
X167362502Y-123793750D01*
D13*
X172402500Y-122713750D03*
X172382500Y-123003750D03*
D14*
X172362500Y-123293750D02*
X172402500Y-122713750D01*
D11*
X152082500Y-151923750D03*
D12*
X149542500Y-151923750D03*
D13*
X148312500Y-142843750D03*
X147657501Y-143573750D03*
D14*
X147002500Y-144303750D02*
X148312502Y-142843750D01*
D13*
X153352500Y-141763750D03*
X153332500Y-142053750D03*
D14*
X153312500Y-142343750D02*
X153352500Y-141763750D01*
D11*
X152082500Y-132873750D03*
D12*
X149542500Y-132873750D03*
D13*
X148312500Y-123793750D03*
X147657501Y-124523750D03*
D14*
X147002500Y-125253750D02*
X148312502Y-123793750D01*
D13*
X153352500Y-122713750D03*
X153332500Y-123003750D03*
D14*
X153312500Y-123293750D02*
X153352500Y-122713750D01*
D15*
X121443750Y-143668750D03*
X141287500Y-136525000D03*
X136525000Y-148431250D03*
X119840375Y-130190875D03*
X122237500Y-138112500D03*
X112443750Y-149493750D03*
X116681250Y-131762500D03*
D16*
X122237500Y-138112500D02*
X122237500Y-142875000D01*
X122237500Y-142875000D02*
X121443750Y-143668750D01*
X121443750Y-143668750D02*
X121443750Y-144462500D01*
X121443750Y-144462500D02*
X125412500Y-148431250D01*
X141287500Y-136525000D02*
X141287500Y-146050000D01*
X141287500Y-146050000D02*
X138906250Y-148431250D01*
X138906250Y-148431250D02*
X136525000Y-148431250D01*
X125412500Y-148431250D02*
X136525000Y-148431250D01*
X119840375Y-135715375D02*
X122237500Y-138112500D01*
X119840375Y-130190875D02*
X119840375Y-135715375D01*
D17*
X147002500Y-141533750D02*
X147002500Y-144303750D01*
X147002500Y-125253750D02*
X147002500Y-141533750D01*
X166052500Y-141533750D02*
X166052500Y-144303750D01*
X166052500Y-125253750D02*
X166052500Y-141533750D01*
X116681250Y-131762500D02*
X116681250Y-145256250D01*
X116681250Y-145256250D02*
X112443750Y-149493750D01*
M02*
