M48
; DRILL file {KiCad (5.1.4)-1} date 4/18/2021 5:34:07 PM
; FORMAT={-:-/ absolute / inch / decimal}
; #@! TF.CreationDate,2021-04-18T17:34:07-07:00
; #@! TF.GenerationSoftware,Kicad,Pcbnew,(5.1.4)-1
; #@! TF.FileFunction,Plated,1,2,PTH
FMAT,2
INCH
T1C0.0157
T2C0.0276
T3C0.0409
T4C0.0579
%
G90
G05
T1
X4.4269Y-5.8856
X4.5938Y-5.1875
X4.7181Y-5.1256
X4.7812Y-5.6562
X4.8125Y-5.4375
X5.375Y-5.8438
X5.5625Y-5.375
T3
X5.8875Y-5.9813
X5.9875Y-5.9813
X6.6375Y-5.9813
X6.7375Y-5.9813
X6.6375Y-5.2313
X6.7375Y-5.2313
X5.8875Y-5.2313
X5.9875Y-5.2313
T4
X5.7875Y-5.6812
X5.8391Y-5.6238
X6.0359Y-5.6041
X6.0375Y-5.5812
X6.5375Y-5.6812
X6.5891Y-5.6238
X6.7859Y-5.6041
X6.7875Y-5.5812
X6.5375Y-4.9312
X6.5891Y-4.8738
X6.7859Y-4.8541
X6.7875Y-4.8312
X5.7875Y-4.9312
X5.8391Y-4.8738
X6.0359Y-4.8541
X6.0375Y-4.8312
T2
G00X4.1063Y-4.6951
M15
G01X4.1063Y-4.7424
M16
G05
G00X4.1063Y-4.8723
M15
G01X4.1063Y-4.9195
M16
G05
G00X4.3937Y-4.6951
M15
G01X4.3937Y-4.7424
M16
G05
G00X4.3937Y-4.8723
M15
G01X4.3937Y-4.9195
M16
G05
T0
M30
