G04 #@! TF.GenerationSoftware,KiCad,Pcbnew,(5.1.4)-1*
G04 #@! TF.CreationDate,2021-04-18T17:33:52-07:00*
G04 #@! TF.ProjectId,ai03-pcb-guide,61693033-2d70-4636-922d-67756964652e,rev?*
G04 #@! TF.SameCoordinates,Original*
G04 #@! TF.FileFunction,Soldermask,Bot*
G04 #@! TF.FilePolarity,Negative*
%FSLAX46Y46*%
G04 Gerber Fmt 4.6, Leading zero omitted, Abs format (unit mm)*
G04 Created by KiCad (PCBNEW (5.1.4)-1) date 2021-04-18 17:33:52*
%MOMM*%
%LPD*%
G04 APERTURE LIST*
%ADD10C,0.100000*%
G04 APERTURE END LIST*
D10*
G36*
X110488500Y-153794750D02*
G01*
X108586500Y-153794750D01*
X108586500Y-152592750D01*
X110488500Y-152592750D01*
X110488500Y-153794750D01*
X110488500Y-153794750D01*
G37*
G36*
X104288500Y-153794750D02*
G01*
X102386500Y-153794750D01*
X102386500Y-152592750D01*
X104288500Y-152592750D01*
X104288500Y-153794750D01*
X104288500Y-153794750D01*
G37*
G36*
X168718925Y-150925738D02*
G01*
X168885210Y-150958813D01*
X169067836Y-151034459D01*
X169232194Y-151144280D01*
X169371970Y-151284056D01*
X169481791Y-151448414D01*
X169557437Y-151631040D01*
X169596000Y-151824914D01*
X169596000Y-152022586D01*
X169557437Y-152216460D01*
X169481791Y-152399086D01*
X169371970Y-152563444D01*
X169232194Y-152703220D01*
X169067836Y-152813041D01*
X168885210Y-152888687D01*
X168718925Y-152921762D01*
X168691337Y-152927250D01*
X168493663Y-152927250D01*
X168466075Y-152921762D01*
X168299790Y-152888687D01*
X168117164Y-152813041D01*
X167952806Y-152703220D01*
X167813030Y-152563444D01*
X167703209Y-152399086D01*
X167627563Y-152216460D01*
X167589000Y-152022586D01*
X167589000Y-151824914D01*
X167627563Y-151631040D01*
X167703209Y-151448414D01*
X167813030Y-151284056D01*
X167952806Y-151144280D01*
X168117164Y-151034459D01*
X168299790Y-150958813D01*
X168466075Y-150925738D01*
X168493663Y-150920250D01*
X168691337Y-150920250D01*
X168718925Y-150925738D01*
X168718925Y-150925738D01*
G37*
G36*
X153086000Y-152927250D02*
G01*
X151079000Y-152927250D01*
X151079000Y-150920250D01*
X153086000Y-150920250D01*
X153086000Y-152927250D01*
X153086000Y-152927250D01*
G37*
G36*
X149668925Y-150925738D02*
G01*
X149835210Y-150958813D01*
X150017836Y-151034459D01*
X150182194Y-151144280D01*
X150321970Y-151284056D01*
X150431791Y-151448414D01*
X150507437Y-151631040D01*
X150546000Y-151824914D01*
X150546000Y-152022586D01*
X150507437Y-152216460D01*
X150431791Y-152399086D01*
X150321970Y-152563444D01*
X150182194Y-152703220D01*
X150017836Y-152813041D01*
X149835210Y-152888687D01*
X149668925Y-152921762D01*
X149641337Y-152927250D01*
X149443663Y-152927250D01*
X149416075Y-152921762D01*
X149249790Y-152888687D01*
X149067164Y-152813041D01*
X148902806Y-152703220D01*
X148763030Y-152563444D01*
X148653209Y-152399086D01*
X148577563Y-152216460D01*
X148539000Y-152022586D01*
X148539000Y-151824914D01*
X148577563Y-151631040D01*
X148653209Y-151448414D01*
X148763030Y-151284056D01*
X148902806Y-151144280D01*
X149067164Y-151034459D01*
X149249790Y-150958813D01*
X149416075Y-150925738D01*
X149443663Y-150920250D01*
X149641337Y-150920250D01*
X149668925Y-150925738D01*
X149668925Y-150925738D01*
G37*
G36*
X172136000Y-152927250D02*
G01*
X170129000Y-152927250D01*
X170129000Y-150920250D01*
X172136000Y-150920250D01*
X172136000Y-152927250D01*
X172136000Y-152927250D01*
G37*
G36*
X110488500Y-150094750D02*
G01*
X108586500Y-150094750D01*
X108586500Y-148892750D01*
X110488500Y-148892750D01*
X110488500Y-150094750D01*
X110488500Y-150094750D01*
G37*
G36*
X104288500Y-150094750D02*
G01*
X102386500Y-150094750D01*
X102386500Y-148892750D01*
X104288500Y-148892750D01*
X104288500Y-150094750D01*
X104288500Y-150094750D01*
G37*
G36*
X178451000Y-148994750D02*
G01*
X177149000Y-148994750D01*
X177149000Y-147992750D01*
X178451000Y-147992750D01*
X178451000Y-148994750D01*
X178451000Y-148994750D01*
G37*
G36*
X159401000Y-148994750D02*
G01*
X158099000Y-148994750D01*
X158099000Y-147992750D01*
X159401000Y-147992750D01*
X159401000Y-148994750D01*
X159401000Y-148994750D01*
G37*
G36*
X132705968Y-147430815D02*
G01*
X132744638Y-147442546D01*
X132780277Y-147461596D01*
X132811517Y-147487233D01*
X132837154Y-147518473D01*
X132856204Y-147554112D01*
X132867935Y-147592782D01*
X132872500Y-147639138D01*
X132872500Y-148715362D01*
X132867935Y-148761718D01*
X132856204Y-148800388D01*
X132837154Y-148836027D01*
X132811517Y-148867267D01*
X132780277Y-148892904D01*
X132744638Y-148911954D01*
X132705968Y-148923685D01*
X132659612Y-148928250D01*
X132008388Y-148928250D01*
X131962032Y-148923685D01*
X131923362Y-148911954D01*
X131887723Y-148892904D01*
X131856483Y-148867267D01*
X131830846Y-148836027D01*
X131811796Y-148800388D01*
X131800065Y-148761718D01*
X131795500Y-148715362D01*
X131795500Y-147639138D01*
X131800065Y-147592782D01*
X131811796Y-147554112D01*
X131830846Y-147518473D01*
X131856483Y-147487233D01*
X131887723Y-147461596D01*
X131923362Y-147442546D01*
X131962032Y-147430815D01*
X132008388Y-147426250D01*
X132659612Y-147426250D01*
X132705968Y-147430815D01*
X132705968Y-147430815D01*
G37*
G36*
X134580968Y-147430815D02*
G01*
X134619638Y-147442546D01*
X134655277Y-147461596D01*
X134686517Y-147487233D01*
X134712154Y-147518473D01*
X134731204Y-147554112D01*
X134742935Y-147592782D01*
X134747500Y-147639138D01*
X134747500Y-148715362D01*
X134742935Y-148761718D01*
X134731204Y-148800388D01*
X134712154Y-148836027D01*
X134686517Y-148867267D01*
X134655277Y-148892904D01*
X134619638Y-148911954D01*
X134580968Y-148923685D01*
X134534612Y-148928250D01*
X133883388Y-148928250D01*
X133837032Y-148923685D01*
X133798362Y-148911954D01*
X133762723Y-148892904D01*
X133731483Y-148867267D01*
X133705846Y-148836027D01*
X133686796Y-148800388D01*
X133675065Y-148761718D01*
X133670500Y-148715362D01*
X133670500Y-147639138D01*
X133675065Y-147592782D01*
X133686796Y-147554112D01*
X133705846Y-147518473D01*
X133731483Y-147487233D01*
X133762723Y-147461596D01*
X133798362Y-147442546D01*
X133837032Y-147430815D01*
X133883388Y-147426250D01*
X134534612Y-147426250D01*
X134580968Y-147430815D01*
X134580968Y-147430815D01*
G37*
G36*
X170458974Y-144877434D02*
G01*
X170676974Y-144967733D01*
X170831123Y-145031583D01*
X171166048Y-145255373D01*
X171450877Y-145540202D01*
X171674667Y-145875127D01*
X171707062Y-145953336D01*
X171828816Y-146247276D01*
X171907400Y-146642344D01*
X171907400Y-147045156D01*
X171828816Y-147440224D01*
X171777951Y-147563022D01*
X171674667Y-147812373D01*
X171450877Y-148147298D01*
X171166048Y-148432127D01*
X170831123Y-148655917D01*
X170687609Y-148715362D01*
X170458974Y-148810066D01*
X170063906Y-148888650D01*
X169661094Y-148888650D01*
X169266026Y-148810066D01*
X169037391Y-148715362D01*
X168893877Y-148655917D01*
X168558952Y-148432127D01*
X168274123Y-148147298D01*
X168050333Y-147812373D01*
X167947049Y-147563022D01*
X167896184Y-147440224D01*
X167817600Y-147045156D01*
X167817600Y-146642344D01*
X167896184Y-146247276D01*
X168017938Y-145953336D01*
X168050333Y-145875127D01*
X168274123Y-145540202D01*
X168558952Y-145255373D01*
X168893877Y-145031583D01*
X169048026Y-144967733D01*
X169266026Y-144877434D01*
X169661094Y-144798850D01*
X170063906Y-144798850D01*
X170458974Y-144877434D01*
X170458974Y-144877434D01*
G37*
G36*
X151408974Y-144877434D02*
G01*
X151626974Y-144967733D01*
X151781123Y-145031583D01*
X152116048Y-145255373D01*
X152400877Y-145540202D01*
X152624667Y-145875127D01*
X152657062Y-145953336D01*
X152778816Y-146247276D01*
X152857400Y-146642344D01*
X152857400Y-147045156D01*
X152778816Y-147440224D01*
X152727951Y-147563022D01*
X152624667Y-147812373D01*
X152400877Y-148147298D01*
X152116048Y-148432127D01*
X151781123Y-148655917D01*
X151637609Y-148715362D01*
X151408974Y-148810066D01*
X151013906Y-148888650D01*
X150611094Y-148888650D01*
X150216026Y-148810066D01*
X149987391Y-148715362D01*
X149843877Y-148655917D01*
X149508952Y-148432127D01*
X149224123Y-148147298D01*
X149000333Y-147812373D01*
X148897049Y-147563022D01*
X148846184Y-147440224D01*
X148767600Y-147045156D01*
X148767600Y-146642344D01*
X148846184Y-146247276D01*
X148967938Y-145953336D01*
X149000333Y-145875127D01*
X149224123Y-145540202D01*
X149508952Y-145255373D01*
X149843877Y-145031583D01*
X149998026Y-144967733D01*
X150216026Y-144877434D01*
X150611094Y-144798850D01*
X151013906Y-144798850D01*
X151408974Y-144877434D01*
X151408974Y-144877434D01*
G37*
G36*
X156162604Y-145953335D02*
G01*
X156331126Y-146023139D01*
X156482791Y-146124478D01*
X156611772Y-146253459D01*
X156713111Y-146405124D01*
X156782915Y-146573646D01*
X156818500Y-146752547D01*
X156818500Y-146934953D01*
X156782915Y-147113854D01*
X156713111Y-147282376D01*
X156611772Y-147434041D01*
X156482791Y-147563022D01*
X156331126Y-147664361D01*
X156162604Y-147734165D01*
X155983703Y-147769750D01*
X155801297Y-147769750D01*
X155622396Y-147734165D01*
X155453874Y-147664361D01*
X155302209Y-147563022D01*
X155173228Y-147434041D01*
X155071889Y-147282376D01*
X155002085Y-147113854D01*
X154966500Y-146934953D01*
X154966500Y-146752547D01*
X155002085Y-146573646D01*
X155071889Y-146405124D01*
X155173228Y-146253459D01*
X155302209Y-146124478D01*
X155453874Y-146023139D01*
X155622396Y-145953335D01*
X155801297Y-145917750D01*
X155983703Y-145917750D01*
X156162604Y-145953335D01*
X156162604Y-145953335D01*
G37*
G36*
X175212604Y-145953335D02*
G01*
X175381126Y-146023139D01*
X175532791Y-146124478D01*
X175661772Y-146253459D01*
X175763111Y-146405124D01*
X175832915Y-146573646D01*
X175868500Y-146752547D01*
X175868500Y-146934953D01*
X175832915Y-147113854D01*
X175763111Y-147282376D01*
X175661772Y-147434041D01*
X175532791Y-147563022D01*
X175381126Y-147664361D01*
X175212604Y-147734165D01*
X175033703Y-147769750D01*
X174851297Y-147769750D01*
X174672396Y-147734165D01*
X174503874Y-147664361D01*
X174352209Y-147563022D01*
X174223228Y-147434041D01*
X174121889Y-147282376D01*
X174052085Y-147113854D01*
X174016500Y-146934953D01*
X174016500Y-146752547D01*
X174052085Y-146573646D01*
X174121889Y-146405124D01*
X174223228Y-146253459D01*
X174352209Y-146124478D01*
X174503874Y-146023139D01*
X174672396Y-145953335D01*
X174851297Y-145917750D01*
X175033703Y-145917750D01*
X175212604Y-145953335D01*
X175212604Y-145953335D01*
G37*
G36*
X165052604Y-145953335D02*
G01*
X165221126Y-146023139D01*
X165372791Y-146124478D01*
X165501772Y-146253459D01*
X165603111Y-146405124D01*
X165672915Y-146573646D01*
X165708500Y-146752547D01*
X165708500Y-146934953D01*
X165672915Y-147113854D01*
X165603111Y-147282376D01*
X165501772Y-147434041D01*
X165372791Y-147563022D01*
X165221126Y-147664361D01*
X165052604Y-147734165D01*
X164873703Y-147769750D01*
X164691297Y-147769750D01*
X164512396Y-147734165D01*
X164343874Y-147664361D01*
X164192209Y-147563022D01*
X164063228Y-147434041D01*
X163961889Y-147282376D01*
X163892085Y-147113854D01*
X163856500Y-146934953D01*
X163856500Y-146752547D01*
X163892085Y-146573646D01*
X163961889Y-146405124D01*
X164063228Y-146253459D01*
X164192209Y-146124478D01*
X164343874Y-146023139D01*
X164512396Y-145953335D01*
X164691297Y-145917750D01*
X164873703Y-145917750D01*
X165052604Y-145953335D01*
X165052604Y-145953335D01*
G37*
G36*
X146002604Y-145953335D02*
G01*
X146171126Y-146023139D01*
X146322791Y-146124478D01*
X146451772Y-146253459D01*
X146553111Y-146405124D01*
X146622915Y-146573646D01*
X146658500Y-146752547D01*
X146658500Y-146934953D01*
X146622915Y-147113854D01*
X146553111Y-147282376D01*
X146451772Y-147434041D01*
X146322791Y-147563022D01*
X146171126Y-147664361D01*
X146002604Y-147734165D01*
X145823703Y-147769750D01*
X145641297Y-147769750D01*
X145462396Y-147734165D01*
X145293874Y-147664361D01*
X145142209Y-147563022D01*
X145013228Y-147434041D01*
X144911889Y-147282376D01*
X144842085Y-147113854D01*
X144806500Y-146934953D01*
X144806500Y-146752547D01*
X144842085Y-146573646D01*
X144911889Y-146405124D01*
X145013228Y-146253459D01*
X145142209Y-146124478D01*
X145293874Y-146023139D01*
X145462396Y-145953335D01*
X145641297Y-145917750D01*
X145823703Y-145917750D01*
X146002604Y-145953335D01*
X146002604Y-145953335D01*
G37*
G36*
X120440718Y-146453565D02*
G01*
X120479388Y-146465296D01*
X120515027Y-146484346D01*
X120546267Y-146509983D01*
X120571904Y-146541223D01*
X120590954Y-146576862D01*
X120602685Y-146615532D01*
X120607250Y-146661888D01*
X120607250Y-147313112D01*
X120602685Y-147359468D01*
X120590954Y-147398138D01*
X120571904Y-147433777D01*
X120546267Y-147465017D01*
X120515027Y-147490654D01*
X120479388Y-147509704D01*
X120440718Y-147521435D01*
X120394362Y-147526000D01*
X119318138Y-147526000D01*
X119271782Y-147521435D01*
X119233112Y-147509704D01*
X119197473Y-147490654D01*
X119166233Y-147465017D01*
X119140596Y-147433777D01*
X119121546Y-147398138D01*
X119109815Y-147359468D01*
X119105250Y-147313112D01*
X119105250Y-146661888D01*
X119109815Y-146615532D01*
X119121546Y-146576862D01*
X119140596Y-146541223D01*
X119166233Y-146509983D01*
X119197473Y-146484346D01*
X119233112Y-146465296D01*
X119271782Y-146453565D01*
X119318138Y-146449000D01*
X120394362Y-146449000D01*
X120440718Y-146453565D01*
X120440718Y-146453565D01*
G37*
G36*
X139490718Y-144722315D02*
G01*
X139529388Y-144734046D01*
X139565027Y-144753096D01*
X139596267Y-144778733D01*
X139621904Y-144809973D01*
X139640954Y-144845612D01*
X139652685Y-144884282D01*
X139657250Y-144930638D01*
X139657250Y-145581862D01*
X139652685Y-145628218D01*
X139640954Y-145666888D01*
X139621904Y-145702527D01*
X139596267Y-145733767D01*
X139565027Y-145759404D01*
X139529388Y-145778454D01*
X139490718Y-145790185D01*
X139444362Y-145794750D01*
X138368138Y-145794750D01*
X138321782Y-145790185D01*
X138283112Y-145778454D01*
X138247473Y-145759404D01*
X138216233Y-145733767D01*
X138190596Y-145702527D01*
X138171546Y-145666888D01*
X138159815Y-145628218D01*
X138155250Y-145581862D01*
X138155250Y-144930638D01*
X138159815Y-144884282D01*
X138171546Y-144845612D01*
X138190596Y-144809973D01*
X138216233Y-144778733D01*
X138247473Y-144753096D01*
X138283112Y-144734046D01*
X138321782Y-144722315D01*
X138368138Y-144717750D01*
X139444362Y-144717750D01*
X139490718Y-144722315D01*
X139490718Y-144722315D01*
G37*
G36*
X178451000Y-145694750D02*
G01*
X177149000Y-145694750D01*
X177149000Y-144692750D01*
X178451000Y-144692750D01*
X178451000Y-145694750D01*
X178451000Y-145694750D01*
G37*
G36*
X159401000Y-145694750D02*
G01*
X158099000Y-145694750D01*
X158099000Y-144692750D01*
X159401000Y-144692750D01*
X159401000Y-145694750D01*
X159401000Y-145694750D01*
G37*
G36*
X133739000Y-145661250D02*
G01*
X125087000Y-145661250D01*
X125087000Y-144059250D01*
X133739000Y-144059250D01*
X133739000Y-145661250D01*
X133739000Y-145661250D01*
G37*
G36*
X120440718Y-144578565D02*
G01*
X120479388Y-144590296D01*
X120515027Y-144609346D01*
X120546267Y-144634983D01*
X120571904Y-144666223D01*
X120590954Y-144701862D01*
X120602685Y-144740532D01*
X120607250Y-144786888D01*
X120607250Y-145438112D01*
X120602685Y-145484468D01*
X120590954Y-145523138D01*
X120571904Y-145558777D01*
X120546267Y-145590017D01*
X120515027Y-145615654D01*
X120479388Y-145634704D01*
X120440718Y-145646435D01*
X120394362Y-145651000D01*
X119318138Y-145651000D01*
X119271782Y-145646435D01*
X119233112Y-145634704D01*
X119197473Y-145615654D01*
X119166233Y-145590017D01*
X119140596Y-145558777D01*
X119121546Y-145523138D01*
X119109815Y-145484468D01*
X119105250Y-145438112D01*
X119105250Y-144786888D01*
X119109815Y-144740532D01*
X119121546Y-144701862D01*
X119140596Y-144666223D01*
X119166233Y-144634983D01*
X119197473Y-144609346D01*
X119233112Y-144590296D01*
X119271782Y-144578565D01*
X119318138Y-144574000D01*
X120394362Y-144574000D01*
X120440718Y-144578565D01*
X120440718Y-144578565D01*
G37*
G36*
X148335705Y-141667631D02*
G01*
X148341145Y-141667750D01*
X148428328Y-141667750D01*
X148444597Y-141670986D01*
X148463456Y-141673265D01*
X148480032Y-141673996D01*
X148564723Y-141694760D01*
X148570018Y-141695934D01*
X148655527Y-141712943D01*
X148670862Y-141719295D01*
X148688901Y-141725205D01*
X148705021Y-141729157D01*
X148784004Y-141766030D01*
X148788994Y-141768227D01*
X148869545Y-141801592D01*
X148883341Y-141810810D01*
X148899893Y-141820132D01*
X148914926Y-141827150D01*
X148985194Y-141878721D01*
X148989692Y-141881872D01*
X149062156Y-141930291D01*
X149073883Y-141942018D01*
X149088309Y-141954398D01*
X149101679Y-141964211D01*
X149101680Y-141964212D01*
X149160521Y-142028483D01*
X149164329Y-142032464D01*
X149225959Y-142094094D01*
X149235174Y-142107885D01*
X149246896Y-142122828D01*
X149258105Y-142135071D01*
X149303299Y-142209624D01*
X149306246Y-142214251D01*
X149354658Y-142286705D01*
X149361005Y-142302027D01*
X149369592Y-142318981D01*
X149378191Y-142333167D01*
X149407978Y-142415118D01*
X149409952Y-142420198D01*
X149443307Y-142500723D01*
X149443307Y-142500724D01*
X149446541Y-142516983D01*
X149451658Y-142535292D01*
X149457325Y-142550884D01*
X149470555Y-142637095D01*
X149471501Y-142642463D01*
X149488500Y-142727923D01*
X149488500Y-142744502D01*
X149489944Y-142763442D01*
X149492463Y-142779854D01*
X149488620Y-142866999D01*
X149488500Y-142872439D01*
X149488500Y-142959576D01*
X149487936Y-142962413D01*
X149485266Y-142975833D01*
X149482988Y-142994691D01*
X149482256Y-143011281D01*
X149461488Y-143095987D01*
X149460312Y-143101287D01*
X149443307Y-143186777D01*
X149436957Y-143202107D01*
X149431049Y-143220143D01*
X149427095Y-143236270D01*
X149390211Y-143315276D01*
X149388011Y-143320273D01*
X149354658Y-143400795D01*
X149345444Y-143414585D01*
X149336122Y-143431137D01*
X149329102Y-143446174D01*
X149277511Y-143516470D01*
X149274366Y-143520960D01*
X149225961Y-143593404D01*
X149168960Y-143650405D01*
X149164311Y-143655313D01*
X148801874Y-144059250D01*
X147839223Y-145132126D01*
X147711179Y-145249352D01*
X147612130Y-145309396D01*
X147513083Y-145369439D01*
X147295366Y-145448573D01*
X147066395Y-145483711D01*
X146834970Y-145473504D01*
X146609981Y-145418343D01*
X146505227Y-145369439D01*
X146400079Y-145320352D01*
X146303338Y-145249352D01*
X146213323Y-145183289D01*
X146138894Y-145101991D01*
X146056898Y-145012429D01*
X145975064Y-144877435D01*
X145936811Y-144814333D01*
X145857677Y-144596616D01*
X145822539Y-144367645D01*
X145832746Y-144136220D01*
X145887907Y-143911231D01*
X145943622Y-143791888D01*
X145985898Y-143701330D01*
X145985900Y-143701327D01*
X146088614Y-143561372D01*
X146843745Y-142719777D01*
X147375287Y-142127371D01*
X147386181Y-142113339D01*
X147399039Y-142094096D01*
X147456073Y-142037062D01*
X147460723Y-142032153D01*
X147475778Y-142015374D01*
X147497201Y-141995761D01*
X147501182Y-141991953D01*
X147562846Y-141930289D01*
X147576643Y-141921070D01*
X147591602Y-141909335D01*
X147603821Y-141898148D01*
X147635885Y-141878711D01*
X147678330Y-141852981D01*
X147682921Y-141850058D01*
X147755455Y-141801592D01*
X147770800Y-141795236D01*
X147787748Y-141786651D01*
X147801916Y-141778062D01*
X147801917Y-141778062D01*
X147801918Y-141778061D01*
X147883812Y-141748295D01*
X147888910Y-141746313D01*
X147969473Y-141712943D01*
X147985752Y-141709705D01*
X148004042Y-141704594D01*
X148019635Y-141698927D01*
X148105800Y-141685704D01*
X148111163Y-141684759D01*
X148196673Y-141667750D01*
X148213266Y-141667750D01*
X148232209Y-141666305D01*
X148248606Y-141663789D01*
X148335705Y-141667631D01*
X148335705Y-141667631D01*
G37*
G36*
X167385705Y-141667631D02*
G01*
X167391145Y-141667750D01*
X167478328Y-141667750D01*
X167494597Y-141670986D01*
X167513456Y-141673265D01*
X167530032Y-141673996D01*
X167614723Y-141694760D01*
X167620018Y-141695934D01*
X167705527Y-141712943D01*
X167720862Y-141719295D01*
X167738901Y-141725205D01*
X167755021Y-141729157D01*
X167834004Y-141766030D01*
X167838994Y-141768227D01*
X167919545Y-141801592D01*
X167933341Y-141810810D01*
X167949893Y-141820132D01*
X167964926Y-141827150D01*
X168035194Y-141878721D01*
X168039692Y-141881872D01*
X168112156Y-141930291D01*
X168123883Y-141942018D01*
X168138309Y-141954398D01*
X168151679Y-141964211D01*
X168151680Y-141964212D01*
X168210521Y-142028483D01*
X168214329Y-142032464D01*
X168275959Y-142094094D01*
X168285174Y-142107885D01*
X168296896Y-142122828D01*
X168308105Y-142135071D01*
X168353299Y-142209624D01*
X168356246Y-142214251D01*
X168404658Y-142286705D01*
X168411005Y-142302027D01*
X168419592Y-142318981D01*
X168428191Y-142333167D01*
X168457978Y-142415118D01*
X168459952Y-142420198D01*
X168493307Y-142500723D01*
X168493307Y-142500724D01*
X168496541Y-142516983D01*
X168501658Y-142535292D01*
X168507325Y-142550884D01*
X168520555Y-142637095D01*
X168521501Y-142642463D01*
X168538500Y-142727923D01*
X168538500Y-142744502D01*
X168539944Y-142763442D01*
X168542463Y-142779854D01*
X168538620Y-142866999D01*
X168538500Y-142872439D01*
X168538500Y-142959576D01*
X168537936Y-142962413D01*
X168535266Y-142975833D01*
X168532988Y-142994691D01*
X168532256Y-143011281D01*
X168511488Y-143095987D01*
X168510312Y-143101287D01*
X168493307Y-143186777D01*
X168486957Y-143202107D01*
X168481049Y-143220143D01*
X168477095Y-143236270D01*
X168440211Y-143315276D01*
X168438011Y-143320273D01*
X168404658Y-143400795D01*
X168395444Y-143414585D01*
X168386122Y-143431137D01*
X168379102Y-143446174D01*
X168327511Y-143516470D01*
X168324366Y-143520960D01*
X168275961Y-143593404D01*
X168218960Y-143650405D01*
X168214311Y-143655313D01*
X167851874Y-144059250D01*
X166889223Y-145132126D01*
X166761179Y-145249352D01*
X166662130Y-145309396D01*
X166563083Y-145369439D01*
X166345366Y-145448573D01*
X166116395Y-145483711D01*
X165884970Y-145473504D01*
X165659981Y-145418343D01*
X165555227Y-145369439D01*
X165450079Y-145320352D01*
X165353338Y-145249352D01*
X165263323Y-145183289D01*
X165188894Y-145101991D01*
X165106898Y-145012429D01*
X165025064Y-144877435D01*
X164986811Y-144814333D01*
X164907677Y-144596616D01*
X164872539Y-144367645D01*
X164882746Y-144136220D01*
X164937907Y-143911231D01*
X164993622Y-143791888D01*
X165035898Y-143701330D01*
X165035900Y-143701327D01*
X165138614Y-143561372D01*
X165893745Y-142719777D01*
X166425287Y-142127371D01*
X166436181Y-142113339D01*
X166449039Y-142094096D01*
X166506073Y-142037062D01*
X166510723Y-142032153D01*
X166525778Y-142015374D01*
X166547201Y-141995761D01*
X166551182Y-141991953D01*
X166612846Y-141930289D01*
X166626643Y-141921070D01*
X166641602Y-141909335D01*
X166653821Y-141898148D01*
X166685885Y-141878711D01*
X166728330Y-141852981D01*
X166732921Y-141850058D01*
X166805455Y-141801592D01*
X166820800Y-141795236D01*
X166837748Y-141786651D01*
X166851916Y-141778062D01*
X166851917Y-141778062D01*
X166851918Y-141778061D01*
X166933812Y-141748295D01*
X166938910Y-141746313D01*
X167019473Y-141712943D01*
X167035752Y-141709705D01*
X167054042Y-141704594D01*
X167069635Y-141698927D01*
X167155800Y-141685704D01*
X167161163Y-141684759D01*
X167246673Y-141667750D01*
X167263266Y-141667750D01*
X167282209Y-141666305D01*
X167298606Y-141663789D01*
X167385705Y-141667631D01*
X167385705Y-141667631D01*
G37*
G36*
X139490718Y-142847315D02*
G01*
X139529388Y-142859046D01*
X139565027Y-142878096D01*
X139596267Y-142903733D01*
X139621904Y-142934973D01*
X139640954Y-142970612D01*
X139652685Y-143009282D01*
X139657250Y-143055638D01*
X139657250Y-143706862D01*
X139652685Y-143753218D01*
X139640954Y-143791888D01*
X139621904Y-143827527D01*
X139596267Y-143858767D01*
X139565027Y-143884404D01*
X139529388Y-143903454D01*
X139490718Y-143915185D01*
X139444362Y-143919750D01*
X138368138Y-143919750D01*
X138321782Y-143915185D01*
X138283112Y-143903454D01*
X138247473Y-143884404D01*
X138216233Y-143858767D01*
X138190596Y-143827527D01*
X138171546Y-143791888D01*
X138159815Y-143753218D01*
X138155250Y-143706862D01*
X138155250Y-143055638D01*
X138159815Y-143009282D01*
X138171546Y-142970612D01*
X138190596Y-142934973D01*
X138216233Y-142903733D01*
X138247473Y-142878096D01*
X138283112Y-142859046D01*
X138321782Y-142847315D01*
X138368138Y-142842750D01*
X139444362Y-142842750D01*
X139490718Y-142847315D01*
X139490718Y-142847315D01*
G37*
G36*
X172490627Y-140586011D02*
G01*
X172511400Y-140587750D01*
X172518327Y-140587750D01*
X172613254Y-140606632D01*
X172616848Y-140607292D01*
X172712230Y-140623374D01*
X172718703Y-140625835D01*
X172738728Y-140631591D01*
X172745527Y-140632943D01*
X172807914Y-140658784D01*
X172834943Y-140669980D01*
X172838344Y-140671331D01*
X172928755Y-140705711D01*
X172934627Y-140709390D01*
X172953136Y-140718937D01*
X172959545Y-140721592D01*
X173040063Y-140775392D01*
X173043054Y-140777328D01*
X173125057Y-140828709D01*
X173130084Y-140833450D01*
X173146396Y-140846441D01*
X173152152Y-140850287D01*
X173220610Y-140918745D01*
X173223189Y-140921249D01*
X173293590Y-140987639D01*
X173297595Y-140993269D01*
X173311059Y-141009194D01*
X173315959Y-141014094D01*
X173369744Y-141094589D01*
X173371791Y-141097557D01*
X173427880Y-141176395D01*
X173430714Y-141182708D01*
X173440808Y-141200943D01*
X173444658Y-141206705D01*
X173481720Y-141296180D01*
X173483124Y-141299435D01*
X173522765Y-141387723D01*
X173524315Y-141394475D01*
X173530652Y-141414312D01*
X173533307Y-141420723D01*
X173552192Y-141515667D01*
X173552938Y-141519151D01*
X173574598Y-141613501D01*
X173574598Y-141613504D01*
X173574800Y-141620404D01*
X173577147Y-141641120D01*
X173578500Y-141647924D01*
X173578500Y-141744736D01*
X173578553Y-141748334D01*
X173579688Y-141787027D01*
X173578795Y-141799975D01*
X173578500Y-141808547D01*
X173578500Y-141879576D01*
X173572581Y-141909335D01*
X173572104Y-141911729D01*
X173570000Y-141927500D01*
X173531738Y-142482295D01*
X173502876Y-142653480D01*
X173420538Y-142870005D01*
X173297541Y-143066307D01*
X173138611Y-143234840D01*
X172949855Y-143369130D01*
X172738527Y-143464015D01*
X172512749Y-143515848D01*
X172281198Y-143522639D01*
X172281197Y-143522639D01*
X172235512Y-143514936D01*
X172052770Y-143484126D01*
X171836245Y-143401788D01*
X171639943Y-143278791D01*
X171471410Y-143119861D01*
X171337120Y-142931105D01*
X171242235Y-142719777D01*
X171190402Y-142493999D01*
X171185312Y-142320473D01*
X171226204Y-141727544D01*
X171226500Y-141718946D01*
X171226500Y-141647925D01*
X171245382Y-141553000D01*
X171246044Y-141549395D01*
X171251731Y-141515667D01*
X171262124Y-141454020D01*
X171264585Y-141447549D01*
X171270342Y-141427517D01*
X171271693Y-141420724D01*
X171274343Y-141414326D01*
X171308764Y-141331226D01*
X171310053Y-141327980D01*
X171344462Y-141237495D01*
X171348136Y-141231631D01*
X171357687Y-141213115D01*
X171360342Y-141206705D01*
X171414157Y-141126165D01*
X171416077Y-141123199D01*
X171467459Y-141041193D01*
X171472211Y-141036154D01*
X171485189Y-141019857D01*
X171489037Y-141014098D01*
X171557493Y-140945642D01*
X171560046Y-140943012D01*
X171580523Y-140921298D01*
X171626389Y-140872660D01*
X171632021Y-140868653D01*
X171647947Y-140855188D01*
X171652846Y-140850289D01*
X171733324Y-140796516D01*
X171736306Y-140794460D01*
X171815145Y-140738370D01*
X171821455Y-140735537D01*
X171839694Y-140725441D01*
X171845451Y-140721594D01*
X171845454Y-140721593D01*
X171845455Y-140721592D01*
X171934929Y-140684531D01*
X171938187Y-140683125D01*
X172026473Y-140643485D01*
X172033225Y-140641935D01*
X172053062Y-140635598D01*
X172059473Y-140632943D01*
X172154399Y-140614061D01*
X172157946Y-140613301D01*
X172252251Y-140591651D01*
X172254630Y-140591581D01*
X172259165Y-140591448D01*
X172279881Y-140589101D01*
X172286674Y-140587750D01*
X172383459Y-140587750D01*
X172387084Y-140587697D01*
X172483802Y-140584860D01*
X172490627Y-140586011D01*
X172490627Y-140586011D01*
G37*
G36*
X153440627Y-140586011D02*
G01*
X153461400Y-140587750D01*
X153468327Y-140587750D01*
X153563254Y-140606632D01*
X153566848Y-140607292D01*
X153662230Y-140623374D01*
X153668703Y-140625835D01*
X153688728Y-140631591D01*
X153695527Y-140632943D01*
X153757914Y-140658784D01*
X153784943Y-140669980D01*
X153788344Y-140671331D01*
X153878755Y-140705711D01*
X153884627Y-140709390D01*
X153903136Y-140718937D01*
X153909545Y-140721592D01*
X153990063Y-140775392D01*
X153993054Y-140777328D01*
X154075057Y-140828709D01*
X154080084Y-140833450D01*
X154096396Y-140846441D01*
X154102152Y-140850287D01*
X154170610Y-140918745D01*
X154173189Y-140921249D01*
X154243590Y-140987639D01*
X154247595Y-140993269D01*
X154261059Y-141009194D01*
X154265959Y-141014094D01*
X154319744Y-141094589D01*
X154321791Y-141097557D01*
X154377880Y-141176395D01*
X154380714Y-141182708D01*
X154390808Y-141200943D01*
X154394658Y-141206705D01*
X154431720Y-141296180D01*
X154433124Y-141299435D01*
X154472765Y-141387723D01*
X154474315Y-141394475D01*
X154480652Y-141414312D01*
X154483307Y-141420723D01*
X154502192Y-141515667D01*
X154502938Y-141519151D01*
X154524598Y-141613501D01*
X154524598Y-141613504D01*
X154524800Y-141620404D01*
X154527147Y-141641120D01*
X154528500Y-141647924D01*
X154528500Y-141744736D01*
X154528553Y-141748334D01*
X154529688Y-141787027D01*
X154528795Y-141799975D01*
X154528500Y-141808547D01*
X154528500Y-141879576D01*
X154522581Y-141909335D01*
X154522104Y-141911729D01*
X154520000Y-141927500D01*
X154481738Y-142482295D01*
X154452876Y-142653480D01*
X154370538Y-142870005D01*
X154247541Y-143066307D01*
X154088611Y-143234840D01*
X153899855Y-143369130D01*
X153688527Y-143464015D01*
X153462749Y-143515848D01*
X153231198Y-143522639D01*
X153231197Y-143522639D01*
X153185512Y-143514936D01*
X153002770Y-143484126D01*
X152786245Y-143401788D01*
X152589943Y-143278791D01*
X152421410Y-143119861D01*
X152287120Y-142931105D01*
X152192235Y-142719777D01*
X152140402Y-142493999D01*
X152135312Y-142320473D01*
X152176204Y-141727544D01*
X152176500Y-141718946D01*
X152176500Y-141647925D01*
X152195382Y-141553000D01*
X152196044Y-141549395D01*
X152201731Y-141515667D01*
X152212124Y-141454020D01*
X152214585Y-141447549D01*
X152220342Y-141427517D01*
X152221693Y-141420724D01*
X152224343Y-141414326D01*
X152258764Y-141331226D01*
X152260053Y-141327980D01*
X152294462Y-141237495D01*
X152298136Y-141231631D01*
X152307687Y-141213115D01*
X152310342Y-141206705D01*
X152364157Y-141126165D01*
X152366077Y-141123199D01*
X152417459Y-141041193D01*
X152422211Y-141036154D01*
X152435189Y-141019857D01*
X152439037Y-141014098D01*
X152507493Y-140945642D01*
X152510046Y-140943012D01*
X152530523Y-140921298D01*
X152576389Y-140872660D01*
X152582021Y-140868653D01*
X152597947Y-140855188D01*
X152602846Y-140850289D01*
X152683324Y-140796516D01*
X152686306Y-140794460D01*
X152765145Y-140738370D01*
X152771455Y-140735537D01*
X152789694Y-140725441D01*
X152795451Y-140721594D01*
X152795454Y-140721593D01*
X152795455Y-140721592D01*
X152884929Y-140684531D01*
X152888187Y-140683125D01*
X152976473Y-140643485D01*
X152983225Y-140641935D01*
X153003062Y-140635598D01*
X153009473Y-140632943D01*
X153104399Y-140614061D01*
X153107946Y-140613301D01*
X153202251Y-140591651D01*
X153204630Y-140591581D01*
X153209165Y-140591448D01*
X153229881Y-140589101D01*
X153236674Y-140587750D01*
X153333459Y-140587750D01*
X153337084Y-140587697D01*
X153433802Y-140584860D01*
X153440627Y-140586011D01*
X153440627Y-140586011D01*
G37*
G36*
X135914000Y-143486250D02*
G01*
X134312000Y-143486250D01*
X134312000Y-134834250D01*
X135914000Y-134834250D01*
X135914000Y-143486250D01*
X135914000Y-143486250D01*
G37*
G36*
X124514000Y-143486250D02*
G01*
X122912000Y-143486250D01*
X122912000Y-134834250D01*
X124514000Y-134834250D01*
X124514000Y-143486250D01*
X124514000Y-143486250D01*
G37*
G36*
X118353218Y-138159815D02*
G01*
X118391888Y-138171546D01*
X118427527Y-138190596D01*
X118458767Y-138216233D01*
X118484404Y-138247473D01*
X118503454Y-138283112D01*
X118515185Y-138321782D01*
X118519750Y-138368138D01*
X118519750Y-139444362D01*
X118515185Y-139490718D01*
X118503454Y-139529388D01*
X118484404Y-139565027D01*
X118458767Y-139596267D01*
X118427527Y-139621904D01*
X118391888Y-139640954D01*
X118353218Y-139652685D01*
X118306862Y-139657250D01*
X117655638Y-139657250D01*
X117609282Y-139652685D01*
X117570612Y-139640954D01*
X117534973Y-139621904D01*
X117503733Y-139596267D01*
X117478096Y-139565027D01*
X117459046Y-139529388D01*
X117447315Y-139490718D01*
X117442750Y-139444362D01*
X117442750Y-138368138D01*
X117447315Y-138321782D01*
X117459046Y-138283112D01*
X117478096Y-138247473D01*
X117503733Y-138216233D01*
X117534973Y-138190596D01*
X117570612Y-138171546D01*
X117609282Y-138159815D01*
X117655638Y-138155250D01*
X118306862Y-138155250D01*
X118353218Y-138159815D01*
X118353218Y-138159815D01*
G37*
G36*
X120228218Y-138159815D02*
G01*
X120266888Y-138171546D01*
X120302527Y-138190596D01*
X120333767Y-138216233D01*
X120359404Y-138247473D01*
X120378454Y-138283112D01*
X120390185Y-138321782D01*
X120394750Y-138368138D01*
X120394750Y-139444362D01*
X120390185Y-139490718D01*
X120378454Y-139529388D01*
X120359404Y-139565027D01*
X120333767Y-139596267D01*
X120302527Y-139621904D01*
X120266888Y-139640954D01*
X120228218Y-139652685D01*
X120181862Y-139657250D01*
X119530638Y-139657250D01*
X119484282Y-139652685D01*
X119445612Y-139640954D01*
X119409973Y-139621904D01*
X119378733Y-139596267D01*
X119353096Y-139565027D01*
X119334046Y-139529388D01*
X119322315Y-139490718D01*
X119317750Y-139444362D01*
X119317750Y-138368138D01*
X119322315Y-138321782D01*
X119334046Y-138283112D01*
X119353096Y-138247473D01*
X119378733Y-138216233D01*
X119409973Y-138190596D01*
X119445612Y-138171546D01*
X119484282Y-138159815D01*
X119530638Y-138155250D01*
X120181862Y-138155250D01*
X120228218Y-138159815D01*
X120228218Y-138159815D01*
G37*
G36*
X103956104Y-137253347D02*
G01*
X103992644Y-137264432D01*
X104026321Y-137282433D01*
X104055841Y-137306659D01*
X104080067Y-137336179D01*
X104098068Y-137369856D01*
X104109153Y-137406396D01*
X104113500Y-137450538D01*
X104113500Y-138399462D01*
X104109153Y-138443604D01*
X104098068Y-138480144D01*
X104080067Y-138513821D01*
X104055841Y-138543341D01*
X104026321Y-138567567D01*
X103992644Y-138585568D01*
X103956104Y-138596653D01*
X103911962Y-138601000D01*
X102463038Y-138601000D01*
X102418896Y-138596653D01*
X102382356Y-138585568D01*
X102348679Y-138567567D01*
X102319159Y-138543341D01*
X102294933Y-138513821D01*
X102276932Y-138480144D01*
X102265847Y-138443604D01*
X102261500Y-138399462D01*
X102261500Y-137450538D01*
X102265847Y-137406396D01*
X102276932Y-137369856D01*
X102294933Y-137336179D01*
X102319159Y-137306659D01*
X102348679Y-137282433D01*
X102382356Y-137264432D01*
X102418896Y-137253347D01*
X102463038Y-137249000D01*
X103911962Y-137249000D01*
X103956104Y-137253347D01*
X103956104Y-137253347D01*
G37*
G36*
X139268468Y-135802315D02*
G01*
X139307138Y-135814046D01*
X139342777Y-135833096D01*
X139374017Y-135858733D01*
X139399654Y-135889973D01*
X139418704Y-135925612D01*
X139430435Y-135964282D01*
X139435000Y-136010638D01*
X139435000Y-136661862D01*
X139430435Y-136708218D01*
X139418704Y-136746888D01*
X139399654Y-136782527D01*
X139374017Y-136813767D01*
X139342777Y-136839404D01*
X139307138Y-136858454D01*
X139268468Y-136870185D01*
X139222112Y-136874750D01*
X138145888Y-136874750D01*
X138099532Y-136870185D01*
X138060862Y-136858454D01*
X138025223Y-136839404D01*
X137993983Y-136813767D01*
X137968346Y-136782527D01*
X137949296Y-136746888D01*
X137937565Y-136708218D01*
X137933000Y-136661862D01*
X137933000Y-136010638D01*
X137937565Y-135964282D01*
X137949296Y-135925612D01*
X137968346Y-135889973D01*
X137993983Y-135858733D01*
X138025223Y-135833096D01*
X138060862Y-135814046D01*
X138099532Y-135802315D01*
X138145888Y-135797750D01*
X139222112Y-135797750D01*
X139268468Y-135802315D01*
X139268468Y-135802315D01*
G37*
G36*
X103956104Y-134453347D02*
G01*
X103992644Y-134464432D01*
X104026321Y-134482433D01*
X104055841Y-134506659D01*
X104080067Y-134536179D01*
X104098068Y-134569856D01*
X104109153Y-134606396D01*
X104113500Y-134650538D01*
X104113500Y-135599462D01*
X104109153Y-135643604D01*
X104098068Y-135680144D01*
X104080067Y-135713821D01*
X104055841Y-135743341D01*
X104026321Y-135767567D01*
X103992644Y-135785568D01*
X103956104Y-135796653D01*
X103911962Y-135801000D01*
X102463038Y-135801000D01*
X102418896Y-135796653D01*
X102382356Y-135785568D01*
X102348679Y-135767567D01*
X102319159Y-135743341D01*
X102294933Y-135713821D01*
X102276932Y-135680144D01*
X102265847Y-135643604D01*
X102261500Y-135599462D01*
X102261500Y-134650538D01*
X102265847Y-134606396D01*
X102276932Y-134569856D01*
X102294933Y-134536179D01*
X102319159Y-134506659D01*
X102348679Y-134482433D01*
X102382356Y-134464432D01*
X102418896Y-134453347D01*
X102463038Y-134449000D01*
X103911962Y-134449000D01*
X103956104Y-134453347D01*
X103956104Y-134453347D01*
G37*
G36*
X139268468Y-133927315D02*
G01*
X139307138Y-133939046D01*
X139342777Y-133958096D01*
X139374017Y-133983733D01*
X139399654Y-134014973D01*
X139418704Y-134050612D01*
X139430435Y-134089282D01*
X139435000Y-134135638D01*
X139435000Y-134786862D01*
X139430435Y-134833218D01*
X139418704Y-134871888D01*
X139399654Y-134907527D01*
X139374017Y-134938767D01*
X139342777Y-134964404D01*
X139307138Y-134983454D01*
X139268468Y-134995185D01*
X139222112Y-134999750D01*
X138145888Y-134999750D01*
X138099532Y-134995185D01*
X138060862Y-134983454D01*
X138025223Y-134964404D01*
X137993983Y-134938767D01*
X137968346Y-134907527D01*
X137949296Y-134871888D01*
X137937565Y-134833218D01*
X137933000Y-134786862D01*
X137933000Y-134135638D01*
X137937565Y-134089282D01*
X137949296Y-134050612D01*
X137968346Y-134014973D01*
X137993983Y-133983733D01*
X138025223Y-133958096D01*
X138060862Y-133939046D01*
X138099532Y-133927315D01*
X138145888Y-133922750D01*
X139222112Y-133922750D01*
X139268468Y-133927315D01*
X139268468Y-133927315D01*
G37*
G36*
X133739000Y-134261250D02*
G01*
X125087000Y-134261250D01*
X125087000Y-132659250D01*
X133739000Y-132659250D01*
X133739000Y-134261250D01*
X133739000Y-134261250D01*
G37*
G36*
X168705162Y-131873000D02*
G01*
X168885210Y-131908813D01*
X169067836Y-131984459D01*
X169232194Y-132094280D01*
X169371970Y-132234056D01*
X169481791Y-132398414D01*
X169557437Y-132581040D01*
X169596000Y-132774914D01*
X169596000Y-132972586D01*
X169557437Y-133166460D01*
X169481791Y-133349086D01*
X169371970Y-133513444D01*
X169232194Y-133653220D01*
X169067836Y-133763041D01*
X168885210Y-133838687D01*
X168718925Y-133871762D01*
X168691337Y-133877250D01*
X168493663Y-133877250D01*
X168466075Y-133871762D01*
X168299790Y-133838687D01*
X168117164Y-133763041D01*
X167952806Y-133653220D01*
X167813030Y-133513444D01*
X167703209Y-133349086D01*
X167627563Y-133166460D01*
X167589000Y-132972586D01*
X167589000Y-132774914D01*
X167627563Y-132581040D01*
X167703209Y-132398414D01*
X167813030Y-132234056D01*
X167952806Y-132094280D01*
X168117164Y-131984459D01*
X168299790Y-131908813D01*
X168479838Y-131873000D01*
X168493663Y-131870250D01*
X168691337Y-131870250D01*
X168705162Y-131873000D01*
X168705162Y-131873000D01*
G37*
G36*
X149655162Y-131873000D02*
G01*
X149835210Y-131908813D01*
X150017836Y-131984459D01*
X150182194Y-132094280D01*
X150321970Y-132234056D01*
X150431791Y-132398414D01*
X150507437Y-132581040D01*
X150546000Y-132774914D01*
X150546000Y-132972586D01*
X150507437Y-133166460D01*
X150431791Y-133349086D01*
X150321970Y-133513444D01*
X150182194Y-133653220D01*
X150017836Y-133763041D01*
X149835210Y-133838687D01*
X149668925Y-133871762D01*
X149641337Y-133877250D01*
X149443663Y-133877250D01*
X149416075Y-133871762D01*
X149249790Y-133838687D01*
X149067164Y-133763041D01*
X148902806Y-133653220D01*
X148763030Y-133513444D01*
X148653209Y-133349086D01*
X148577563Y-133166460D01*
X148539000Y-132972586D01*
X148539000Y-132774914D01*
X148577563Y-132581040D01*
X148653209Y-132398414D01*
X148763030Y-132234056D01*
X148902806Y-132094280D01*
X149067164Y-131984459D01*
X149249790Y-131908813D01*
X149429838Y-131873000D01*
X149443663Y-131870250D01*
X149641337Y-131870250D01*
X149655162Y-131873000D01*
X149655162Y-131873000D01*
G37*
G36*
X172136000Y-133877250D02*
G01*
X170129000Y-133877250D01*
X170129000Y-131870250D01*
X172136000Y-131870250D01*
X172136000Y-133877250D01*
X172136000Y-133877250D01*
G37*
G36*
X153086000Y-133877250D02*
G01*
X151079000Y-133877250D01*
X151079000Y-131870250D01*
X153086000Y-131870250D01*
X153086000Y-133877250D01*
X153086000Y-133877250D01*
G37*
G36*
X118789718Y-131118315D02*
G01*
X118828388Y-131130046D01*
X118864027Y-131149096D01*
X118895267Y-131174733D01*
X118920904Y-131205973D01*
X118939954Y-131241612D01*
X118951685Y-131280282D01*
X118956250Y-131326638D01*
X118956250Y-131977862D01*
X118951685Y-132024218D01*
X118939954Y-132062888D01*
X118920904Y-132098527D01*
X118895267Y-132129767D01*
X118864027Y-132155404D01*
X118828388Y-132174454D01*
X118789718Y-132186185D01*
X118743362Y-132190750D01*
X117667138Y-132190750D01*
X117620782Y-132186185D01*
X117582112Y-132174454D01*
X117546473Y-132155404D01*
X117515233Y-132129767D01*
X117489596Y-132098527D01*
X117470546Y-132062888D01*
X117458815Y-132024218D01*
X117454250Y-131977862D01*
X117454250Y-131326638D01*
X117458815Y-131280282D01*
X117470546Y-131241612D01*
X117489596Y-131205973D01*
X117515233Y-131174733D01*
X117546473Y-131149096D01*
X117582112Y-131130046D01*
X117620782Y-131118315D01*
X117667138Y-131113750D01*
X118743362Y-131113750D01*
X118789718Y-131118315D01*
X118789718Y-131118315D01*
G37*
G36*
X121837718Y-131069815D02*
G01*
X121876388Y-131081546D01*
X121912027Y-131100596D01*
X121943267Y-131126233D01*
X121968904Y-131157473D01*
X121987954Y-131193112D01*
X121999685Y-131231782D01*
X122004250Y-131278138D01*
X122004250Y-131929362D01*
X121999685Y-131975718D01*
X121987954Y-132014388D01*
X121968904Y-132050027D01*
X121943267Y-132081267D01*
X121912027Y-132106904D01*
X121876388Y-132125954D01*
X121837718Y-132137685D01*
X121791362Y-132142250D01*
X120715138Y-132142250D01*
X120668782Y-132137685D01*
X120630112Y-132125954D01*
X120594473Y-132106904D01*
X120563233Y-132081267D01*
X120537596Y-132050027D01*
X120518546Y-132014388D01*
X120506815Y-131975718D01*
X120502250Y-131929362D01*
X120502250Y-131278138D01*
X120506815Y-131231782D01*
X120518546Y-131193112D01*
X120537596Y-131157473D01*
X120563233Y-131126233D01*
X120594473Y-131100596D01*
X120630112Y-131081546D01*
X120668782Y-131069815D01*
X120715138Y-131065250D01*
X121791362Y-131065250D01*
X121837718Y-131069815D01*
X121837718Y-131069815D01*
G37*
G36*
X110121968Y-130722315D02*
G01*
X110160638Y-130734046D01*
X110196277Y-130753096D01*
X110227517Y-130778733D01*
X110253154Y-130809973D01*
X110272204Y-130845612D01*
X110283935Y-130884282D01*
X110288500Y-130930638D01*
X110288500Y-131581862D01*
X110283935Y-131628218D01*
X110272204Y-131666888D01*
X110253154Y-131702527D01*
X110227517Y-131733767D01*
X110196277Y-131759404D01*
X110160638Y-131778454D01*
X110121968Y-131790185D01*
X110075612Y-131794750D01*
X108999388Y-131794750D01*
X108953032Y-131790185D01*
X108914362Y-131778454D01*
X108878723Y-131759404D01*
X108847483Y-131733767D01*
X108821846Y-131702527D01*
X108802796Y-131666888D01*
X108791065Y-131628218D01*
X108786500Y-131581862D01*
X108786500Y-130930638D01*
X108791065Y-130884282D01*
X108802796Y-130845612D01*
X108821846Y-130809973D01*
X108847483Y-130778733D01*
X108878723Y-130753096D01*
X108914362Y-130734046D01*
X108953032Y-130722315D01*
X108999388Y-130717750D01*
X110075612Y-130717750D01*
X110121968Y-130722315D01*
X110121968Y-130722315D01*
G37*
G36*
X106153218Y-130722315D02*
G01*
X106191888Y-130734046D01*
X106227527Y-130753096D01*
X106258767Y-130778733D01*
X106284404Y-130809973D01*
X106303454Y-130845612D01*
X106315185Y-130884282D01*
X106319750Y-130930638D01*
X106319750Y-131581862D01*
X106315185Y-131628218D01*
X106303454Y-131666888D01*
X106284404Y-131702527D01*
X106258767Y-131733767D01*
X106227527Y-131759404D01*
X106191888Y-131778454D01*
X106153218Y-131790185D01*
X106106862Y-131794750D01*
X105030638Y-131794750D01*
X104984282Y-131790185D01*
X104945612Y-131778454D01*
X104909973Y-131759404D01*
X104878733Y-131733767D01*
X104853096Y-131702527D01*
X104834046Y-131666888D01*
X104822315Y-131628218D01*
X104817750Y-131581862D01*
X104817750Y-130930638D01*
X104822315Y-130884282D01*
X104834046Y-130845612D01*
X104853096Y-130809973D01*
X104878733Y-130778733D01*
X104909973Y-130753096D01*
X104945612Y-130734046D01*
X104984282Y-130722315D01*
X105030638Y-130717750D01*
X106106862Y-130717750D01*
X106153218Y-130722315D01*
X106153218Y-130722315D01*
G37*
G36*
X118789718Y-129243315D02*
G01*
X118828388Y-129255046D01*
X118864027Y-129274096D01*
X118895267Y-129299733D01*
X118920904Y-129330973D01*
X118939954Y-129366612D01*
X118951685Y-129405282D01*
X118956250Y-129451638D01*
X118956250Y-130102862D01*
X118951685Y-130149218D01*
X118939954Y-130187888D01*
X118920904Y-130223527D01*
X118895267Y-130254767D01*
X118864027Y-130280404D01*
X118828388Y-130299454D01*
X118789718Y-130311185D01*
X118743362Y-130315750D01*
X117667138Y-130315750D01*
X117620782Y-130311185D01*
X117582112Y-130299454D01*
X117546473Y-130280404D01*
X117515233Y-130254767D01*
X117489596Y-130223527D01*
X117470546Y-130187888D01*
X117458815Y-130149218D01*
X117454250Y-130102862D01*
X117454250Y-129451638D01*
X117458815Y-129405282D01*
X117470546Y-129366612D01*
X117489596Y-129330973D01*
X117515233Y-129299733D01*
X117546473Y-129274096D01*
X117582112Y-129255046D01*
X117620782Y-129243315D01*
X117667138Y-129238750D01*
X118743362Y-129238750D01*
X118789718Y-129243315D01*
X118789718Y-129243315D01*
G37*
G36*
X121837718Y-129194815D02*
G01*
X121876388Y-129206546D01*
X121912027Y-129225596D01*
X121943267Y-129251233D01*
X121968904Y-129282473D01*
X121987954Y-129318112D01*
X121999685Y-129356782D01*
X122004250Y-129403138D01*
X122004250Y-130054362D01*
X121999685Y-130100718D01*
X121987954Y-130139388D01*
X121968904Y-130175027D01*
X121943267Y-130206267D01*
X121912027Y-130231904D01*
X121876388Y-130250954D01*
X121837718Y-130262685D01*
X121791362Y-130267250D01*
X120715138Y-130267250D01*
X120668782Y-130262685D01*
X120630112Y-130250954D01*
X120594473Y-130231904D01*
X120563233Y-130206267D01*
X120537596Y-130175027D01*
X120518546Y-130139388D01*
X120506815Y-130100718D01*
X120502250Y-130054362D01*
X120502250Y-129403138D01*
X120506815Y-129356782D01*
X120518546Y-129318112D01*
X120537596Y-129282473D01*
X120563233Y-129251233D01*
X120594473Y-129225596D01*
X120630112Y-129206546D01*
X120668782Y-129194815D01*
X120715138Y-129190250D01*
X121791362Y-129190250D01*
X121837718Y-129194815D01*
X121837718Y-129194815D01*
G37*
G36*
X178451000Y-129944750D02*
G01*
X177149000Y-129944750D01*
X177149000Y-128942750D01*
X178451000Y-128942750D01*
X178451000Y-129944750D01*
X178451000Y-129944750D01*
G37*
G36*
X159401000Y-129944750D02*
G01*
X158099000Y-129944750D01*
X158099000Y-128942750D01*
X159401000Y-128942750D01*
X159401000Y-129944750D01*
X159401000Y-129944750D01*
G37*
G36*
X106153218Y-128847315D02*
G01*
X106191888Y-128859046D01*
X106227527Y-128878096D01*
X106258767Y-128903733D01*
X106284404Y-128934973D01*
X106303454Y-128970612D01*
X106315185Y-129009282D01*
X106319750Y-129055638D01*
X106319750Y-129706862D01*
X106315185Y-129753218D01*
X106303454Y-129791888D01*
X106284404Y-129827527D01*
X106258767Y-129858767D01*
X106227527Y-129884404D01*
X106191888Y-129903454D01*
X106153218Y-129915185D01*
X106106862Y-129919750D01*
X105030638Y-129919750D01*
X104984282Y-129915185D01*
X104945612Y-129903454D01*
X104909973Y-129884404D01*
X104878733Y-129858767D01*
X104853096Y-129827527D01*
X104834046Y-129791888D01*
X104822315Y-129753218D01*
X104817750Y-129706862D01*
X104817750Y-129055638D01*
X104822315Y-129009282D01*
X104834046Y-128970612D01*
X104853096Y-128934973D01*
X104878733Y-128903733D01*
X104909973Y-128878096D01*
X104945612Y-128859046D01*
X104984282Y-128847315D01*
X105030638Y-128842750D01*
X106106862Y-128842750D01*
X106153218Y-128847315D01*
X106153218Y-128847315D01*
G37*
G36*
X110121968Y-128847315D02*
G01*
X110160638Y-128859046D01*
X110196277Y-128878096D01*
X110227517Y-128903733D01*
X110253154Y-128934973D01*
X110272204Y-128970612D01*
X110283935Y-129009282D01*
X110288500Y-129055638D01*
X110288500Y-129706862D01*
X110283935Y-129753218D01*
X110272204Y-129791888D01*
X110253154Y-129827527D01*
X110227517Y-129858767D01*
X110196277Y-129884404D01*
X110160638Y-129903454D01*
X110121968Y-129915185D01*
X110075612Y-129919750D01*
X108999388Y-129919750D01*
X108953032Y-129915185D01*
X108914362Y-129903454D01*
X108878723Y-129884404D01*
X108847483Y-129858767D01*
X108821846Y-129827527D01*
X108802796Y-129791888D01*
X108791065Y-129753218D01*
X108786500Y-129706862D01*
X108786500Y-129055638D01*
X108791065Y-129009282D01*
X108802796Y-128970612D01*
X108821846Y-128934973D01*
X108847483Y-128903733D01*
X108878723Y-128878096D01*
X108914362Y-128859046D01*
X108953032Y-128847315D01*
X108999388Y-128842750D01*
X110075612Y-128842750D01*
X110121968Y-128847315D01*
X110121968Y-128847315D01*
G37*
G36*
X170458974Y-125827434D02*
G01*
X170603382Y-125887250D01*
X170831123Y-125981583D01*
X171166048Y-126205373D01*
X171450877Y-126490202D01*
X171674667Y-126825127D01*
X171721324Y-126937767D01*
X171828816Y-127197276D01*
X171907400Y-127592344D01*
X171907400Y-127995156D01*
X171828816Y-128390224D01*
X171777951Y-128513022D01*
X171674667Y-128762373D01*
X171450877Y-129097298D01*
X171166048Y-129382127D01*
X170831123Y-129605917D01*
X170676974Y-129669767D01*
X170458974Y-129760066D01*
X170063906Y-129838650D01*
X169661094Y-129838650D01*
X169266026Y-129760066D01*
X169048026Y-129669767D01*
X168893877Y-129605917D01*
X168558952Y-129382127D01*
X168274123Y-129097298D01*
X168050333Y-128762373D01*
X167947049Y-128513022D01*
X167896184Y-128390224D01*
X167817600Y-127995156D01*
X167817600Y-127592344D01*
X167896184Y-127197276D01*
X168003676Y-126937767D01*
X168050333Y-126825127D01*
X168274123Y-126490202D01*
X168558952Y-126205373D01*
X168893877Y-125981583D01*
X169121618Y-125887250D01*
X169266026Y-125827434D01*
X169661094Y-125748850D01*
X170063906Y-125748850D01*
X170458974Y-125827434D01*
X170458974Y-125827434D01*
G37*
G36*
X151408974Y-125827434D02*
G01*
X151553382Y-125887250D01*
X151781123Y-125981583D01*
X152116048Y-126205373D01*
X152400877Y-126490202D01*
X152624667Y-126825127D01*
X152671324Y-126937767D01*
X152778816Y-127197276D01*
X152857400Y-127592344D01*
X152857400Y-127995156D01*
X152778816Y-128390224D01*
X152727951Y-128513022D01*
X152624667Y-128762373D01*
X152400877Y-129097298D01*
X152116048Y-129382127D01*
X151781123Y-129605917D01*
X151626974Y-129669767D01*
X151408974Y-129760066D01*
X151013906Y-129838650D01*
X150611094Y-129838650D01*
X150216026Y-129760066D01*
X149998026Y-129669767D01*
X149843877Y-129605917D01*
X149508952Y-129382127D01*
X149224123Y-129097298D01*
X149000333Y-128762373D01*
X148897049Y-128513022D01*
X148846184Y-128390224D01*
X148767600Y-127995156D01*
X148767600Y-127592344D01*
X148846184Y-127197276D01*
X148953676Y-126937767D01*
X149000333Y-126825127D01*
X149224123Y-126490202D01*
X149508952Y-126205373D01*
X149843877Y-125981583D01*
X150071618Y-125887250D01*
X150216026Y-125827434D01*
X150611094Y-125748850D01*
X151013906Y-125748850D01*
X151408974Y-125827434D01*
X151408974Y-125827434D01*
G37*
G36*
X131180000Y-128889250D02*
G01*
X129678000Y-128889250D01*
X129678000Y-127587250D01*
X131180000Y-127587250D01*
X131180000Y-128889250D01*
X131180000Y-128889250D01*
G37*
G36*
X128980000Y-128889250D02*
G01*
X127478000Y-128889250D01*
X127478000Y-127587250D01*
X128980000Y-127587250D01*
X128980000Y-128889250D01*
X128980000Y-128889250D01*
G37*
G36*
X125806468Y-127801315D02*
G01*
X125845138Y-127813046D01*
X125880777Y-127832096D01*
X125912017Y-127857733D01*
X125937654Y-127888973D01*
X125956704Y-127924612D01*
X125968435Y-127963282D01*
X125973000Y-128009638D01*
X125973000Y-128660862D01*
X125968435Y-128707218D01*
X125956704Y-128745888D01*
X125937654Y-128781527D01*
X125912017Y-128812767D01*
X125880777Y-128838404D01*
X125845138Y-128857454D01*
X125806468Y-128869185D01*
X125760112Y-128873750D01*
X124683888Y-128873750D01*
X124637532Y-128869185D01*
X124598862Y-128857454D01*
X124563223Y-128838404D01*
X124531983Y-128812767D01*
X124506346Y-128781527D01*
X124487296Y-128745888D01*
X124475565Y-128707218D01*
X124471000Y-128660862D01*
X124471000Y-128009638D01*
X124475565Y-127963282D01*
X124487296Y-127924612D01*
X124506346Y-127888973D01*
X124531983Y-127857733D01*
X124563223Y-127832096D01*
X124598862Y-127813046D01*
X124637532Y-127801315D01*
X124683888Y-127796750D01*
X125760112Y-127796750D01*
X125806468Y-127801315D01*
X125806468Y-127801315D01*
G37*
G36*
X133807468Y-127801315D02*
G01*
X133846138Y-127813046D01*
X133881777Y-127832096D01*
X133913017Y-127857733D01*
X133938654Y-127888973D01*
X133957704Y-127924612D01*
X133969435Y-127963282D01*
X133974000Y-128009638D01*
X133974000Y-128660862D01*
X133969435Y-128707218D01*
X133957704Y-128745888D01*
X133938654Y-128781527D01*
X133913017Y-128812767D01*
X133881777Y-128838404D01*
X133846138Y-128857454D01*
X133807468Y-128869185D01*
X133761112Y-128873750D01*
X132684888Y-128873750D01*
X132638532Y-128869185D01*
X132599862Y-128857454D01*
X132564223Y-128838404D01*
X132532983Y-128812767D01*
X132507346Y-128781527D01*
X132488296Y-128745888D01*
X132476565Y-128707218D01*
X132472000Y-128660862D01*
X132472000Y-128009638D01*
X132476565Y-127963282D01*
X132488296Y-127924612D01*
X132507346Y-127888973D01*
X132532983Y-127857733D01*
X132564223Y-127832096D01*
X132599862Y-127813046D01*
X132638532Y-127801315D01*
X132684888Y-127796750D01*
X133761112Y-127796750D01*
X133807468Y-127801315D01*
X133807468Y-127801315D01*
G37*
G36*
X156162604Y-126903335D02*
G01*
X156331126Y-126973139D01*
X156482791Y-127074478D01*
X156611772Y-127203459D01*
X156713111Y-127355124D01*
X156782915Y-127523646D01*
X156818500Y-127702547D01*
X156818500Y-127884953D01*
X156782915Y-128063854D01*
X156713111Y-128232376D01*
X156611772Y-128384041D01*
X156482791Y-128513022D01*
X156331126Y-128614361D01*
X156162604Y-128684165D01*
X155983703Y-128719750D01*
X155801297Y-128719750D01*
X155622396Y-128684165D01*
X155453874Y-128614361D01*
X155302209Y-128513022D01*
X155173228Y-128384041D01*
X155071889Y-128232376D01*
X155002085Y-128063854D01*
X154966500Y-127884953D01*
X154966500Y-127702547D01*
X155002085Y-127523646D01*
X155071889Y-127355124D01*
X155173228Y-127203459D01*
X155302209Y-127074478D01*
X155453874Y-126973139D01*
X155622396Y-126903335D01*
X155801297Y-126867750D01*
X155983703Y-126867750D01*
X156162604Y-126903335D01*
X156162604Y-126903335D01*
G37*
G36*
X175212604Y-126903335D02*
G01*
X175381126Y-126973139D01*
X175532791Y-127074478D01*
X175661772Y-127203459D01*
X175763111Y-127355124D01*
X175832915Y-127523646D01*
X175868500Y-127702547D01*
X175868500Y-127884953D01*
X175832915Y-128063854D01*
X175763111Y-128232376D01*
X175661772Y-128384041D01*
X175532791Y-128513022D01*
X175381126Y-128614361D01*
X175212604Y-128684165D01*
X175033703Y-128719750D01*
X174851297Y-128719750D01*
X174672396Y-128684165D01*
X174503874Y-128614361D01*
X174352209Y-128513022D01*
X174223228Y-128384041D01*
X174121889Y-128232376D01*
X174052085Y-128063854D01*
X174016500Y-127884953D01*
X174016500Y-127702547D01*
X174052085Y-127523646D01*
X174121889Y-127355124D01*
X174223228Y-127203459D01*
X174352209Y-127074478D01*
X174503874Y-126973139D01*
X174672396Y-126903335D01*
X174851297Y-126867750D01*
X175033703Y-126867750D01*
X175212604Y-126903335D01*
X175212604Y-126903335D01*
G37*
G36*
X146002604Y-126903335D02*
G01*
X146171126Y-126973139D01*
X146322791Y-127074478D01*
X146451772Y-127203459D01*
X146553111Y-127355124D01*
X146622915Y-127523646D01*
X146658500Y-127702547D01*
X146658500Y-127884953D01*
X146622915Y-128063854D01*
X146553111Y-128232376D01*
X146451772Y-128384041D01*
X146322791Y-128513022D01*
X146171126Y-128614361D01*
X146002604Y-128684165D01*
X145823703Y-128719750D01*
X145641297Y-128719750D01*
X145462396Y-128684165D01*
X145293874Y-128614361D01*
X145142209Y-128513022D01*
X145013228Y-128384041D01*
X144911889Y-128232376D01*
X144842085Y-128063854D01*
X144806500Y-127884953D01*
X144806500Y-127702547D01*
X144842085Y-127523646D01*
X144911889Y-127355124D01*
X145013228Y-127203459D01*
X145142209Y-127074478D01*
X145293874Y-126973139D01*
X145462396Y-126903335D01*
X145641297Y-126867750D01*
X145823703Y-126867750D01*
X146002604Y-126903335D01*
X146002604Y-126903335D01*
G37*
G36*
X165052604Y-126903335D02*
G01*
X165221126Y-126973139D01*
X165372791Y-127074478D01*
X165501772Y-127203459D01*
X165603111Y-127355124D01*
X165672915Y-127523646D01*
X165708500Y-127702547D01*
X165708500Y-127884953D01*
X165672915Y-128063854D01*
X165603111Y-128232376D01*
X165501772Y-128384041D01*
X165372791Y-128513022D01*
X165221126Y-128614361D01*
X165052604Y-128684165D01*
X164873703Y-128719750D01*
X164691297Y-128719750D01*
X164512396Y-128684165D01*
X164343874Y-128614361D01*
X164192209Y-128513022D01*
X164063228Y-128384041D01*
X163961889Y-128232376D01*
X163892085Y-128063854D01*
X163856500Y-127884953D01*
X163856500Y-127702547D01*
X163892085Y-127523646D01*
X163961889Y-127355124D01*
X164063228Y-127203459D01*
X164192209Y-127074478D01*
X164343874Y-126973139D01*
X164512396Y-126903335D01*
X164691297Y-126867750D01*
X164873703Y-126867750D01*
X165052604Y-126903335D01*
X165052604Y-126903335D01*
G37*
G36*
X128980000Y-127189250D02*
G01*
X127478000Y-127189250D01*
X127478000Y-125887250D01*
X128980000Y-125887250D01*
X128980000Y-127189250D01*
X128980000Y-127189250D01*
G37*
G36*
X131180000Y-127189250D02*
G01*
X129678000Y-127189250D01*
X129678000Y-125887250D01*
X131180000Y-125887250D01*
X131180000Y-127189250D01*
X131180000Y-127189250D01*
G37*
G36*
X125806468Y-125926315D02*
G01*
X125845138Y-125938046D01*
X125880777Y-125957096D01*
X125912017Y-125982733D01*
X125937654Y-126013973D01*
X125956704Y-126049612D01*
X125968435Y-126088282D01*
X125973000Y-126134638D01*
X125973000Y-126785862D01*
X125968435Y-126832218D01*
X125956704Y-126870888D01*
X125937654Y-126906527D01*
X125912017Y-126937767D01*
X125880777Y-126963404D01*
X125845138Y-126982454D01*
X125806468Y-126994185D01*
X125760112Y-126998750D01*
X124683888Y-126998750D01*
X124637532Y-126994185D01*
X124598862Y-126982454D01*
X124563223Y-126963404D01*
X124531983Y-126937767D01*
X124506346Y-126906527D01*
X124487296Y-126870888D01*
X124475565Y-126832218D01*
X124471000Y-126785862D01*
X124471000Y-126134638D01*
X124475565Y-126088282D01*
X124487296Y-126049612D01*
X124506346Y-126013973D01*
X124531983Y-125982733D01*
X124563223Y-125957096D01*
X124598862Y-125938046D01*
X124637532Y-125926315D01*
X124683888Y-125921750D01*
X125760112Y-125921750D01*
X125806468Y-125926315D01*
X125806468Y-125926315D01*
G37*
G36*
X133807468Y-125926315D02*
G01*
X133846138Y-125938046D01*
X133881777Y-125957096D01*
X133913017Y-125982733D01*
X133938654Y-126013973D01*
X133957704Y-126049612D01*
X133969435Y-126088282D01*
X133974000Y-126134638D01*
X133974000Y-126785862D01*
X133969435Y-126832218D01*
X133957704Y-126870888D01*
X133938654Y-126906527D01*
X133913017Y-126937767D01*
X133881777Y-126963404D01*
X133846138Y-126982454D01*
X133807468Y-126994185D01*
X133761112Y-126998750D01*
X132684888Y-126998750D01*
X132638532Y-126994185D01*
X132599862Y-126982454D01*
X132564223Y-126963404D01*
X132532983Y-126937767D01*
X132507346Y-126906527D01*
X132488296Y-126870888D01*
X132476565Y-126832218D01*
X132472000Y-126785862D01*
X132472000Y-126134638D01*
X132476565Y-126088282D01*
X132488296Y-126049612D01*
X132507346Y-126013973D01*
X132532983Y-125982733D01*
X132564223Y-125957096D01*
X132599862Y-125938046D01*
X132638532Y-125926315D01*
X132684888Y-125921750D01*
X133761112Y-125921750D01*
X133807468Y-125926315D01*
X133807468Y-125926315D01*
G37*
G36*
X178451000Y-126644750D02*
G01*
X177149000Y-126644750D01*
X177149000Y-125642750D01*
X178451000Y-125642750D01*
X178451000Y-126644750D01*
X178451000Y-126644750D01*
G37*
G36*
X159401000Y-126644750D02*
G01*
X158099000Y-126644750D01*
X158099000Y-125642750D01*
X159401000Y-125642750D01*
X159401000Y-126644750D01*
X159401000Y-126644750D01*
G37*
G36*
X148335705Y-122617631D02*
G01*
X148341145Y-122617750D01*
X148428328Y-122617750D01*
X148444597Y-122620986D01*
X148463456Y-122623265D01*
X148480032Y-122623996D01*
X148564723Y-122644760D01*
X148570018Y-122645934D01*
X148655527Y-122662943D01*
X148670862Y-122669295D01*
X148688901Y-122675205D01*
X148705021Y-122679157D01*
X148784004Y-122716030D01*
X148788994Y-122718227D01*
X148869545Y-122751592D01*
X148883341Y-122760810D01*
X148899893Y-122770132D01*
X148914926Y-122777150D01*
X148985194Y-122828721D01*
X148989692Y-122831872D01*
X149062156Y-122880291D01*
X149073883Y-122892018D01*
X149088309Y-122904398D01*
X149101679Y-122914211D01*
X149151187Y-122968287D01*
X149160521Y-122978483D01*
X149164329Y-122982464D01*
X149225959Y-123044094D01*
X149235174Y-123057885D01*
X149246896Y-123072828D01*
X149258105Y-123085071D01*
X149303299Y-123159624D01*
X149306246Y-123164251D01*
X149354658Y-123236705D01*
X149361005Y-123252027D01*
X149369592Y-123268981D01*
X149378191Y-123283167D01*
X149407978Y-123365118D01*
X149409952Y-123370198D01*
X149443307Y-123450723D01*
X149443307Y-123450724D01*
X149446541Y-123466983D01*
X149451658Y-123485292D01*
X149457325Y-123500884D01*
X149470555Y-123587095D01*
X149471501Y-123592463D01*
X149488500Y-123677923D01*
X149488500Y-123694502D01*
X149489944Y-123713442D01*
X149492463Y-123729854D01*
X149488620Y-123816999D01*
X149488500Y-123822439D01*
X149488500Y-123909575D01*
X149485266Y-123925833D01*
X149482988Y-123944691D01*
X149482256Y-123961281D01*
X149461488Y-124045987D01*
X149460312Y-124051287D01*
X149443307Y-124136777D01*
X149436957Y-124152107D01*
X149431049Y-124170143D01*
X149427095Y-124186270D01*
X149390211Y-124265276D01*
X149388011Y-124270273D01*
X149354658Y-124350795D01*
X149345444Y-124364585D01*
X149336122Y-124381137D01*
X149329102Y-124396174D01*
X149277511Y-124466470D01*
X149274366Y-124470960D01*
X149225961Y-124543404D01*
X149168960Y-124600405D01*
X149164311Y-124605313D01*
X148780677Y-125032874D01*
X147839223Y-126082126D01*
X147711179Y-126199352D01*
X147612130Y-126259396D01*
X147513083Y-126319439D01*
X147295366Y-126398573D01*
X147066395Y-126433711D01*
X146834970Y-126423504D01*
X146609981Y-126368343D01*
X146505227Y-126319439D01*
X146400079Y-126270352D01*
X146291958Y-126191000D01*
X146213323Y-126133289D01*
X146136716Y-126049612D01*
X146056898Y-125962429D01*
X145975064Y-125827435D01*
X145936811Y-125764333D01*
X145857677Y-125546616D01*
X145822539Y-125317645D01*
X145832746Y-125086220D01*
X145887907Y-124861231D01*
X145939472Y-124750778D01*
X145985898Y-124651330D01*
X145985900Y-124651327D01*
X146088614Y-124511372D01*
X146834909Y-123679625D01*
X147375287Y-123077371D01*
X147386181Y-123063339D01*
X147399039Y-123044096D01*
X147456073Y-122987062D01*
X147460723Y-122982153D01*
X147475778Y-122965374D01*
X147497201Y-122945761D01*
X147501182Y-122941953D01*
X147562846Y-122880289D01*
X147576643Y-122871070D01*
X147591602Y-122859335D01*
X147603821Y-122848148D01*
X147635885Y-122828711D01*
X147678330Y-122802981D01*
X147682921Y-122800058D01*
X147755455Y-122751592D01*
X147770800Y-122745236D01*
X147787748Y-122736651D01*
X147801916Y-122728062D01*
X147801917Y-122728062D01*
X147801918Y-122728061D01*
X147883812Y-122698295D01*
X147888910Y-122696313D01*
X147969473Y-122662943D01*
X147985752Y-122659705D01*
X148004042Y-122654594D01*
X148019635Y-122648927D01*
X148105800Y-122635704D01*
X148111163Y-122634759D01*
X148196673Y-122617750D01*
X148213266Y-122617750D01*
X148232209Y-122616305D01*
X148248606Y-122613789D01*
X148335705Y-122617631D01*
X148335705Y-122617631D01*
G37*
G36*
X167385705Y-122617631D02*
G01*
X167391145Y-122617750D01*
X167478328Y-122617750D01*
X167494597Y-122620986D01*
X167513456Y-122623265D01*
X167530032Y-122623996D01*
X167614723Y-122644760D01*
X167620018Y-122645934D01*
X167705527Y-122662943D01*
X167720862Y-122669295D01*
X167738901Y-122675205D01*
X167755021Y-122679157D01*
X167834004Y-122716030D01*
X167838994Y-122718227D01*
X167919545Y-122751592D01*
X167933341Y-122760810D01*
X167949893Y-122770132D01*
X167964926Y-122777150D01*
X168035194Y-122828721D01*
X168039692Y-122831872D01*
X168112156Y-122880291D01*
X168123883Y-122892018D01*
X168138309Y-122904398D01*
X168151679Y-122914211D01*
X168201187Y-122968287D01*
X168210521Y-122978483D01*
X168214329Y-122982464D01*
X168275959Y-123044094D01*
X168285174Y-123057885D01*
X168296896Y-123072828D01*
X168308105Y-123085071D01*
X168353299Y-123159624D01*
X168356246Y-123164251D01*
X168404658Y-123236705D01*
X168411005Y-123252027D01*
X168419592Y-123268981D01*
X168428191Y-123283167D01*
X168457978Y-123365118D01*
X168459952Y-123370198D01*
X168493307Y-123450723D01*
X168493307Y-123450724D01*
X168496541Y-123466983D01*
X168501658Y-123485292D01*
X168507325Y-123500884D01*
X168520555Y-123587095D01*
X168521501Y-123592463D01*
X168538500Y-123677923D01*
X168538500Y-123694502D01*
X168539944Y-123713442D01*
X168542463Y-123729854D01*
X168538620Y-123816999D01*
X168538500Y-123822439D01*
X168538500Y-123909575D01*
X168535266Y-123925833D01*
X168532988Y-123944691D01*
X168532256Y-123961281D01*
X168511488Y-124045987D01*
X168510312Y-124051287D01*
X168493307Y-124136777D01*
X168486957Y-124152107D01*
X168481049Y-124170143D01*
X168477095Y-124186270D01*
X168440211Y-124265276D01*
X168438011Y-124270273D01*
X168404658Y-124350795D01*
X168395444Y-124364585D01*
X168386122Y-124381137D01*
X168379102Y-124396174D01*
X168327511Y-124466470D01*
X168324366Y-124470960D01*
X168275961Y-124543404D01*
X168218960Y-124600405D01*
X168214311Y-124605313D01*
X167830677Y-125032874D01*
X166889223Y-126082126D01*
X166761179Y-126199352D01*
X166662130Y-126259396D01*
X166563083Y-126319439D01*
X166345366Y-126398573D01*
X166116395Y-126433711D01*
X165884970Y-126423504D01*
X165659981Y-126368343D01*
X165555227Y-126319439D01*
X165450079Y-126270352D01*
X165341958Y-126191000D01*
X165263323Y-126133289D01*
X165186716Y-126049612D01*
X165106898Y-125962429D01*
X165025064Y-125827435D01*
X164986811Y-125764333D01*
X164907677Y-125546616D01*
X164872539Y-125317645D01*
X164882746Y-125086220D01*
X164937907Y-124861231D01*
X164989472Y-124750778D01*
X165035898Y-124651330D01*
X165035900Y-124651327D01*
X165138614Y-124511372D01*
X165884909Y-123679625D01*
X166425287Y-123077371D01*
X166436181Y-123063339D01*
X166449039Y-123044096D01*
X166506073Y-122987062D01*
X166510723Y-122982153D01*
X166525778Y-122965374D01*
X166547201Y-122945761D01*
X166551182Y-122941953D01*
X166612846Y-122880289D01*
X166626643Y-122871070D01*
X166641602Y-122859335D01*
X166653821Y-122848148D01*
X166685885Y-122828711D01*
X166728330Y-122802981D01*
X166732921Y-122800058D01*
X166805455Y-122751592D01*
X166820800Y-122745236D01*
X166837748Y-122736651D01*
X166851916Y-122728062D01*
X166851917Y-122728062D01*
X166851918Y-122728061D01*
X166933812Y-122698295D01*
X166938910Y-122696313D01*
X167019473Y-122662943D01*
X167035752Y-122659705D01*
X167054042Y-122654594D01*
X167069635Y-122648927D01*
X167155800Y-122635704D01*
X167161163Y-122634759D01*
X167246673Y-122617750D01*
X167263266Y-122617750D01*
X167282209Y-122616305D01*
X167298606Y-122613789D01*
X167385705Y-122617631D01*
X167385705Y-122617631D01*
G37*
G36*
X104476627Y-122968287D02*
G01*
X104646466Y-123019807D01*
X104802991Y-123103472D01*
X104838729Y-123132802D01*
X104940186Y-123216064D01*
X104995254Y-123283166D01*
X105052778Y-123353259D01*
X105136443Y-123509784D01*
X105187963Y-123679623D01*
X105187963Y-123679625D01*
X105201000Y-123811990D01*
X105201000Y-124900510D01*
X105194482Y-124966692D01*
X105187963Y-125032877D01*
X105136443Y-125202716D01*
X105052778Y-125359241D01*
X105023448Y-125394979D01*
X104940186Y-125496436D01*
X104802989Y-125609029D01*
X104646467Y-125692692D01*
X104646465Y-125692693D01*
X104476626Y-125744213D01*
X104300000Y-125761609D01*
X104123373Y-125744213D01*
X103953534Y-125692693D01*
X103797009Y-125609028D01*
X103720966Y-125546621D01*
X103659814Y-125496436D01*
X103547221Y-125359239D01*
X103463558Y-125202717D01*
X103463557Y-125202715D01*
X103412037Y-125032876D01*
X103399000Y-124900507D01*
X103399001Y-123811992D01*
X103412038Y-123679623D01*
X103463558Y-123509784D01*
X103547223Y-123353259D01*
X103604747Y-123283166D01*
X103659815Y-123216064D01*
X103761272Y-123132802D01*
X103797010Y-123103472D01*
X103953535Y-123019807D01*
X104123374Y-122968287D01*
X104300000Y-122950891D01*
X104476627Y-122968287D01*
X104476627Y-122968287D01*
G37*
G36*
X111776627Y-122968287D02*
G01*
X111946466Y-123019807D01*
X112102991Y-123103472D01*
X112138729Y-123132802D01*
X112240186Y-123216064D01*
X112295254Y-123283166D01*
X112352778Y-123353259D01*
X112436443Y-123509784D01*
X112487963Y-123679623D01*
X112487963Y-123679625D01*
X112501000Y-123811990D01*
X112501000Y-124900510D01*
X112494482Y-124966692D01*
X112487963Y-125032877D01*
X112436443Y-125202716D01*
X112352778Y-125359241D01*
X112323448Y-125394979D01*
X112240186Y-125496436D01*
X112102989Y-125609029D01*
X111946467Y-125692692D01*
X111946465Y-125692693D01*
X111776626Y-125744213D01*
X111600000Y-125761609D01*
X111423373Y-125744213D01*
X111253534Y-125692693D01*
X111097009Y-125609028D01*
X111020966Y-125546621D01*
X110959814Y-125496436D01*
X110847221Y-125359239D01*
X110763558Y-125202717D01*
X110763557Y-125202715D01*
X110712037Y-125032876D01*
X110699000Y-124900507D01*
X110699001Y-123811992D01*
X110712038Y-123679623D01*
X110763558Y-123509784D01*
X110847223Y-123353259D01*
X110904747Y-123283166D01*
X110959815Y-123216064D01*
X111061272Y-123132802D01*
X111097010Y-123103472D01*
X111253535Y-123019807D01*
X111423374Y-122968287D01*
X111600000Y-122950891D01*
X111776627Y-122968287D01*
X111776627Y-122968287D01*
G37*
G36*
X109851000Y-125532250D02*
G01*
X106049000Y-125532250D01*
X106049000Y-123180250D01*
X109851000Y-123180250D01*
X109851000Y-125532250D01*
X109851000Y-125532250D01*
G37*
G36*
X172490627Y-121536011D02*
G01*
X172511400Y-121537750D01*
X172518327Y-121537750D01*
X172613254Y-121556632D01*
X172616848Y-121557292D01*
X172712230Y-121573374D01*
X172718703Y-121575835D01*
X172738728Y-121581591D01*
X172745527Y-121582943D01*
X172807914Y-121608784D01*
X172834943Y-121619980D01*
X172838344Y-121621331D01*
X172928755Y-121655711D01*
X172934627Y-121659390D01*
X172953136Y-121668937D01*
X172959545Y-121671592D01*
X173040063Y-121725392D01*
X173043054Y-121727328D01*
X173125057Y-121778709D01*
X173130084Y-121783450D01*
X173146396Y-121796441D01*
X173152152Y-121800287D01*
X173220610Y-121868745D01*
X173223189Y-121871249D01*
X173293590Y-121937639D01*
X173297595Y-121943269D01*
X173311059Y-121959194D01*
X173315959Y-121964094D01*
X173369744Y-122044589D01*
X173371791Y-122047557D01*
X173427880Y-122126395D01*
X173430714Y-122132708D01*
X173440808Y-122150943D01*
X173444658Y-122156705D01*
X173481720Y-122246180D01*
X173483124Y-122249435D01*
X173522765Y-122337723D01*
X173524315Y-122344475D01*
X173530652Y-122364312D01*
X173533307Y-122370723D01*
X173552192Y-122465667D01*
X173552938Y-122469151D01*
X173574598Y-122563501D01*
X173574598Y-122563504D01*
X173574800Y-122570404D01*
X173577147Y-122591120D01*
X173578500Y-122597924D01*
X173578500Y-122694736D01*
X173578553Y-122698334D01*
X173579688Y-122737027D01*
X173578795Y-122749975D01*
X173578500Y-122758547D01*
X173578500Y-122829576D01*
X173572581Y-122859335D01*
X173572104Y-122861729D01*
X173570000Y-122877500D01*
X173531738Y-123432295D01*
X173502876Y-123603480D01*
X173420538Y-123820005D01*
X173297541Y-124016307D01*
X173138611Y-124184840D01*
X172949855Y-124319130D01*
X172738527Y-124414015D01*
X172512749Y-124465848D01*
X172281198Y-124472639D01*
X172281197Y-124472639D01*
X172235512Y-124464936D01*
X172052770Y-124434126D01*
X171836245Y-124351788D01*
X171639943Y-124228791D01*
X171471410Y-124069861D01*
X171337120Y-123881105D01*
X171242235Y-123669777D01*
X171190402Y-123443999D01*
X171185312Y-123270473D01*
X171226204Y-122677544D01*
X171226500Y-122668946D01*
X171226500Y-122597925D01*
X171245382Y-122503000D01*
X171246044Y-122499395D01*
X171251731Y-122465667D01*
X171262124Y-122404020D01*
X171264585Y-122397549D01*
X171270342Y-122377517D01*
X171271693Y-122370724D01*
X171274343Y-122364326D01*
X171308764Y-122281226D01*
X171310053Y-122277980D01*
X171344462Y-122187495D01*
X171348136Y-122181631D01*
X171357687Y-122163115D01*
X171360342Y-122156705D01*
X171414157Y-122076165D01*
X171416077Y-122073199D01*
X171467459Y-121991193D01*
X171472211Y-121986154D01*
X171485189Y-121969857D01*
X171489037Y-121964098D01*
X171557493Y-121895642D01*
X171560046Y-121893012D01*
X171580523Y-121871298D01*
X171626389Y-121822660D01*
X171632021Y-121818653D01*
X171647947Y-121805188D01*
X171652846Y-121800289D01*
X171733324Y-121746516D01*
X171736306Y-121744460D01*
X171815145Y-121688370D01*
X171821455Y-121685537D01*
X171839694Y-121675441D01*
X171845451Y-121671594D01*
X171845454Y-121671593D01*
X171845455Y-121671592D01*
X171934929Y-121634531D01*
X171938187Y-121633125D01*
X172026473Y-121593485D01*
X172033225Y-121591935D01*
X172053062Y-121585598D01*
X172059473Y-121582943D01*
X172154399Y-121564061D01*
X172157946Y-121563301D01*
X172252251Y-121541651D01*
X172254630Y-121541581D01*
X172259165Y-121541448D01*
X172279881Y-121539101D01*
X172286674Y-121537750D01*
X172383459Y-121537750D01*
X172387084Y-121537697D01*
X172483802Y-121534860D01*
X172490627Y-121536011D01*
X172490627Y-121536011D01*
G37*
G36*
X153440627Y-121536011D02*
G01*
X153461400Y-121537750D01*
X153468327Y-121537750D01*
X153563254Y-121556632D01*
X153566848Y-121557292D01*
X153662230Y-121573374D01*
X153668703Y-121575835D01*
X153688728Y-121581591D01*
X153695527Y-121582943D01*
X153757914Y-121608784D01*
X153784943Y-121619980D01*
X153788344Y-121621331D01*
X153878755Y-121655711D01*
X153884627Y-121659390D01*
X153903136Y-121668937D01*
X153909545Y-121671592D01*
X153990063Y-121725392D01*
X153993054Y-121727328D01*
X154075057Y-121778709D01*
X154080084Y-121783450D01*
X154096396Y-121796441D01*
X154102152Y-121800287D01*
X154170610Y-121868745D01*
X154173189Y-121871249D01*
X154243590Y-121937639D01*
X154247595Y-121943269D01*
X154261059Y-121959194D01*
X154265959Y-121964094D01*
X154319744Y-122044589D01*
X154321791Y-122047557D01*
X154377880Y-122126395D01*
X154380714Y-122132708D01*
X154390808Y-122150943D01*
X154394658Y-122156705D01*
X154431720Y-122246180D01*
X154433124Y-122249435D01*
X154472765Y-122337723D01*
X154474315Y-122344475D01*
X154480652Y-122364312D01*
X154483307Y-122370723D01*
X154502192Y-122465667D01*
X154502938Y-122469151D01*
X154524598Y-122563501D01*
X154524598Y-122563504D01*
X154524800Y-122570404D01*
X154527147Y-122591120D01*
X154528500Y-122597924D01*
X154528500Y-122694736D01*
X154528553Y-122698334D01*
X154529688Y-122737027D01*
X154528795Y-122749975D01*
X154528500Y-122758547D01*
X154528500Y-122829576D01*
X154522581Y-122859335D01*
X154522104Y-122861729D01*
X154520000Y-122877500D01*
X154481738Y-123432295D01*
X154452876Y-123603480D01*
X154370538Y-123820005D01*
X154247541Y-124016307D01*
X154088611Y-124184840D01*
X153899855Y-124319130D01*
X153688527Y-124414015D01*
X153462749Y-124465848D01*
X153231198Y-124472639D01*
X153231197Y-124472639D01*
X153185512Y-124464936D01*
X153002770Y-124434126D01*
X152786245Y-124351788D01*
X152589943Y-124228791D01*
X152421410Y-124069861D01*
X152287120Y-123881105D01*
X152192235Y-123669777D01*
X152140402Y-123443999D01*
X152135312Y-123270473D01*
X152176204Y-122677544D01*
X152176500Y-122668946D01*
X152176500Y-122597925D01*
X152195382Y-122503000D01*
X152196044Y-122499395D01*
X152201731Y-122465667D01*
X152212124Y-122404020D01*
X152214585Y-122397549D01*
X152220342Y-122377517D01*
X152221693Y-122370724D01*
X152224343Y-122364326D01*
X152258764Y-122281226D01*
X152260053Y-122277980D01*
X152294462Y-122187495D01*
X152298136Y-122181631D01*
X152307687Y-122163115D01*
X152310342Y-122156705D01*
X152364157Y-122076165D01*
X152366077Y-122073199D01*
X152417459Y-121991193D01*
X152422211Y-121986154D01*
X152435189Y-121969857D01*
X152439037Y-121964098D01*
X152507493Y-121895642D01*
X152510046Y-121893012D01*
X152530523Y-121871298D01*
X152576389Y-121822660D01*
X152582021Y-121818653D01*
X152597947Y-121805188D01*
X152602846Y-121800289D01*
X152683324Y-121746516D01*
X152686306Y-121744460D01*
X152765145Y-121688370D01*
X152771455Y-121685537D01*
X152789694Y-121675441D01*
X152795451Y-121671594D01*
X152795454Y-121671593D01*
X152795455Y-121671592D01*
X152884929Y-121634531D01*
X152888187Y-121633125D01*
X152976473Y-121593485D01*
X152983225Y-121591935D01*
X153003062Y-121585598D01*
X153009473Y-121582943D01*
X153104399Y-121564061D01*
X153107946Y-121563301D01*
X153202251Y-121541651D01*
X153204630Y-121541581D01*
X153209165Y-121541448D01*
X153229881Y-121539101D01*
X153236674Y-121537750D01*
X153333459Y-121537750D01*
X153337084Y-121537697D01*
X153433802Y-121534860D01*
X153440627Y-121536011D01*
X153440627Y-121536011D01*
G37*
G36*
X111776627Y-118468287D02*
G01*
X111946466Y-118519807D01*
X112102991Y-118603472D01*
X112138729Y-118632802D01*
X112240186Y-118716064D01*
X112323448Y-118817521D01*
X112352778Y-118853259D01*
X112436443Y-119009784D01*
X112487963Y-119179623D01*
X112501000Y-119311992D01*
X112501000Y-120400508D01*
X112487963Y-120532877D01*
X112436443Y-120702716D01*
X112352778Y-120859241D01*
X112323448Y-120894979D01*
X112240186Y-120996436D01*
X112102989Y-121109029D01*
X111946467Y-121192692D01*
X111946465Y-121192693D01*
X111776626Y-121244213D01*
X111600000Y-121261609D01*
X111423373Y-121244213D01*
X111253534Y-121192693D01*
X111097009Y-121109028D01*
X111061271Y-121079698D01*
X110959814Y-120996436D01*
X110847221Y-120859239D01*
X110763558Y-120702717D01*
X110763557Y-120702715D01*
X110712037Y-120532876D01*
X110699000Y-120400507D01*
X110699001Y-119311992D01*
X110712038Y-119179623D01*
X110763558Y-119009784D01*
X110847223Y-118853259D01*
X110876553Y-118817521D01*
X110959815Y-118716064D01*
X111061272Y-118632802D01*
X111097010Y-118603472D01*
X111253535Y-118519807D01*
X111423374Y-118468287D01*
X111600000Y-118450891D01*
X111776627Y-118468287D01*
X111776627Y-118468287D01*
G37*
G36*
X104476627Y-118468287D02*
G01*
X104646466Y-118519807D01*
X104802991Y-118603472D01*
X104838729Y-118632802D01*
X104940186Y-118716064D01*
X105023448Y-118817521D01*
X105052778Y-118853259D01*
X105136443Y-119009784D01*
X105187963Y-119179623D01*
X105201000Y-119311992D01*
X105201000Y-120400508D01*
X105187963Y-120532877D01*
X105136443Y-120702716D01*
X105052778Y-120859241D01*
X105023448Y-120894979D01*
X104940186Y-120996436D01*
X104802989Y-121109029D01*
X104646467Y-121192692D01*
X104646465Y-121192693D01*
X104476626Y-121244213D01*
X104300000Y-121261609D01*
X104123373Y-121244213D01*
X103953534Y-121192693D01*
X103797009Y-121109028D01*
X103761271Y-121079698D01*
X103659814Y-120996436D01*
X103547221Y-120859239D01*
X103463558Y-120702717D01*
X103463557Y-120702715D01*
X103412037Y-120532876D01*
X103399000Y-120400507D01*
X103399001Y-119311992D01*
X103412038Y-119179623D01*
X103463558Y-119009784D01*
X103547223Y-118853259D01*
X103576553Y-118817521D01*
X103659815Y-118716064D01*
X103761272Y-118632802D01*
X103797010Y-118603472D01*
X103953535Y-118519807D01*
X104123374Y-118468287D01*
X104300000Y-118450891D01*
X104476627Y-118468287D01*
X104476627Y-118468287D01*
G37*
M02*
